{
.appVersion = "1017";
DisplayStrings = (
z,
"0/seven.dnom 23"
);
classes = (
{
automatic = 1;
code = "A Aacute Abreve Acircumflex Adieresis Agrave Amacron Aogonek Aring Atilde AE B C Cacute Ccaron Ccedilla Ccircumflex Cdotaccent D Eth Dcaron Dcroat E Eacute Ebreve Ecaron Ecircumflex Edieresis Edotaccent Egrave Emacron Eogonek F G Gbreve Gcircumflex Gcommaaccent Gdotaccent H Hbar Hcircumflex I IJ Iacute Icircumflex Idieresis Idotaccent Igrave Imacron Iogonek Itilde J Jcircumflex K Kcommaaccent L Lacute Lcaron Lcommaaccent Ldot Lslash M N Nacute Ncaron Ncommaaccent Ntilde O Oacute Obreve Ocircumflex Odieresis Ograve Ohungarumlaut Omacron Oslash Otilde OE P Thorn Q R Racute Rcaron Rcommaaccent S Sacute Scaron Scedilla Scircumflex Scommaaccent T Tbar Tcaron Tcedilla Tcommaaccent U Uacute Ubreve Ucircumflex Udieresis Ugrave Uhungarumlaut Umacron Uogonek Uring Utilde V W Wacute Wcircumflex Wdieresis Wgrave X Y Yacute Ycircumflex Ydieresis Z Zacute Zcaron Zdotaccent G.ss03 Gbreve.ss03 Gcircumflex.ss03 Gcommaaccent.ss03 Gdotaccent.ss03 IJ.ss04 J.ss04 Jcircumflex.ss04 Delta Omega";
name = Uppercase;
}
);
copyright = "Copyright © 2018 by Gumpita Rahayu. All rights reserved.";
customParameters = (
{
name = description;
value = "Designed by Gumpita Rahayu from Tokotype in 2013.";
},
{
name = license;
value = "This Font Software is licensed under the SIL Open Font License, Version 1.1. This license is available with a FAQ at: http://scripts.sil.org/OFL";
},
{
name = licenseURL;
value = "http://scripts.sil.org/OFL";
},
{
name = vendorID;
value = TOKO;
},
{
name = glyphOrder;
value = (
.notdef,
space
);
},
{
name = fsType;
value = (
);
},
{
name = trademark;
value = "Mohave is a trademark of Tokotype.";
}
);
date = "2018-03-29 21:42:32 +0000";
designer = "Gumpita Rahayu";
designerURL = "https://www.tokotypefaces.com";
disablesNiceNames = 1;
familyName = Mohave;
featurePrefixes = (
{
automatic = 1;

glyphs = (
{
glyphname = .notdef;
lastChange = "2018-05-02 18:04:58 +0000";
layers = (
{
layerId = "60B18B06-8123-4D0C-85E3-2DE7B5C03586";
paths = (
{
closed = 1;
nodes = (
"410 0 LINE",
"410 750 LINE",
"70 750 LINE",
"70 0 LINE"
);
},
{
closed = 1;
nodes = (
"155 665 LINE",
"325 665 LINE",
"325 85 LINE",
"155 85 LINE"
);
}
);
width = 480;
},
{
hints = (
{
horizontal = 1;
origin = "{0, 3}";
target = "{1, 3}";
},
{
horizontal = 1;
origin = "{0, 2}";
target = "{1, 0}";
}
);
layerId = "DDDB0B36-051A-43AE-9F30-611505482296";
paths = (
{
closed = 1;
nodes = (
"429 0 LINE",
"429 750 LINE",
"89 750 LINE",
"89 0 LINE"
);
},
{
closed = 1;
nodes = (
"144 695 LINE",
"374 695 LINE",
"374 55 LINE",
"144 55 LINE"
);
}
);
width = 518;
}
);
note = .notdef;
},
{
color = 8;
glyphname = A;
lastChange = "2018-05-02 18:04:58 +0000";
layers = (
{
anchors = (
{
name = bottom;
position = "{229, 0}";
},
{
name = ogonek;
position = "{368, 0}";
},
{
name = top;
position = "{229, 750}";
}
);
layerId = "60B18B06-8123-4D0C-85E3-2DE7B5C03586";
paths = (
{
closed = 1;
nodes = (
"153 0 LINE",
"171 117 LINE",
"287 117 LINE",
"304 0 LINE",
"442 0 LINE",
"303 750 LINE",
"157 750 LINE",
"15 0 LINE"
);
},
{
closed = 1;
nodes = (
"239 568 LINE",
"221 568 LINE",
"267 252 LINE",
"191 252 LINE"
);
}
);
width = 457;
},
{
anchors = (
{
name = bottom;
position = "{230, 0}";
},
{
name = ogonek;
position = "{388, 0}";
},
{
name = top;
position = "{230, 750}";
}
);
hints = (
{
horizontal = 1;
origin = "{0, 7}";
target = up;
type = BottomGhost;
},
{
horizontal = 1;
origin = "{0, 1}";
target = "{1, 3}";
},
{
horizontal = 1;
origin = "{0, 6}";
target = down;
type = TopGhost;
}
);
layerId = "DDDB0B36-051A-43AE-9F30-611505482296";
paths = (
{
closed = 1;
nodes = (
"88 0 LINE",
"125 161 LINE",
"335 161 LINE",
"372 0 LINE",
"429 0 LINE",
"259 750 LINE",
"201 750 LINE",
"31 0 LINE"
);
},
{
closed = 1;
nodes = (
"235 667 LINE",
"225 667 LINE",
"323 216 LINE",
"137 216 LINE"
);
}
);
width = 460;
},
{
associatedMasterId = "DDDB0B36-051A-43AE-9F30-611505482296";
layerId = "6669D1E1-3322-4A31-837A-101834F2C3CB";
name = "Apr 26 18, 09:50";
paths = (
{
closed = 1;
nodes = (
"100 0 LINE",
"271 750 LINE",
"213 750 LINE",
"43 0 LINE"
);
},
{
closed = 1;
nodes = (
"359 161 LINE",
"359 216 LINE",
"120 216 LINE",
"120 161 LINE"
);
},
{
closed = 1;
nodes = (
"271 750 LINE",
"213 750 LINE",
"384 0 LINE",
"441 0 LINE"
);
}
);
width = 600;
}
);
leftKerningGroup = A;
note = A;
rightKerningGroup = A;
unicode = 0041;
},
{
glyphname = AE;
lastChange = "2018-05-02 18:04:58 +0000";
layers = (
{
hints = (
{
horizontal = 1;
origin = "{0, 15}";
target = "{0, 6}";
},
{
horizontal = 1;
origin = "{0, 1}";
target = "{1, 3}";
},
{
horizontal = 1;
origin = "{0, 7}";
target = "{0, 10}";
},
{
horizontal = 1;
origin = "{0, 14}";
target = "{1, 0}";
}
);
layerId = "DDDB0B36-051A-43AE-9F30-611505482296";
paths = (
{
closed = 1;
nodes = (
"88 0 LINE",
"125 161 LINE",
"299 161 LINE",
"299 0 LINE",
"601 0 LINE",
"601 55 LINE",
"354 55 LINE",
"354 340 LINE",
"574 340 LINE",
"574 395 LINE",
"354 395 LINE",
"354 695 LINE",
"601 695 LINE",
"601 750 LINE",
"201 750 LINE",
"31 0 LINE"
);
},
{
closed = 1;
nodes = (
"241 695 LINE",
"299 695 LINE",
"299 216 LINE",
"137 216 LINE"
);
}
);
width = 642;
},
{
layerId = "60B18B06-8123-4D0C-85E3-2DE7B5C03586";
paths = (
{
closed = 1;
nodes = (
"153 0 LINE",
"173 117 LINE",
"304 117 LINE",
"304 0 LINE",
"615 0 LINE",
"615 135 LINE",
"439 135 LINE",
"439 330 LINE",
"588 330 LINE",
"588 465 LINE",
"439 465 LINE",
"439 615 LINE",
"615 615 LINE",
"615 750 LINE",
"157 750 LINE",
"15 0 LINE"
);
},
{
closed = 1;
nodes = (
"259 615 LINE",
"304 615 LINE",
"304 252 LINE",
"196 252 LINE"
);
}
);
width = 659;
}
);
leftKerningGroup = A;
leftMetricsKey = A;
rightKerningGroup = E;
rightMetricsKey = E;
unicode = 00C6;
},
{
color = 8;
glyphname = B;
lastChange = "2018-05-02 18:04:58 +0000";
layers = (
{
layerId = "60B18B06-8123-4D0C-85E3-2DE7B5C03586";
paths = (
{
closed = 1;
nodes = (
"268 0 LINE SMOOTH",
"381 0 OFFCURVE",
"453 74 OFFCURVE",
"453 185 CURVE SMOOTH",
"453 250 LINE SMOOTH",
"453 315 OFFCURVE",
"427 368 OFFCURVE",
"385 399 CURVE",
"388 346 LINE",
"423 378 OFFCURVE",
"443 427 OFFCURVE",
"443 485 CURVE SMOOTH",
"443 565 LINE SMOOTH",
"443 676 OFFCURVE",
"371 750 OFFCURVE",
"258 750 CURVE SMOOTH",
"73 750 LINE",
"73 0 LINE"
);
},
{
closed = 1;
nodes = (
"208 300 LINE",
"268 300 LINE SMOOTH",
"300 300 OFFCURVE",
"318 280 OFFCURVE",
"318 250 CURVE SMOOTH",
"318 185 LINE SMOOTH",
"318 155 OFFCURVE",
"300 135 OFFCURVE",
"268 135 CURVE SMOOTH",
"208 135 LINE"
);
},
{
closed = 1;
nodes = (
"208 615 LINE",
"258 615 LINE SMOOTH",
"290 615 OFFCURVE",
"308 595 OFFCURVE",
"308 565 CURVE SMOOTH",
"308 485 LINE SMOOTH",
"308 455 OFFCURVE",
"290 435 OFFCURVE",
"258 435 CURVE SMOOTH",
"208 435 LINE"
);
}
);
width = 503;
},
{
hints = (
{
horizontal = 1;
origin = "{0, 17}";
target = "{1, 9}";
},
{
horizontal = 1;
origin = "{1, 0}";
target = "{2, 9}";
},
{
horizontal = 1;
origin = "{0, 16}";
target = "{2, 0}";
}
);
layerId = "DDDB0B36-051A-43AE-9F30-611505482296";
paths = (
{
closed = 1;
nodes = (
"288 0 LINE SMOOTH",
"381 0 OFFCURVE",
"443 66 OFFCURVE",
"443 165 CURVE SMOOTH",
"443 255 LINE SMOOTH",
"443 324 OFFCURVE",
"411 378 OFFCURVE",
"362 404 CURVE",
"363 387 LINE",
"406 415 OFFCURVE",
"433 466 OFFCURVE",
"433 530 CURVE SMOOTH",
"433 585 LINE SMOOTH",
"433 684 OFFCURVE",
"371 750 OFFCURVE",
"278 750 CURVE SMOOTH",
"93 750 LINE",
"93 0 LINE"
);
},
{
closed = 1;
nodes = (
"148 365 LINE",
"288 365 LINE SMOOTH",
"348 365 OFFCURVE",
"388 321 OFFCURVE",
"388 255 CURVE SMOOTH",
"388 165 LINE SMOOTH",
"388 99 OFFCURVE",
"348 55 OFFCURVE",
"288 55 CURVE SMOOTH",
"148 55 LINE"
);
},
{
closed = 1;
nodes = (
"148 695 LINE",
"278 695 LINE SMOOTH",
"338 695 OFFCURVE",
"378 651 OFFCURVE",
"378 585 CURVE SMOOTH",
"378 530 LINE SMOOTH",
"378 464 OFFCURVE",
"338 420 OFFCURVE",
"278 420 CURVE SMOOTH",
"148 420 LINE"
);
}
);
width = 513;
}
);
leftKerningGroup = I;
note = B;
rightKerningGroup = B;
unicode = 0042;
},
{
color = 8;
glyphname = C;
lastChange = "2018-05-02 18:04:58 +0000";
layers = (
{
anchors = (
{
name = bottom;
position = "{247, 0}";
},
{
name = top;
position = "{247, 750}";
}
);
layerId = "60B18B06-8123-4D0C-85E3-2DE7B5C03586";
paths = (
{
closed = 1;
nodes = (
"297 209 LINE",
"297 169 LINE SMOOTH",
"297 139 OFFCURVE",
"279 119 OFFCURVE",
"247 119 CURVE SMOOTH",
"215 119 OFFCURVE",
"197 139 OFFCURVE",
"197 169 CURVE SMOOTH",
"197 581 LINE SMOOTH",
"197 611 OFFCURVE",
"215 631 OFFCURVE",
"247 631 CURVE SMOOTH",
"279 631 OFFCURVE",
"297 611 OFFCURVE",
"297 581 CURVE SMOOTH",
"297 541 LINE",
"432 541 LINE",
"432 581 LINE SMOOTH",
"432 692 OFFCURVE",
"360 766 OFFCURVE",
"247 766 CURVE SMOOTH",
"134 766 OFFCURVE",
"62 692 OFFCURVE",
"62 581 CURVE SMOOTH",
"62 169 LINE SMOOTH",
"62 58 OFFCURVE",
"134 -16 OFFCURVE",
"247 -16 CURVE SMOOTH",
"360 -16 OFFCURVE",
"432 58 OFFCURVE",
"432 169 CURVE SMOOTH",
"432 209 LINE"
);
}
);
width = 466;
},
{
anchors = (
{
name = bottom;
position = "{257, 0}";
},
{
name = top;
position = "{257, 750}";
}
);
hints = (
{
horizontal = 1;
origin = "{0, 27}";
target = "{0, 4}";
},
{
horizontal = 1;
origin = "{0, 20}";
target = "{0, 11}";
}
);
layerId = "DDDB0B36-051A-43AE-9F30-611505482296";
paths = (
{
closed = 1;
nodes = (
"377 189 LINE",
"377 169 LINE SMOOTH",
"377 91 OFFCURVE",
"329 39 OFFCURVE",
"257 39 CURVE SMOOTH",
"185 39 OFFCURVE",
"137 91 OFFCURVE",
"137 169 CURVE SMOOTH",
"137 581 LINE SMOOTH",
"137 659 OFFCURVE",
"185 711 OFFCURVE",
"257 711 CURVE SMOOTH",
"329 711 OFFCURVE",
"377 659 OFFCURVE",
"377 581 CURVE SMOOTH",
"377 561 LINE",
"432 561 LINE",
"432 581 LINE SMOOTH",
"432 692 OFFCURVE",
"362 766 OFFCURVE",
"257 766 CURVE SMOOTH",
"152 766 OFFCURVE",
"82 692 OFFCURVE",
"82 581 CURVE SMOOTH",
"82 169 LINE SMOOTH",
"82 58 OFFCURVE",
"152 -16 OFFCURVE",
"257 -16 CURVE SMOOTH",
"362 -16 OFFCURVE",
"432 58 OFFCURVE",
"432 169 CURVE SMOOTH",
"432 189 LINE"
);
}
);
width = 482;
}
);
leftKerningGroup = O;
note = C;
rightKerningGroup = C;
unicode = 0043;
},
{
color = 8;
glyphname = D;
lastChange = "2018-05-02 18:04:58 +0000";
layers = (
{
anchors = (
{
name = bottom;
position = "{250, 0}";
},
{
name = center;
position = "{143, 375}";
},
{
name = top;
position = "{250, 750}";
}
);
layerId = "60B18B06-8123-4D0C-85E3-2DE7B5C03586";
paths = (
{
closed = 1;
nodes = (
"258 0 LINE SMOOTH",
"371 0 OFFCURVE",
"443 74 OFFCURVE",
"443 185 CURVE SMOOTH",
"443 565 LINE SMOOTH",
"443 676 OFFCURVE",
"371 750 OFFCURVE",
"258 750 CURVE SMOOTH",
"73 750 LINE",
"73 0 LINE"
);
},
{
closed = 1;
nodes = (
"208 615 LINE",
"258 615 LINE SMOOTH",
"290 615 OFFCURVE",
"308 595 OFFCURVE",
"308 565 CURVE SMOOTH",
"308 185 LINE SMOOTH",
"308 155 OFFCURVE",
"290 135 OFFCURVE",
"258 135 CURVE SMOOTH",
"208 135 LINE"
);
}
);
width = 501;
},
{
anchors = (
{
name = bottom;
position = "{256, 0}";
},
{
name = center;
position = "{119, 375}";
},
{
name = top;
position = "{256, 750}";
}
);
hints = (
{
horizontal = 1;
origin = "{0, 9}";
target = "{1, 9}";
},
{
horizontal = 1;
origin = "{0, 8}";
target = "{1, 0}";
}
);
layerId = "DDDB0B36-051A-43AE-9F30-611505482296";
paths = (
{
closed = 1;
nodes = (
"258 0 LINE SMOOTH",
"363 0 OFFCURVE",
"433 74 OFFCURVE",
"433 185 CURVE SMOOTH",
"433 565 LINE SMOOTH",
"433 676 OFFCURVE",
"363 750 OFFCURVE",
"258 750 CURVE SMOOTH",
"93 750 LINE",
"93 0 LINE"
);
},
{
closed = 1;
nodes = (
"148 695 LINE",
"258 695 LINE SMOOTH",
"330 695 OFFCURVE",
"378 643 OFFCURVE",
"378 565 CURVE SMOOTH",
"378 185 LINE SMOOTH",
"378 107 OFFCURVE",
"330 55 OFFCURVE",
"258 55 CURVE SMOOTH",
"148 55 LINE"
);
}
);
width = 511;
}
);
leftKerningGroup = I;
note = D;
rightKerningGroup = O;
unicode = 0044;
},
{
color = 8;
glyphname = E;
lastChange = "2018-05-02 18:04:58 +0000";
layers = (
{
anchors = (
{
name = bottom;
position = "{228, 0}";
},
{
name = ogonek;
position = "{228, 0}";
},
{
name = top;
position = "{213, 750}";
}
);
layerId = "60B18B06-8123-4D0C-85E3-2DE7B5C03586";
paths = (
{
closed = 1;
nodes = (
"73 750 LINE",
"73 0 LINE",
"383 0 LINE",
"383 135 LINE",
"208 135 LINE",
"208 330 LINE",
"356 330 LINE",
"356 465 LINE",
"208 465 LINE",
"208 615 LINE",
"383 615 LINE",
"383 750 LINE"
);
}
);
width = 427;
},
{
anchors = (
{
name = bottom;
position = "{243, 0}";
},
{
name = ogonek;
position = "{242, 0}";
},
{
name = top;
position = "{212, 750}";
}
);
hints = (
{
horizontal = 1;
origin = "{0, 1}";
target = "{0, 4}";
},
{
horizontal = 1;
origin = "{0, 5}";
target = "{0, 8}";
},
{
horizontal = 1;
origin = "{0, 0}";
target = "{0, 9}";
}
);
layerId = "DDDB0B36-051A-43AE-9F30-611505482296";
paths = (
{
closed = 1;
nodes = (
"93 750 LINE",
"93 0 LINE",
"393 0 LINE",
"393 55 LINE",
"148 55 LINE",
"148 340 LINE",
"366 340 LINE",
"366 395 LINE",
"148 395 LINE",
"148 695 LINE",
"393 695 LINE",
"393 750 LINE"
);
}
);
width = 434;
}
);
leftKerningGroup = I;
note = E;
rightKerningGroup = E;
unicode = 0045;
},
{
color = 8;
glyphname = F;
lastChange = "2018-05-02 18:04:58 +0000";
layers = (
{
layerId = "60B18B06-8123-4D0C-85E3-2DE7B5C03586";
paths = (
{
closed = 1;
nodes = (
"208 0 LINE",
"208 240 LINE",
"356 240 LINE",
"356 375 LINE",
"208 375 LINE",
"208 615 LINE",
"383 615 LINE",
"383 750 LINE",
"73 750 LINE",
"73 0 LINE"
);
}
);
width = 407;
},
{
hints = (
{
horizontal = 1;
origin = "{0, 9}";
target = up;
type = BottomGhost;
},
{
horizontal = 1;
origin = "{0, 1}";
target = "{0, 4}";
},
{
horizontal = 1;
origin = "{0, 8}";
target = "{0, 5}";
}
);
layerId = "DDDB0B36-051A-43AE-9F30-611505482296";
paths = (
{
closed = 1;
nodes = (
"148 0 LINE",
"148 310 LINE",
"366 310 LINE",
"366 365 LINE",
"148 365 LINE",
"148 695 LINE",
"393 695 LINE",
"393 750 LINE",
"93 750 LINE",
"93 0 LINE"
);
}
);
width = 423;
}
);
leftKerningGroup = I;
note = F;
unicode = 0046;
},
{
color = 8;
glyphname = G;
lastChange = "2018-05-02 18:04:58 +0000";
layers = (
{
anchors = (
{
name = bottom;
position = "{247, 0}";
},
{
name = top;
position = "{247, 750}";
}
);
layerId = "60B18B06-8123-4D0C-85E3-2DE7B5C03586";
paths = (
{
closed = 1;
nodes = (
"360 -16 OFFCURVE",
"432 58 OFFCURVE",
"432 169 CURVE SMOOTH",
"432 375 LINE",
"234 375 LINE",
"234 240 LINE",
"297 240 LINE",
"297 169 LINE SMOOTH",
"297 139 OFFCURVE",
"279 119 OFFCURVE",
"247 119 CURVE SMOOTH",
"215 119 OFFCURVE",
"197 139 OFFCURVE",
"197 169 CURVE SMOOTH",
"197 581 LINE SMOOTH",
"197 611 OFFCURVE",
"215 631 OFFCURVE",
"247 631 CURVE SMOOTH",
"279 631 OFFCURVE",
"297 611 OFFCURVE",
"297 581 CURVE SMOOTH",
"297 541 LINE",
"432 541 LINE",
"432 581 LINE SMOOTH",
"432 692 OFFCURVE",
"360 766 OFFCURVE",
"247 766 CURVE SMOOTH",
"134 766 OFFCURVE",
"62 692 OFFCURVE",
"62 581 CURVE SMOOTH",
"62 169 LINE SMOOTH",
"62 58 OFFCURVE",
"134 -16 OFFCURVE",
"247 -16 CURVE SMOOTH"
);
}
);
width = 484;
},
{
anchors = (
{
name = bottom;
position = "{257, 0}";
},
{
name = top;
position = "{257, 750}";
}
);
hints = (
{
horizontal = 1;
origin = "{0, 33}";
target = "{0, 10}";
},
{
horizontal = 1;
origin = "{0, 5}";
target = "{0, 4}";
},
{
horizontal = 1;
origin = "{0, 26}";
target = "{0, 17}";
}
);
layerId = "DDDB0B36-051A-43AE-9F30-611505482296";
paths = (
{
closed = 1;
nodes = (
"362 -16 OFFCURVE",
"432 58 OFFCURVE",
"432 169 CURVE SMOOTH",
"432 355 LINE",
"264 355 LINE",
"264 300 LINE",
"377 300 LINE",
"377 169 LINE SMOOTH",
"377 91 OFFCURVE",
"329 39 OFFCURVE",
"257 39 CURVE SMOOTH",
"185 39 OFFCURVE",
"137 91 OFFCURVE",
"137 169 CURVE SMOOTH",
"137 581 LINE SMOOTH",
"137 659 OFFCURVE",
"185 711 OFFCURVE",
"257 711 CURVE SMOOTH",
"329 711 OFFCURVE",
"377 659 OFFCURVE",
"377 581 CURVE SMOOTH",
"377 561 LINE",
"432 561 LINE",
"432 581 LINE SMOOTH",
"432 692 OFFCURVE",
"362 766 OFFCURVE",
"257 766 CURVE SMOOTH",
"152 766 OFFCURVE",
"82 692 OFFCURVE",
"82 581 CURVE SMOOTH",
"82 169 LINE SMOOTH",
"82 58 OFFCURVE",
"152 -16 OFFCURVE",
"257 -16 CURVE SMOOTH"
);
}
);
width = 500;
}
);
leftKerningGroup = O;
note = G;
rightKerningGroup = G;
unicode = 0047;
},
{
color = 8;
glyphname = H;
lastChange = "2018-05-02 18:04:58 +0000";
layers = (
{
anchors = (
{
name = bottom;
position = "{248, 0}";
},
{
name = center;
position = "{248, 550}";
},
{
name = top;
position = "{248, 750}";
}
);
layerId = "60B18B06-8123-4D0C-85E3-2DE7B5C03586";
paths = (
{
closed = 1;
nodes = (
"208 0 LINE",
"208 240 LINE",
"288 240 LINE",
"288 0 LINE",
"423 0 LINE",
"423 750 LINE",
"288 750 LINE",
"288 375 LINE",
"208 375 LINE",
"208 750 LINE",
"73 750 LINE",
"73 0 LINE"
);
}
);
width = 496;
},
{
anchors = (
{
name = bottom;
position = "{263, 0}";
},
{
name = center;
position = "{263, 540}";
},
{
name = top;
position = "{263, 750}";
}
);
hints = (
{
horizontal = 1;
origin = "{0, 11}";
target = up;
type = BottomGhost;
},
{
horizontal = 1;
origin = "{0, 1}";
target = "{0, 8}";
},
{
horizontal = 1;
origin = "{0, 10}";
target = down;
type = TopGhost;
}
);
layerId = "DDDB0B36-051A-43AE-9F30-611505482296";
paths = (
{
closed = 1;
nodes = (
"148 0 LINE",
"148 310 LINE",
"378 310 LINE",
"378 0 LINE",
"433 0 LINE",
"433 750 LINE",
"378 750 LINE",
"378 365 LINE",
"148 365 LINE",
"148 750 LINE",
"93 750 LINE",
"93 0 LINE"
);
}
);
width = 526;
}
);
leftKerningGroup = I;
note = H;
rightKerningGroup = I;
unicode = 0048;
},
{
color = 8;
glyphname = I;
lastChange = "2018-05-02 18:04:58 +0000";
layers = (
{
anchors = (
{
name = bottom;
position = "{141, 0}";
},
{
name = ogonek;
position = "{116, 0}";
},
{
name = top;
position = "{141, 750}";
},
{
name = topleft;
position = "{24, 750}";
}
);
layerId = "60B18B06-8123-4D0C-85E3-2DE7B5C03586";
paths = (
{
closed = 1;
nodes = (
"208 750 LINE",
"73 750 LINE",
"73 0 LINE",
"208 0 LINE"
);
}
);
width = 281;
},
{
anchors = (
{
name = bottom;
position = "{121, 0}";
},
{
name = ogonek;
position = "{105, 0}";
},
{
name = top;
position = "{121, 750}";
},
{
name = topleft;
position = "{22, 750}";
}
);
hints = (
{
horizontal = 1;
origin = "{0, 2}";
target = up;
type = BottomGhost;
},
{
horizontal = 1;
origin = "{0, 1}";
target = down;
type = TopGhost;
}
);
layerId = "DDDB0B36-051A-43AE-9F30-611505482296";
paths = (
{
closed = 1;
nodes = (
"148 750 LINE",
"93 750 LINE",
"93 0 LINE",
"148 0 LINE"
);
}
);
width = 241;
}
);
leftKerningGroup = I;
note = I;
rightKerningGroup = I;
unicode = 0049;
},
{
color = 8;
glyphname = J;
lastChange = "2018-05-02 18:04:59 +0000";
layers = (
{
anchors = (
{
name = bottom;
position = "{174, 0}";
},
{
name = top;
position = "{192, 750}";
}
);
layerId = "60B18B06-8123-4D0C-85E3-2DE7B5C03586";
paths = (
{
closed = 1;
nodes = (
"77 -7 LINE SMOOTH",
"190 -7 OFFCURVE",
"262 67 OFFCURVE",
"262 178 CURVE SMOOTH",
"262 750 LINE",
"127 750 LINE",
"127 178 LINE SMOOTH",
"127 148 OFFCURVE",
"109 128 OFFCURVE",
"77 128 CURVE SMOOTH",
"9 128 LINE",
"9 -7 LINE"
);
}
);
width = 329;
},
{
anchors = (
{
name = bottom;
position = "{176, 0}";
},
{
name = top;
position = "{212, 750}";
}
);
hints = (
{
horizontal = 1;
origin = "{0, 11}";
target = "{0, 10}";
},
{
horizontal = 1;
origin = "{0, 5}";
target = down;
type = TopGhost;
}
);
layerId = "DDDB0B36-051A-43AE-9F30-611505482296";
paths = (
{
closed = 1;
nodes = (
"66 -6 LINE SMOOTH",
"171 -6 OFFCURVE",
"241 68 OFFCURVE",
"241 179 CURVE SMOOTH",
"241 750 LINE",
"186 750 LINE",
"186 179 LINE SMOOTH",
"186 101 OFFCURVE",
"138 49 OFFCURVE",
"66 49 CURVE SMOOTH",
"22 49 LINE",
"22 -6 LINE"
);
}
);
width = 328;
}
);
leftKerningGroup = J;
note = J;
rightKerningGroup = J;
unicode = 004A;
},
{
color = 8;
glyphname = K;
lastChange = "2018-05-02 18:04:59 +0000";
layers = (
{
anchors = (
{
name = bottom;
position = "{244, 0}";
},
{
name = top;
position = "{244, 750}";
}
);
layerId = "60B18B06-8123-4D0C-85E3-2DE7B5C03586";
paths = (
{
closed = 1;
nodes = (
"483 0 LINE",
"316 482 LINE",
"493 750 LINE",
"348 750 LINE",
"198 524 LINE",
"198 303 LINE",
"223 341 LINE",
"338 0 LINE"
);
},
{
closed = 1;
nodes = (
"208 0 LINE",
"208 750 LINE",
"73 750 LINE",
"73 0 LINE"
);
}
);
width = 501;
},
{
anchors = (
{
name = bottom;
position = "{235, 0}";
},
{
name = top;
position = "{235, 750}";
}
);
hints = (
{
horizontal = 1;
origin = "{1, 3}";
target = up;
type = BottomGhost;
},
{
horizontal = 1;
origin = "{1, 2}";
target = down;
type = TopGhost;
}
);
layerId = "DDDB0B36-051A-43AE-9F30-611505482296";
paths = (
{
closed = 1;
nodes = (
"463 0 LINE",
"234 461 LINE",
"434 750 LINE",
"374 750 LINE",
"138 415 LINE",
"138 323 LINE",
"198 410 LINE",
"403 0 LINE"
);
},
{
closed = 1;
nodes = (
"148 0 LINE",
"148 750 LINE",
"93 750 LINE",
"93 0 LINE"
);
}
);
width = 487;
}
);
leftKerningGroup = I;
note = K;
rightKerningGroup = K;
unicode = 004B;
},
{
color = 8;
glyphname = L;
lastChange = "2018-05-02 18:04:59 +0000";
layers = (
{
anchors = (
{
name = bottom;
position = "{177, 0}";
},
{
name = center;
position = "{140, 375}";
},
{
name = top;
position = "{177, 750}";
},
{
name = topright;
position = "{330, 750}";
}
);
layerId = "60B18B06-8123-4D0C-85E3-2DE7B5C03586";
paths = (
{
closed = 1;
nodes = (
"73 750 LINE",
"73 0 LINE",
"363 0 LINE",
"363 135 LINE",
"208 135 LINE",
"208 750 LINE"
);
}
);
width = 378;
},
{
anchors = (
{
name = bottom;
position = "{187, 0}";
},
{
name = center;
position = "{121, 375}";
},
{
name = top;
position = "{187, 750}";
},
{
name = topright;
position = "{351, 750}";
}
);
hints = (
{
horizontal = 1;
origin = "{0, 1}";
target = "{0, 4}";
},
{
horizontal = 1;
origin = "{0, 0}";
target = down;
type = TopGhost;
}
);
layerId = "DDDB0B36-051A-43AE-9F30-611505482296";
paths = (
{
closed = 1;
nodes = (
"93 750 LINE",
"93 0 LINE",
"373 0 LINE",
"373 55 LINE",
"148 55 LINE",
"148 750 LINE"
);
}
);
width = 395;
}
);
leftKerningGroup = I;
note = L;
rightKerningGroup = L;
unicode = 004C;
},
{
color = 8;
glyphname = M;
lastChange = "2018-05-02 18:05:05 +0000";
layers = (
{
layerId = "60B18B06-8123-4D0C-85E3-2DE7B5C03586";
paths = (
{
closed = 1;
nodes = (
"198 0 LINE",
"198 381 LINE",
"182 378 LINE",
"288 0 LINE",
"374 0 LINE",
"480 378 LINE",
"464 381 LINE",
"464 0 LINE",
"589 0 LINE",
"589 750 LINE",
"469 750 LINE",
"315 169 LINE",
"347 169 LINE",
"193 750 LINE",
"73 750 LINE",
"73 0 LINE"
);
}
);
width = 662;
},
{
hints = (
{
horizontal = 1;
origin = "{0, 15}";
target = up;
type = BottomGhost;
},
{
horizontal = 1;
origin = "{0, 14}";
target = down;
type = TopGhost;
}
);
layerId = "DDDB0B36-051A-43AE-9F30-611505482296";
paths = (
{
closed = 1;
nodes = (
"148 0 LINE",
"148 605 LINE",
"142 604 LINE",
"298 0 LINE",
"348 0 LINE",
"504 604 LINE",
"498 605 LINE",
"498 0 LINE",
"553 0 LINE",
"553 750 LINE",
"489 750 LINE",
"317 86 LINE",
"329 86 LINE",
"157 750 LINE",
"93 750 LINE",
"93 0 LINE"
);
}
);
width = 646;
}
);
leftKerningGroup = I;
note = M;
rightKerningGroup = I;
unicode = 004D;
},
{
color = 8;
glyphname = N;
lastChange = "2018-05-02 18:05:07 +0000";
layers = (
{
anchors = (
{
name = bottom;
position = "{253, 0}";
},
{
name = top;
position = "{253, 750}";
}
);
layerId = "60B18B06-8123-4D0C-85E3-2DE7B5C03586";
paths = (
{
closed = 1;
nodes = (
"198 0 LINE",
"198 487 LINE",
"162 486 LINE",
"333 0 LINE",
"433 0 LINE",
"433 750 LINE",
"308 750 LINE",
"308 263 LINE",
"344 264 LINE",
"173 750 LINE",
"73 750 LINE",
"73 0 LINE"
);
}
);
width = 506;
},
{
anchors = (
{
name = bottom;
position = "{268, 0}";
},
{
name = top;
position = "{268, 750}";
}
);
hints = (
{
horizontal = 1;
origin = "{0, 11}";
target = up;
type = BottomGhost;
},
{
horizontal = 1;
origin = "{0, 10}";
target = down;
type = TopGhost;
}
);
layerId = "DDDB0B36-051A-43AE-9F30-611505482296";
paths = (
{
closed = 1;
nodes = (
"148 0 LINE",
"148 656 LINE",
"132 653 LINE",
"388 0 LINE",
"443 0 LINE",
"443 750 LINE",
"388 750 LINE",
"388 94 LINE",
"404 97 LINE",
"148 750 LINE",
"93 750 LINE",
"93 0 LINE"
);
}
);
width = 536;
}
);
leftKerningGroup = I;
note = N;
rightKerningGroup = I;
unicode = 004E;
},
{
color = 8;
glyphname = O;
lastChange = "2018-05-02 18:04:59 +0000";
layers = (
{
anchors = (
{
name = bottom;
position = "{247, 0}";
},
{
name = center;
position = "{247, 375}";
},
{
name = ogonek;
position = "{268, 10}";
},
{
name = top;
position = "{247, 750}";
}
);
layerId = "60B18B06-8123-4D0C-85E3-2DE7B5C03586";
paths = (
{
closed = 1;
nodes = (
"360 -16 OFFCURVE",
"432 58 OFFCURVE",
"432 169 CURVE SMOOTH",
"432 581 LINE SMOOTH",
"432 692 OFFCURVE",
"360 766 OFFCURVE",
"247 766 CURVE SMOOTH",
"134 766 OFFCURVE",
"62 692 OFFCURVE",
"62 581 CURVE SMOOTH",
"62 169 LINE SMOOTH",
"62 58 OFFCURVE",
"134 -16 OFFCURVE",
"247 -16 CURVE SMOOTH"
);
},
{
closed = 1;
nodes = (
"215 119 OFFCURVE",
"197 139 OFFCURVE",
"197 169 CURVE SMOOTH",
"197 581 LINE SMOOTH",
"197 611 OFFCURVE",
"215 631 OFFCURVE",
"247 631 CURVE SMOOTH",
"279 631 OFFCURVE",
"297 611 OFFCURVE",
"297 581 CURVE SMOOTH",
"297 169 LINE SMOOTH",
"297 139 OFFCURVE",
"279 119 OFFCURVE",
"247 119 CURVE SMOOTH"
);
}
);
width = 494;
},
{
anchors = (
{
name = bottom;
position = "{257, 0}";
},
{
name = center;
position = "{257, 375}";
},
{
name = ogonek;
position = "{288, 10}";
},
{
name = top;
position = "{257, 750}";
}
);
hints = (
{
horizontal = 1;
origin = "{0, 13}";
target = "{1, 13}";
},
{
horizontal = 1;
origin = "{0, 6}";
target = "{1, 6}";
}
);
layerId = "DDDB0B36-051A-43AE-9F30-611505482296";
paths = (
{
closed = 1;
nodes = (
"362 -16 OFFCURVE",
"432 58 OFFCURVE",
"432 169 CURVE SMOOTH",
"432 581 LINE SMOOTH",
"432 692 OFFCURVE",
"362 766 OFFCURVE",
"257 766 CURVE SMOOTH",
"152 766 OFFCURVE",
"82 692 OFFCURVE",
"82 581 CURVE SMOOTH",
"82 169 LINE SMOOTH",
"82 58 OFFCURVE",
"152 -16 OFFCURVE",
"257 -16 CURVE SMOOTH"
);
},
{
closed = 1;
nodes = (
"185 39 OFFCURVE",
"137 91 OFFCURVE",
"137 169 CURVE SMOOTH",
"137 581 LINE SMOOTH",
"137 659 OFFCURVE",
"185 711 OFFCURVE",
"257 711 CURVE SMOOTH",
"329 711 OFFCURVE",
"377 659 OFFCURVE",
"377 581 CURVE SMOOTH",
"377 169 LINE SMOOTH",
"377 91 OFFCURVE",
"329 39 OFFCURVE",
"257 39 CURVE SMOOTH"
);
}
);
width = 514;
}
);
leftKerningGroup = O;
note = O;
rightKerningGroup = O;
unicode = 004F;
},
{
glyphname = OE;
lastChange = "2018-05-02 18:04:59 +0000";
layers = (
{
anchors = (
{
name = bottom;
position = "{258, 0}";
},
{
name = center;
position = "{258, 375}";
},
{
name = ogonek;
position = "{289, 10}";
},
{
name = top;
position = "{258, 750}";
}
);
hints = (
{
horizontal = 1;
origin = "{0, 25}";
target = "{1, 13}";
},
{
horizontal = 1;
origin = "{0, 7}";
target = "{0, 10}";
},
{
horizontal = 1;
origin = "{0, 14}";
target = "{0, 11}";
},
{
horizontal = 1;
origin = "{0, 3}";
target = "{0, 6}";
},
{
horizontal = 1;
origin = "{0, 18}";
target = "{1, 6}";
}
);
layerId = "DDDB0B36-051A-43AE-9F30-611505482296";
paths = (
{
closed = 1;
nodes = (
"306 -16 OFFCURVE",
"347 0 OFFCURVE",
"377 28 CURVE",
"377 0 LINE",
"677 0 LINE",
"677 55 LINE",
"432 55 LINE",
"432 340 LINE",
"650 340 LINE",
"650 395 LINE",
"432 395 LINE",
"432 695 LINE",
"677 695 LINE",
"677 750 LINE",
"377 750 LINE",
"377 722 LINE",
"347 750 OFFCURVE",
"306 766 OFFCURVE",
"257 766 CURVE SMOOTH",
"152 766 OFFCURVE",
"82 692 OFFCURVE",
"82 581 CURVE SMOOTH",
"82 169 LINE SMOOTH",
"82 58 OFFCURVE",
"152 -16 OFFCURVE",
"257 -16 CURVE SMOOTH"
);
},
{
closed = 1;
nodes = (
"185 39 OFFCURVE",
"137 91 OFFCURVE",
"137 169 CURVE SMOOTH",
"137 581 LINE SMOOTH",
"137 659 OFFCURVE",
"185 711 OFFCURVE",
"257 711 CURVE SMOOTH",
"329 711 OFFCURVE",
"377 659 OFFCURVE",
"377 581 CURVE SMOOTH",
"377 169 LINE SMOOTH",
"377 91 OFFCURVE",
"329 39 OFFCURVE",
"257 39 CURVE SMOOTH"
);
}
);
width = 718;
},
{
anchors = (
{
name = bottom;
position = "{247, 0}";
},
{
name = center;
position = "{247, 375}";
},
{
name = ogonek;
position = "{268, 10}";
},
{
name = top;
position = "{247, 750}";
}
);
layerId = "60B18B06-8123-4D0C-85E3-2DE7B5C03586";
paths = (
{
closed = 1;
nodes = (
"307 -16 OFFCURVE",
"356 5 OFFCURVE",
"388 41 CURVE",
"388 0 LINE",
"698 0 LINE",
"698 135 LINE",
"523 135 LINE",
"523 330 LINE",
"671 330 LINE",
"671 465 LINE",
"523 465 LINE",
"523 615 LINE",
"698 615 LINE",
"698 750 LINE",
"388 750 LINE",
"388 709 LINE",
"356 745 OFFCURVE",
"307 766 OFFCURVE",
"247 766 CURVE SMOOTH",
"134 766 OFFCURVE",
"62 692 OFFCURVE",
"62 581 CURVE SMOOTH",
"62 169 LINE SMOOTH",
"62 58 OFFCURVE",
"134 -16 OFFCURVE",
"247 -16 CURVE SMOOTH"
);
},
{
closed = 1;
nodes = (
"215 119 OFFCURVE",
"197 139 OFFCURVE",
"197 169 CURVE SMOOTH",
"197 581 LINE SMOOTH",
"197 611 OFFCURVE",
"215 631 OFFCURVE",
"247 631 CURVE SMOOTH",
"279 631 OFFCURVE",
"297 611 OFFCURVE",
"297 581 CURVE SMOOTH",
"297 169 LINE SMOOTH",
"297 139 OFFCURVE",
"279 119 OFFCURVE",
"247 119 CURVE SMOOTH"
);
}
);
width = 742;
}
);
leftKerningGroup = O;
leftMetricsKey = O;
rightKerningGroup = E;
rightMetricsKey = E;
unicode = 0152;
},
{
color = 8;
glyphname = P;
lastChange = "2018-05-02 18:05:12 +0000";
layers = (
{
anchors = (
{
name = bottom;
position = "{230, 0}";
},
{
name = top;
position = "{230, 750}";
}
);
layerId = "60B18B06-8123-4D0C-85E3-2DE7B5C03586";
paths = (
{
closed = 1;
nodes = (
"208 0 LINE",
"208 280 LINE",
"258 280 LINE SMOOTH",
"371 280 OFFCURVE",
"443 354 OFFCURVE",
"443 465 CURVE SMOOTH",
"443 565 LINE SMOOTH",
"443 676 OFFCURVE",
"371 750 OFFCURVE",
"258 750 CURVE SMOOTH",
"73 750 LINE",
"73 0 LINE"
);
},
{
closed = 1;
nodes = (
"208 615 LINE",
"258 615 LINE SMOOTH",
"290 615 OFFCURVE",
"308 595 OFFCURVE",
"308 565 CURVE SMOOTH",
"308 465 LINE SMOOTH",
"308 435 OFFCURVE",
"290 415 OFFCURVE",
"258 415 CURVE SMOOTH",
"208 415 LINE"
);
}
);
width = 470;
},
{
anchors = (
{
name = bottom;
position = "{232, 0}";
},
{
name = top;
position = "{232, 750}";
}
);
hints = (
{
horizontal = 1;
origin = "{0, 11}";
target = up;
type = BottomGhost;
},
{
horizontal = 1;
origin = "{0, 1}";
target = "{1, 9}";
},
{
horizontal = 1;
origin = "{0, 10}";
target = "{1, 0}";
}
);
layerId = "DDDB0B36-051A-43AE-9F30-611505482296";
paths = (
{
closed = 1;
nodes = (
"148 0 LINE",
"148 345 LINE",
"278 345 LINE SMOOTH",
"371 345 OFFCURVE",
"433 411 OFFCURVE",
"433 510 CURVE SMOOTH",
"433 585 LINE SMOOTH",
"433 684 OFFCURVE",
"371 750 OFFCURVE",
"278 750 CURVE SMOOTH",
"93 750 LINE",
"93 0 LINE"
);
},
{
closed = 1;
nodes = (
"148 695 LINE",
"278 695 LINE SMOOTH",
"338 695 OFFCURVE",
"378 651 OFFCURVE",
"378 585 CURVE SMOOTH",
"378 510 LINE SMOOTH",
"378 444 OFFCURVE",
"338 400 OFFCURVE",
"278 400 CURVE SMOOTH",
"148 400 LINE"
);
}
);
width = 477;
},
{
associatedMasterId = "DDDB0B36-051A-43AE-9F30-611505482296";
layerId = "717232E1-C685-40E8-BA8C-325482597663";
name = "Apr 29 18, 11:00";
paths = (
{
closed = 1;
nodes = (
"278 345 LINE SMOOTH",
"371 345 OFFCURVE",
"433 411 OFFCURVE",
"433 510 CURVE SMOOTH",
"433 585 LINE SMOOTH",
"433 684 OFFCURVE",
"371 750 OFFCURVE",
"278 750 CURVE SMOOTH",
"93 750 LINE",
"93 345 LINE"
);
},
{
closed = 1;
nodes = (
"148 695 LINE",
"278 695 LINE SMOOTH",
"338 695 OFFCURVE",
"378 651 OFFCURVE",
"378 585 CURVE SMOOTH",
"378 510 LINE SMOOTH",
"378 444 OFFCURVE",
"338 400 OFFCURVE",
"278 400 CURVE SMOOTH",
"148 400 LINE"
);
},
{
closed = 1;
nodes = (
"148 750 LINE",
"93 750 LINE",
"93 0 LINE",
"148 0 LINE"
);
}
);
width = 477;
}
);
leftKerningGroup = I;
note = P;
rightKerningGroup = P;
unicode = 0050;
},
{
glyphname = Thorn;
lastChange = "2018-05-02 18:05:12 +0000";
layers = (
{
hints = (
{
horizontal = 1;
origin = "{0, 13}";
target = up;
type = BottomGhost;
},
{
horizontal = 1;
origin = "{0, 1}";
target = "{1, 9}";
},
{
horizontal = 1;
origin = "{1, 0}";
target = "{0, 10}";
}
);
layerId = "DDDB0B36-051A-43AE-9F30-611505482296";
paths = (
{
closed = 1;
nodes = (
"148 0 LINE",
"148 222 LINE",
"278 222 LINE SMOOTH",
"371 222 OFFCURVE",
"433 288 OFFCURVE",
"433 387 CURVE SMOOTH",
"433 462 LINE SMOOTH",
"433 561 OFFCURVE",
"371 627 OFFCURVE",
"278 627 CURVE SMOOTH",
"148 627 LINE",
"148 750 LINE",
"93 750 LINE",
"93 0 LINE"
);
},
{
closed = 1;
nodes = (
"148 572 LINE",
"278 572 LINE SMOOTH",
"338 572 OFFCURVE",
"378 528 OFFCURVE",
"378 462 CURVE SMOOTH",
"378 387 LINE SMOOTH",
"378 321 OFFCURVE",
"338 277 OFFCURVE",
"278 277 CURVE SMOOTH",
"148 277 LINE"
);
}
);
width = 477;
},
{
layerId = "60B18B06-8123-4D0C-85E3-2DE7B5C03586";
paths = (
{
closed = 1;
nodes = (
"208 0 LINE",
"208 189 LINE",
"258 189 LINE SMOOTH",
"371 189 OFFCURVE",
"443 263 OFFCURVE",
"443 374 CURVE SMOOTH",
"443 474 LINE SMOOTH",
"443 585 OFFCURVE",
"371 659 OFFCURVE",
"258 659 CURVE SMOOTH",
"208 659 LINE",
"208 750 LINE",
"73 750 LINE",
"73 0 LINE"
);
},
{
closed = 1;
nodes = (
"208 524 LINE",
"258 524 LINE SMOOTH",
"290 524 OFFCURVE",
"308 504 OFFCURVE",
"308 474 CURVE SMOOTH",
"308 374 LINE SMOOTH",
"308 344 OFFCURVE",
"290 324 OFFCURVE",
"258 324 CURVE SMOOTH",
"208 324 LINE"
);
}
);
width = 470;
}
);
leftKerningGroup = I;
leftMetricsKey = P;
rightKerningGroup = P;
rightMetricsKey = P;
unicode = 00DE;
},
{
color = 8;
glyphname = Q;
lastChange = "2018-05-02 18:04:59 +0000";
layers = (
{
layerId = "60B18B06-8123-4D0C-85E3-2DE7B5C03586";
paths = (
{
closed = 1;
nodes = (
"423 -92 LINE",
"350 219 LINE",
"211 219 LINE",
"286 -92 LINE"
);
},
{
closed = 1;
nodes = (
"360 -16 OFFCURVE",
"432 58 OFFCURVE",
"432 169 CURVE SMOOTH",
"432 581 LINE SMOOTH",
"432 692 OFFCURVE",
"360 766 OFFCURVE",
"247 766 CURVE SMOOTH",
"134 766 OFFCURVE",
"62 692 OFFCURVE",
"62 581 CURVE SMOOTH",
"62 169 LINE SMOOTH",
"62 58 OFFCURVE",
"134 -16 OFFCURVE",
"247 -16 CURVE SMOOTH"
);
},
{
closed = 1;
nodes = (
"215 119 OFFCURVE",
"197 139 OFFCURVE",
"197 169 CURVE SMOOTH",
"197 581 LINE SMOOTH",
"197 611 OFFCURVE",
"215 631 OFFCURVE",
"247 631 CURVE SMOOTH",
"279 631 OFFCURVE",
"297 611 OFFCURVE",
"297 581 CURVE SMOOTH",
"297 169 LINE SMOOTH",
"297 139 OFFCURVE",
"279 119 OFFCURVE",
"247 119 CURVE SMOOTH"
);
}
);
width = 494;
},
{
hints = (
{
horizontal = 1;
origin = "{1, 13}";
target = "{2, 13}";
},
{
horizontal = 1;
origin = "{1, 6}";
target = "{2, 6}";
}
);
layerId = "DDDB0B36-051A-43AE-9F30-611505482296";
paths = (
{
closed = 1;
nodes = (
"390 -90 LINE",
"284 219 LINE",
"228 219 LINE",
"334 -90 LINE"
);
},
{
closed = 1;
nodes = (
"362 -16 OFFCURVE",
"432 58 OFFCURVE",
"432 169 CURVE SMOOTH",
"432 581 LINE SMOOTH",
"432 692 OFFCURVE",
"362 766 OFFCURVE",
"257 766 CURVE SMOOTH",
"152 766 OFFCURVE",
"82 692 OFFCURVE",
"82 581 CURVE SMOOTH",
"82 169 LINE SMOOTH",
"82 58 OFFCURVE",
"152 -16 OFFCURVE",
"257 -16 CURVE SMOOTH"
);
},
{
closed = 1;
nodes = (
"185 39 OFFCURVE",
"137 91 OFFCURVE",
"137 169 CURVE SMOOTH",
"137 581 LINE SMOOTH",
"137 659 OFFCURVE",
"185 711 OFFCURVE",
"257 711 CURVE SMOOTH",
"329 711 OFFCURVE",
"377 659 OFFCURVE",
"377 581 CURVE SMOOTH",
"377 169 LINE SMOOTH",
"377 91 OFFCURVE",
"329 39 OFFCURVE",
"257 39 CURVE SMOOTH"
);
}
);
width = 514;
}
);
leftKerningGroup = O;
note = Q;
rightKerningGroup = O;
unicode = 0051;
},
{
color = 8;
glyphname = R;
lastChange = "2018-05-02 18:05:13 +0000";
layers = (
{
anchors = (
{
name = bottom;
position = "{252, 0}";
},
{
name = top;
position = "{252, 750}";
}
);
layerId = "60B18B06-8123-4D0C-85E3-2DE7B5C03586";
paths = (
{
closed = 1;
nodes = (
"208 0 LINE",
"208 260 LINE",
"258 260 LINE SMOOTH",
"290 260 OFFCURVE",
"308 240 OFFCURVE",
"308 210 CURVE SMOOTH",
"308 0 LINE",
"443 0 LINE",
"443 210 LINE SMOOTH",
"443 268 OFFCURVE",
"410 309 OFFCURVE",
"352 330 CURVE",
"362 286 LINE",
"414 319 OFFCURVE",
"443 374 OFFCURVE",
"443 445 CURVE SMOOTH",
"443 565 LINE SMOOTH",
"443 676 OFFCURVE",
"371 750 OFFCURVE",
"258 750 CURVE SMOOTH",
"73 750 LINE",
"73 0 LINE"
);
},
{
closed = 1;
nodes = (
"208 615 LINE",
"258 615 LINE SMOOTH",
"290 615 OFFCURVE",
"308 595 OFFCURVE",
"308 565 CURVE SMOOTH",
"308 445 LINE SMOOTH",
"308 415 OFFCURVE",
"290 395 OFFCURVE",
"258 395 CURVE SMOOTH",
"208 395 LINE"
);
}
);
width = 504;
},
{
associatedMasterId = "60B18B06-8123-4D0C-85E3-2DE7B5C03586";
layerId = "39C2CA93-2650-459A-BE0E-7AE4DC651A2C";
name = "Apr 25 18, 16:34";
paths = (
{
closed = 1;
nodes = (
"149 281 LINE",
"231 281 LINE SMOOTH",
"274 281 OFFCURVE",
"311 244 OFFCURVE",
"311 200 CURVE SMOOTH",
"311 0 LINE",
"408 0 LINE",
"408 200 LINE SMOOTH",
"408 249 OFFCURVE",
"387 299 OFFCURVE",
"349 332 CURVE",
"380 364 OFFCURVE",
"401 409 OFFCURVE",
"401 454 CURVE SMOOTH",
"401 576 LINE SMOOTH",
"401 672 OFFCURVE",
"322 750 OFFCURVE",
"226 750 CURVE SMOOTH",
"52 750 LINE",
"52 0 LINE",
"149 0 LINE"
);
},
{
closed = 1;
nodes = (
"226 654 LINE SMOOTH",
"269 654 OFFCURVE",
"303 619 OFFCURVE",
"303 576 CURVE SMOOTH",
"303 454 LINE SMOOTH",
"303 413 OFFCURVE",
"271 377 OFFCURVE",
"230 377 CURVE SMOOTH",
"149 377 LINE",
"149 654 LINE"
);
}
);
width = 454;
},
{
anchors = (
{
name = bottom;
position = "{257, 0}";
},
{
name = top;
position = "{257, 750}";
}
);
hints = (
{
horizontal = 1;
origin = "{0, 21}";
target = up;
type = BottomGhost;
},
{
horizontal = 1;
origin = "{0, 1}";
target = "{1, 9}";
},
{
horizontal = 1;
origin = "{0, 20}";
target = "{1, 0}";
}
);
layerId = "DDDB0B36-051A-43AE-9F30-611505482296";
paths = (
{
closed = 1;
nodes = (
"148 0 LINE",
"148 325 LINE",
"278 325 LINE SMOOTH",
"338 325 OFFCURVE",
"378 285 OFFCURVE",
"378 225 CURVE SMOOTH",
"378 0 LINE",
"433 0 LINE",
"433 225 LINE SMOOTH",
"433 287 OFFCURVE",
"402 335 OFFCURVE",
"350 356 CURVE",
"351 341 LINE",
"403 367 OFFCURVE",
"433 421 OFFCURVE",
"433 490 CURVE SMOOTH",
"433 585 LINE SMOOTH",
"433 684 OFFCURVE",
"371 750 OFFCURVE",
"278 750 CURVE SMOOTH",
"93 750 LINE",
"93 0 LINE"
);
},
{
closed = 1;
nodes = (
"148 695 LINE",
"278 695 LINE SMOOTH",
"338 695 OFFCURVE",
"378 651 OFFCURVE",
"378 585 CURVE SMOOTH",
"378 490 LINE SMOOTH",
"378 424 OFFCURVE",
"338 380 OFFCURVE",
"278 380 CURVE SMOOTH",
"148 380 LINE"
);
}
);
width = 514;
}
);
leftKerningGroup = I;
note = R;
rightKerningGroup = R;
unicode = 0052;
},
{
color = 8;
glyphname = S;
lastChange = "2018-05-02 18:04:59 +0000";
layers = (
{
anchors = (
{
name = bottom;
position = "{233, 0}";
},
{
name = top;
position = "{233, 750}";
}
);
layerId = "60B18B06-8123-4D0C-85E3-2DE7B5C03586";
paths = (
{
closed = 1;
nodes = (
"347 -16 OFFCURVE",
"419 58 OFFCURVE",
"419 169 CURVE SMOOTH",
"419 246 LINE SMOOTH",
"419 357 OFFCURVE",
"347 431 OFFCURVE",
"234 431 CURVE SMOOTH",
"202 431 OFFCURVE",
"184 451 OFFCURVE",
"184 481 CURVE SMOOTH",
"184 581 LINE SMOOTH",
"184 611 OFFCURVE",
"202 631 OFFCURVE",
"234 631 CURVE SMOOTH",
"266 631 OFFCURVE",
"284 611 OFFCURVE",
"284 581 CURVE SMOOTH",
"284 541 LINE",
"419 541 LINE",
"419 581 LINE SMOOTH",
"419 692 OFFCURVE",
"347 766 OFFCURVE",
"234 766 CURVE SMOOTH",
"121 766 OFFCURVE",
"49 692 OFFCURVE",
"49 581 CURVE SMOOTH",
"49 481 LINE SMOOTH",
"49 370 OFFCURVE",
"121 296 OFFCURVE",
"234 296 CURVE SMOOTH",
"266 296 OFFCURVE",
"284 276 OFFCURVE",
"284 246 CURVE SMOOTH",
"284 169 LINE SMOOTH",
"284 139 OFFCURVE",
"266 119 OFFCURVE",
"234 119 CURVE SMOOTH",
"202 119 OFFCURVE",
"184 139 OFFCURVE",
"184 169 CURVE SMOOTH",
"184 209 LINE",
"49 209 LINE",
"49 169 LINE SMOOTH",
"49 58 OFFCURVE",
"121 -16 OFFCURVE",
"234 -16 CURVE SMOOTH"
);
}
);
width = 465;
},
{
anchors = (
{
name = bottom;
position = "{237, 0}";
},
{
name = top;
position = "{237, 750}";
}
);
hints = (
{
horizontal = 1;
origin = "{0, 45}";
target = "{0, 36}";
},
{
horizontal = 1;
origin = "{0, 29}";
target = "{0, 6}";
},
{
horizontal = 1;
origin = "{0, 22}";
target = "{0, 13}";
}
);
layerId = "DDDB0B36-051A-43AE-9F30-611505482296";
paths = (
{
closed = 1;
nodes = (
"342 -16 OFFCURVE",
"412 58 OFFCURVE",
"412 169 CURVE SMOOTH",
"412 218 LINE SMOOTH",
"412 329 OFFCURVE",
"342 403 OFFCURVE",
"237 403 CURVE SMOOTH",
"165 403 OFFCURVE",
"117 455 OFFCURVE",
"117 533 CURVE SMOOTH",
"117 581 LINE SMOOTH",
"117 659 OFFCURVE",
"165 711 OFFCURVE",
"237 711 CURVE SMOOTH",
"309 711 OFFCURVE",
"357 659 OFFCURVE",
"357 581 CURVE SMOOTH",
"357 561 LINE",
"412 561 LINE",
"412 581 LINE SMOOTH",
"412 692 OFFCURVE",
"342 766 OFFCURVE",
"237 766 CURVE SMOOTH",
"132 766 OFFCURVE",
"62 692 OFFCURVE",
"62 581 CURVE SMOOTH",
"62 533 LINE SMOOTH",
"62 422 OFFCURVE",
"132 348 OFFCURVE",
"237 348 CURVE SMOOTH",
"309 348 OFFCURVE",
"357 296 OFFCURVE",
"357 218 CURVE SMOOTH",
"357 169 LINE SMOOTH",
"357 91 OFFCURVE",
"309 39 OFFCURVE",
"237 39 CURVE SMOOTH",
"165 39 OFFCURVE",
"117 91 OFFCURVE",
"117 169 CURVE SMOOTH",
"117 189 LINE",
"62 189 LINE",
"62 169 LINE SMOOTH",
"62 58 OFFCURVE",
"132 -16 OFFCURVE",
"237 -16 CURVE SMOOTH"
);
}
);
width = 474;
}
);
leftKerningGroup = S;
note = S;
rightKerningGroup = S;
unicode = 0053;
},
{
color = 8;
glyphname = T;
lastChange = "2018-05-02 18:05:15 +0000";
layers = (
{
anchors = (
{
name = bottom;
position = "{181, 0}";
},
{
name = center;
position = "{188, 375}";
},
{
name = top;
position = "{188, 750}";
}
);
layerId = "60B18B06-8123-4D0C-85E3-2DE7B5C03586";
paths = (
{
closed = 1;
nodes = (
"255 0 LINE",
"255 615 LINE",
"365 615 LINE",
"365 750 LINE",
"10 750 LINE",
"10 615 LINE",
"120 615 LINE",
"120 0 LINE"
);
}
);
width = 375;
},
{
anchors = (
{
name = bottom;
position = "{184, 0}";
},
{
name = center;
position = "{185, 375}";
},
{
name = top;
position = "{185, 750}";
}
);
hints = (
{
horizontal = 1;
origin = "{0, 7}";
target = up;
type = BottomGhost;
},
{
horizontal = 1;
origin = "{0, 4}";
target = "{0, 5}";
}
);
layerId = "DDDB0B36-051A-43AE-9F30-611505482296";
paths = (
{
closed = 1;
nodes = (
"212 0 LINE",
"212 695 LINE",
"347 695 LINE",
"347 750 LINE",
"22 750 LINE",
"22 695 LINE",
"157 695 LINE",
"157 0 LINE"
);
}
);
width = 369;
}
);
leftKerningGroup = T;
note = T;
rightKerningGroup = T;
unicode = 0054;
},
{
color = 8;
glyphname = U;
lastChange = "2018-05-02 18:05:16 +0000";
layers = (
{
anchors = (
{
name = bottom;
position = "{253, 0}";
},
{
name = ogonek;
position = "{253, 0}";
},
{
name = top;
position = "{253, 750}";
}
);
layerId = "60B18B06-8123-4D0C-85E3-2DE7B5C03586";
paths = (
{
closed = 1;
nodes = (
"303 750 LINE",
"303 169 LINE SMOOTH",
"303 139 OFFCURVE",
"285 119 OFFCURVE",
"253 119 CURVE SMOOTH",
"221 119 OFFCURVE",
"203 139 OFFCURVE",
"203 169 CURVE SMOOTH",
"203 750 LINE",
"68 750 LINE",
"68 169 LINE SMOOTH",
"68 58 OFFCURVE",
"140 -16 OFFCURVE",
"253 -16 CURVE SMOOTH",
"366 -16 OFFCURVE",
"438 58 OFFCURVE",
"438 169 CURVE SMOOTH",
"438 750 LINE"
);
}
);
width = 506;
},
{
anchors = (
{
name = bottom;
position = "{264, 0}";
},
{
name = ogonek;
position = "{263, 0}";
},
{
name = top;
position = "{264, 750}";
}
);
hints = (
{
horizontal = 1;
origin = "{0, 13}";
target = "{0, 4}";
},
{
horizontal = 1;
origin = "{0, 9}";
target = down;
type = TopGhost;
}
);
layerId = "DDDB0B36-051A-43AE-9F30-611505482296";
paths = (
{
closed = 1;
nodes = (
"383 750 LINE",
"383 169 LINE SMOOTH",
"383 91 OFFCURVE",
"335 39 OFFCURVE",
"263 39 CURVE SMOOTH",
"191 39 OFFCURVE",
"143 91 OFFCURVE",
"143 169 CURVE SMOOTH",
"143 750 LINE",
"88 750 LINE",
"88 169 LINE SMOOTH",
"88 58 OFFCURVE",
"158 -16 OFFCURVE",
"263 -16 CURVE SMOOTH",
"368 -16 OFFCURVE",
"438 58 OFFCURVE",
"438 169 CURVE SMOOTH",
"438 750 LINE"
);
}
);
width = 526;
}
);
leftKerningGroup = U;
note = U;
rightKerningGroup = U;
unicode = 0055;
},
{
color = 8;
glyphname = V;
lastChange = "2018-05-02 18:04:59 +0000";
layers = (
{
layerId = "60B18B06-8123-4D0C-85E3-2DE7B5C03586";
paths = (
{
closed = 1;
nodes = (
"303 0 LINE",
"442 750 LINE",
"304 750 LINE",
"221 191 LINE",
"239 191 LINE",
"153 750 LINE",
"15 750 LINE",
"157 0 LINE"
);
}
);
width = 457;
},
{
hints = (
{
horizontal = 1;
origin = "{0, 7}";
target = up;
type = BottomGhost;
},
{
horizontal = 1;
origin = "{0, 6}";
target = down;
type = TopGhost;
}
);
layerId = "DDDB0B36-051A-43AE-9F30-611505482296";
paths = (
{
closed = 1;
nodes = (
"259 0 LINE",
"429 750 LINE",
"372 750 LINE",
"224 103 LINE",
"236 103 LINE",
"88 750 LINE",
"31 750 LINE",
"201 0 LINE"
);
}
);
width = 460;
}
);
note = V;
unicode = 0056;
},
{
color = 8;
glyphname = W;
lastChange = "2018-05-02 18:04:59 +0000";
layers = (
{
anchors = (
{
name = bottom;
position = "{341, 0}";
},
{
name = top;
position = "{341, 750}";
}
);
layerId = "60B18B06-8123-4D0C-85E3-2DE7B5C03586";
paths = (
{
closed = 1;
nodes = (
"266 0 LINE",
"352 451 LINE",
"330 451 LINE",
"415 0 LINE",
"561 0 LINE",
"653 750 LINE",
"515 750 LINE",
"462 231 LINE",
"478 231 LINE",
"395 750 LINE",
"286 750 LINE",
"203 231 LINE",
"219 231 LINE",
"166 750 LINE",
"28 750 LINE",
"120 0 LINE"
);
}
);
width = 681;
},
{
associatedMasterId = "60B18B06-8123-4D0C-85E3-2DE7B5C03586";
layerId = "7AC04416-80C8-4AEE-BAA9-DA417D64F7BF";
name = "Apr 25 18, 16:40";
paths = (
{
closed = 1;
nodes = (
"336 495 LINE",
"412 0 LINE",
"515 0 LINE",
"636 750 LINE",
"538 750 LINE",
"463 323 LINE",
"388 750 LINE",
"285 750 LINE",
"210 323 LINE",
"135 750 LINE",
"37 750 LINE",
"158 0 LINE",
"261 0 LINE"
);
}
);
width = 673;
},
{
anchors = (
{
name = bottom;
position = "{320, 0}";
},
{
name = top;
position = "{320, 750}";
}
);
hints = (
{
horizontal = 1;
origin = "{0, 15}";
target = up;
type = BottomGhost;
},
{
horizontal = 1;
origin = "{0, 14}";
target = down;
type = TopGhost;
}
);
layerId = "DDDB0B36-051A-43AE-9F30-611505482296";
paths = (
{
closed = 1;
nodes = (
"210 0 LINE",
"325 616 LINE",
"316 616 LINE",
"429 0 LINE",
"487 0 LINE",
"597 750 LINE",
"540 750 LINE",
"451 112 LINE",
"458 113 LINE",
"346 750 LINE",
"293 750 LINE",
"181 113 LINE",
"188 112 LINE",
"99 750 LINE",
"42 750 LINE",
"152 0 LINE"
);
}
);
width = 639;
},
{
associatedMasterId = "DDDB0B36-051A-43AE-9F30-611505482296";
layerId = "F3D4BCD6-DEEE-4411-B041-4C3F669BA026";
name = "Apr 26 18, 11:00";
paths = (
{
closed = 1;
nodes = (
"211 0 LINE",
"337 750 LINE",
"284 750 LINE",
"186 137 LINE",
"100 750 LINE",
"43 750 LINE",
"153 0 LINE"
);
},
{
closed = 1;
nodes = (
"578 750 LINE",
"521 750 LINE",
"435 137 LINE",
"337 750 LINE",
"284 750 LINE",
"410 0 LINE",
"468 0 LINE"
);
}
);
width = 600;
}
);
leftKerningGroup = W;
note = W;
rightKerningGroup = W;
unicode = 0057;
},
{
color = 8;
glyphname = X;
lastChange = "2018-05-02 18:04:59 +0000";
layers = (
{
layerId = "60B18B06-8123-4D0C-85E3-2DE7B5C03586";
paths = (
{
closed = 1;
nodes = (
"153 0 LINE",
"248 249 LINE",
"205 249 LINE",
"298 0 LINE",
"436 0 LINE",
"295 375 LINE",
"436 750 LINE",
"298 750 LINE",
"205 501 LINE",
"248 501 LINE",
"153 750 LINE",
"15 750 LINE",
"157 375 LINE",
"15 0 LINE"
);
}
);
width = 451;
},
{
hints = (
{
horizontal = 1;
origin = "{0, 13}";
target = up;
type = BottomGhost;
},
{
horizontal = 1;
origin = "{0, 11}";
target = down;
type = TopGhost;
}
);
layerId = "DDDB0B36-051A-43AE-9F30-611505482296";
paths = (
{
closed = 1;
nodes = (
"88 0 LINE",
"240 335 LINE",
"220 335 LINE",
"372 0 LINE",
"429 0 LINE",
"259 376 LINE",
"429 750 LINE",
"371 750 LINE",
"220 416 LINE",
"240 416 LINE",
"89 750 LINE",
"31 750 LINE",
"201 376 LINE",
"31 0 LINE"
);
}
);
width = 460;
},
{
associatedMasterId = "60B18B06-8123-4D0C-85E3-2DE7B5C03586";
layerId = "767CC648-F331-45EB-A0E3-CD7EA67E24E4";
name = "Apr 26 18, 11:01";
paths = (
{
closed = 1;
nodes = (
"298 750 LINE",
"436 750 LINE",
"153 0 LINE",
"15 0 LINE"
);
},
{
closed = 1;
nodes = (
"436 0 LINE",
"153 750 LINE",
"15 750 LINE",
"298 0 LINE"
);
}
);
width = 451;
},
{
associatedMasterId = "DDDB0B36-051A-43AE-9F30-611505482296";
layerId = "ACED6411-93E7-4B74-AFE3-083CFF28D3D2";
name = "Apr 26 18, 11:02";
paths = (
{
closed = 1;
nodes = (
"443 750 LINE",
"501 750 LINE",
"160 0 LINE",
"103 0 LINE"
);
},
{
closed = 1;
nodes = (
"501 0 LINE",
"161 750 LINE",
"103 750 LINE",
"444 0 LINE"
);
}
);
width = 600;
}
);
note = X;
unicode = 0058;
},
{
color = 8;
glyphname = Y;
lastChange = "2018-05-02 18:04:59 +0000";
layers = (
{
anchors = (
{
name = bottom;
position = "{227, 0}";
},
{
name = top;
position = "{227, 750}";
}
);
layerId = "60B18B06-8123-4D0C-85E3-2DE7B5C03586";
paths = (
{
closed = 1;
nodes = (
"295 0 LINE",
"295 340 LINE",
"450 750 LINE",
"312 750 LINE",
"209 433 LINE",
"247 433 LINE",
"141 750 LINE",
"3 750 LINE",
"160 340 LINE",
"160 0 LINE"
);
}
);
width = 453;
},
{
anchors = (
{
name = bottom;
position = "{239, 0}";
},
{
name = top;
position = "{239, 750}";
}
);
hints = (
{
horizontal = 1;
origin = "{0, 9}";
target = up;
type = BottomGhost;
},
{
horizontal = 1;
origin = "{0, 7}";
target = down;
type = TopGhost;
}
);
layerId = "DDDB0B36-051A-43AE-9F30-611505482296";
paths = (
{
closed = 1;
nodes = (
"267 0 LINE",
"267 400 LINE",
"458 750 LINE",
"401 750 LINE",
"227 433 LINE",
"251 433 LINE",
"77 750 LINE",
"20 750 LINE",
"212 400 LINE",
"212 0 LINE"
);
}
);
width = 478;
}
);
leftKerningGroup = Y;
note = Y;
rightKerningGroup = Y;
unicode = 0059;
},
{
color = 8;
glyphname = Z;
lastChange = "2018-05-02 18:04:59 +0000";
layers = (
{
anchors = (
{
name = bottom;
position = "{219, 0}";
},
{
name = top;
position = "{219, 750}";
}
);
layerId = "60B18B06-8123-4D0C-85E3-2DE7B5C03586";
paths = (
{
closed = 1;
nodes = (
"406 0 LINE",
"406 135 LINE",
"115 135 LINE",
"151 79 LINE",
"406 652 LINE",
"406 750 LINE",
"31 750 LINE",
"31 615 LINE",
"322 615 LINE",
"286 671 LINE",
"31 98 LINE",
"31 0 LINE"
);
}
);
width = 437;
},
{
anchors = (
{
name = bottom;
position = "{207, 0}";
},
{
name = top;
position = "{207, 750}";
}
);
hints = (
{
horizontal = 1;
origin = "{0, 11}";
target = "{0, 2}";
},
{
horizontal = 1;
origin = "{0, 6}";
target = "{0, 7}";
}
);
layerId = "DDDB0B36-051A-43AE-9F30-611505482296";
paths = (
{
closed = 1;
nodes = (
"377 0 LINE",
"377 55 LINE",
"72 55 LINE",
"87 32 LINE",
"377 705 LINE",
"377 750 LINE",
"38 750 LINE",
"38 695 LINE",
"342 695 LINE",
"327 718 LINE",
"37 45 LINE",
"38 0 LINE"
);
}
);
width = 414;
}
);
leftKerningGroup = Z;
note = Z;
rightKerningGroup = Z;
unicode = 005A;
},
{
color = 7;
glyphname = G.ss03;
lastChange = "2018-05-02 18:04:59 +0000";
layers = (
{
anchors = (
{
name = bottom;
position = "{247, 0}";
},
{
name = top;
position = "{247, 750}";
}
);
layerId = "60B18B06-8123-4D0C-85E3-2DE7B5C03586";
paths = (
{
closed = 1;
nodes = (
"360 -16 OFFCURVE",
"432 58 OFFCURVE",
"432 169 CURVE SMOOTH",
"432 475 LINE",
"234 475 LINE",
"234 340 LINE",
"297 340 LINE",
"297 169 LINE SMOOTH",
"297 139 OFFCURVE",
"279 119 OFFCURVE",
"247 119 CURVE SMOOTH",
"215 119 OFFCURVE",
"197 139 OFFCURVE",
"197 169 CURVE SMOOTH",
"197 581 LINE SMOOTH",
"197 611 OFFCURVE",
"215 631 OFFCURVE",
"247 631 CURVE SMOOTH",
"279 631 OFFCURVE",
"297 611 OFFCURVE",
"297 581 CURVE SMOOTH",
"297 541 LINE",
"432 541 LINE",
"432 581 LINE SMOOTH",
"432 692 OFFCURVE",
"360 766 OFFCURVE",
"247 766 CURVE SMOOTH",
"134 766 OFFCURVE",
"62 692 OFFCURVE",
"62 581 CURVE SMOOTH",
"62 169 LINE SMOOTH",
"62 58 OFFCURVE",
"134 -16 OFFCURVE",
"247 -16 CURVE SMOOTH"
);
}
);
width = 484;
},
{
anchors = (
{
name = bottom;
position = "{257, 0}";
},
{
name = top;
position = "{257, 750}";
}
);
hints = (
{
horizontal = 1;
origin = "{0, 33}";
target = "{0, 10}";
},
{
horizontal = 1;
origin = "{0, 5}";
target = "{0, 4}";
},
{
horizontal = 1;
origin = "{0, 26}";
target = "{0, 17}";
}
);
layerId = "DDDB0B36-051A-43AE-9F30-611505482296";
paths = (
{
closed = 1;
nodes = (
"362 -16 OFFCURVE",
"432 58 OFFCURVE",
"432 169 CURVE SMOOTH",
"432 455 LINE",
"264 455 LINE",
"264 400 LINE",
"377 400 LINE",
"377 169 LINE SMOOTH",
"377 91 OFFCURVE",
"329 39 OFFCURVE",
"257 39 CURVE SMOOTH",
"185 39 OFFCURVE",
"137 91 OFFCURVE",
"137 169 CURVE SMOOTH",
"137 581 LINE SMOOTH",
"137 659 OFFCURVE",
"185 711 OFFCURVE",
"257 711 CURVE SMOOTH",
"329 711 OFFCURVE",
"377 659 OFFCURVE",
"377 581 CURVE SMOOTH",
"377 561 LINE",
"432 561 LINE",
"432 581 LINE SMOOTH",
"432 692 OFFCURVE",
"362 766 OFFCURVE",
"257 766 CURVE SMOOTH",
"152 766 OFFCURVE",
"82 692 OFFCURVE",
"82 581 CURVE SMOOTH",
"82 169 LINE SMOOTH",
"82 58 OFFCURVE",
"152 -16 OFFCURVE",
"257 -16 CURVE SMOOTH"
);
}
);
width = 500;
}
);
leftKerningGroup = O;
note = G;
rightKerningGroup = G;
},
{
color = 4;
glyphname = J.ss04;
lastChange = "2018-05-02 18:04:59 +0000";
layers = (
{
anchors = (
{
name = bottom;
position = "{300, 0}";
},
{
name = top;
position = "{319, 750}";
}
);
layerId = "60B18B06-8123-4D0C-85E3-2DE7B5C03586";
paths = (
{
closed = 1;
nodes = (
"316 -7 OFFCURVE",
"388 67 OFFCURVE",
"388 178 CURVE SMOOTH",
"388 750 LINE",
"253 750 LINE",
"253 178 LINE SMOOTH",
"253 148 OFFCURVE",
"235 128 OFFCURVE",
"203 128 CURVE SMOOTH",
"171 128 OFFCURVE",
"153 148 OFFCURVE",
"153 178 CURVE SMOOTH",
"153 188 LINE",
"18 188 LINE",
"18 178 LINE SMOOTH",
"18 67 OFFCURVE",
"90 -7 OFFCURVE",
"203 -7 CURVE SMOOTH"
);
}
);
width = 455;
},
{
anchors = (
{
name = bottom;
position = "{303, 0}";
},
{
name = top;
position = "{340, 750}";
}
);
hints = (
{
horizontal = 1;
origin = "{0, 17}";
target = "{0, 8}";
},
{
horizontal = 1;
origin = "{0, 4}";
target = down;
type = TopGhost;
}
);
layerId = "DDDB0B36-051A-43AE-9F30-611505482296";
paths = (
{
closed = 1;
nodes = (
"298 -6 OFFCURVE",
"368 68 OFFCURVE",
"368 179 CURVE SMOOTH",
"368 750 LINE",
"313 750 LINE",
"313 179 LINE SMOOTH",
"313 101 OFFCURVE",
"265 49 OFFCURVE",
"193 49 CURVE SMOOTH",
"121 49 OFFCURVE",
"73 101 OFFCURVE",
"73 179 CURVE SMOOTH",
"73 189 LINE",
"18 189 LINE",
"18 179 LINE SMOOTH",
"18 68 OFFCURVE",
"88 -6 OFFCURVE",
"193 -6 CURVE SMOOTH"
);
}
);
width = 455;
}
);
leftKerningGroup = J.ss04;
note = J;
rightKerningGroup = J;
},
{
color = 8;
glyphname = a;
lastChange = "2018-05-02 18:04:59 +0000";
layers = (
{
anchors = (
{
name = bottom;
position = "{168, 0}";
},
{
name = ogonek;
position = "{318, 0}";
},
{
name = top;
position = "{214, 550}";
}
);
layerId = "60B18B06-8123-4D0C-85E3-2DE7B5C03586";
paths = (
{
closed = 1;
nodes = (
"223 -13 OFFCURVE",
"265 12 OFFCURVE",
"286 58 CURVE",
"264 86 LINE",
"264 0 LINE",
"389 0 LINE",
"389 378 LINE SMOOTH",
"389 489 OFFCURVE",
"321 563 OFFCURVE",
"214 563 CURVE SMOOTH",
"107 563 OFFCURVE",
"39 489 OFFCURVE",
"39 378 CURVE SMOOTH",
"39 358 LINE",
"164 358 LINE",
"164 388 LINE SMOOTH",
"164 418 OFFCURVE",
"182 438 OFFCURVE",
"214 438 CURVE SMOOTH",
"246 438 OFFCURVE",
"264 418 OFFCURVE",
"264 388 CURVE SMOOTH",
"264 378 LINE SMOOTH",
"264 318 OFFCURVE",
"178 312 OFFCURVE",
"110 274 CURVE SMOOTH",
"66 250 OFFCURVE",
"29 212 OFFCURVE",
"29 136 CURVE SMOOTH",
"29 50 OFFCURVE",
"77 -13 OFFCURVE",
"167 -13 CURVE SMOOTH"
);
},
{
closed = 1;
nodes = (
"172 102 OFFCURVE",
"154 126 OFFCURVE",
"154 152 CURVE SMOOTH",
"154 178 OFFCURVE",
"171 191 OFFCURVE",
"193 202 CURVE SMOOTH",
"217 214 OFFCURVE",
"246 220 OFFCURVE",
"264 236 CURVE",
"264 159 LINE SMOOTH",
"264 116 OFFCURVE",
"236 102 OFFCURVE",
"208 102 CURVE SMOOTH"
);
}
);
width = 440;
},
{
anchors = (
{
name = bottom;
position = "{216, 0}";
},
{
name = ogonek;
position = "{349, 0}";
},
{
name = top;
position = "{221, 540}";
}
);
hints = (
{
horizontal = 1;
origin = "{0, 31}";
target = "{1, 12}";
},
{
horizontal = 1;
origin = "{0, 9}";
target = "{0, 18}";
},
{
horizontal = 1;
origin = "{0, 4}";
target = up;
type = BottomGhost;
}
);
layerId = "DDDB0B36-051A-43AE-9F30-611505482296";
paths = (
{
closed = 1;
nodes = (
"271 -12 OFFCURVE",
"319 14 OFFCURVE",
"346 59 CURVE",
"337 71 LINE",
"337 0 LINE",
"392 0 LINE",
"392 379 LINE SMOOTH",
"392 482 OFFCURVE",
"321 552 OFFCURVE",
"221 552 CURVE SMOOTH",
"121 552 OFFCURVE",
"52 482 OFFCURVE",
"52 379 CURVE SMOOTH",
"52 369 LINE",
"107 369 LINE",
"107 379 LINE SMOOTH",
"107 450 OFFCURVE",
"151 497 OFFCURVE",
"221 497 CURVE SMOOTH",
"291 497 OFFCURVE",
"337 450 OFFCURVE",
"337 379 CURVE SMOOTH",
"337 365 LINE SMOOTH",
"337 291 OFFCURVE",
"230 298 OFFCURVE",
"147 268 CURVE SMOOTH",
"94 249 OFFCURVE",
"41 214 OFFCURVE",
"41 134 CURVE SMOOTH",
"41 49 OFFCURVE",
"101 -12 OFFCURVE",
"204 -12 CURVE SMOOTH"
);
},
{
closed = 1;
nodes = (
"138 42 OFFCURVE",
"96 80 OFFCURVE",
"96 136 CURVE SMOOTH",
"96 188 OFFCURVE",
"130 212 OFFCURVE",
"175 226 CURVE SMOOTH",
"226 242 OFFCURVE",
"289 244 OFFCURVE",
"337 273 CURVE",
"337 171 LINE SMOOTH",
"337 92 OFFCURVE",
"294 42 OFFCURVE",
"210 42 CURVE SMOOTH"
);
}
);
width = 459;
}
);
leftKerningGroup = a;
note = a;
rightKerningGroup = a;
unicode = 0061;
},
{
glyphname = ae;
lastChange = "2018-05-02 18:04:59 +0000";
layers = (
{
hints = (
{
horizontal = 1;
origin = "{0, 53}";
target = "{0, 15}";
},
{
horizontal = 1;
origin = "{0, 19}";
target = "{2, 8}";
},
{
horizontal = 1;
origin = "{0, 31}";
target = "{0, 40}";
}
);
layerId = "DDDB0B36-051A-43AE-9F30-611505482296";
paths = (
{
closed = 1;
nodes = (
"270 -12 OFFCURVE",
"335 21 OFFCURVE",
"367 88 CURVE",
"351 87 LINE",
"376 26 OFFCURVE",
"435 -12 OFFCURVE",
"508 -12 CURVE SMOOTH",
"608 -12 OFFCURVE",
"677 58 OFFCURVE",
"677 162 CURVE SMOOTH",
"677 172 LINE",
"622 172 LINE",
"622 162 LINE SMOOTH",
"622 91 OFFCURVE",
"578 43 OFFCURVE",
"508 43 CURVE SMOOTH",
"438 43 OFFCURVE",
"392 91 OFFCURVE",
"392 162 CURVE SMOOTH",
"392 266 LINE",
"677 266 LINE",
"677 379 LINE SMOOTH",
"677 482 OFFCURVE",
"608 552 OFFCURVE",
"508 552 CURVE SMOOTH",
"439 552 OFFCURVE",
"384 519 OFFCURVE",
"357 465 CURVE",
"373 465 LINE",
"345 519 OFFCURVE",
"290 552 OFFCURVE",
"221 552 CURVE SMOOTH",
"121 552 OFFCURVE",
"52 482 OFFCURVE",
"52 379 CURVE SMOOTH",
"52 369 LINE",
"107 369 LINE",
"107 379 LINE SMOOTH",
"107 450 OFFCURVE",
"151 497 OFFCURVE",
"221 497 CURVE SMOOTH",
"291 497 OFFCURVE",
"337 450 OFFCURVE",
"337 379 CURVE SMOOTH",
"337 365 LINE SMOOTH",
"337 291 OFFCURVE",
"230 298 OFFCURVE",
"147 268 CURVE SMOOTH",
"94 249 OFFCURVE",
"41 214 OFFCURVE",
"41 134 CURVE SMOOTH",
"41 49 OFFCURVE",
"101 -12 OFFCURVE",
"204 -12 CURVE SMOOTH"
);
},
{
closed = 1;
nodes = (
"138 42 OFFCURVE",
"96 80 OFFCURVE",
"96 136 CURVE SMOOTH",
"96 188 OFFCURVE",
"130 212 OFFCURVE",
"175 226 CURVE SMOOTH",
"226 242 OFFCURVE",
"289 244 OFFCURVE",
"337 273 CURVE",
"337 171 LINE SMOOTH",
"337 92 OFFCURVE",
"294 42 OFFCURVE",
"210 42 CURVE SMOOTH"
);
},
{
closed = 1;
nodes = (
"392 379 LINE SMOOTH",
"392 450 OFFCURVE",
"438 497 OFFCURVE",
"508 497 CURVE SMOOTH",
"578 497 OFFCURVE",
"622 450 OFFCURVE",
"622 379 CURVE SMOOTH",
"622 321 LINE",
"392 321 LINE"
);
}
);
width = 732;
},
{
layerId = "60B18B06-8123-4D0C-85E3-2DE7B5C03586";
paths = (
{
closed = 1;
nodes = (
"231 -13 OFFCURVE",
"296 19 OFFCURVE",
"312 103 CURVE",
"278 92 LINE",
"302 27 OFFCURVE",
"361 -13 OFFCURVE",
"439 -13 CURVE SMOOTH",
"546 -13 OFFCURVE",
"614 61 OFFCURVE",
"614 172 CURVE SMOOTH",
"614 182 LINE",
"489 182 LINE",
"489 162 LINE SMOOTH",
"489 132 OFFCURVE",
"471 112 OFFCURVE",
"439 112 CURVE SMOOTH",
"407 112 OFFCURVE",
"389 132 OFFCURVE",
"389 162 CURVE SMOOTH",
"389 243 LINE",
"614 243 LINE",
"614 378 LINE SMOOTH",
"614 489 OFFCURVE",
"546 563 OFFCURVE",
"439 563 CURVE SMOOTH",
"379 563 OFFCURVE",
"331 540 OFFCURVE",
"301 498 CURVE",
"354 498 LINE",
"322 540 OFFCURVE",
"274 563 OFFCURVE",
"214 563 CURVE SMOOTH",
"107 563 OFFCURVE",
"39 489 OFFCURVE",
"39 378 CURVE SMOOTH",
"39 358 LINE",
"164 358 LINE",
"164 388 LINE SMOOTH",
"164 418 OFFCURVE",
"182 438 OFFCURVE",
"214 438 CURVE SMOOTH",
"246 438 OFFCURVE",
"264 418 OFFCURVE",
"264 388 CURVE SMOOTH",
"264 378 LINE SMOOTH",
"264 318 OFFCURVE",
"178 312 OFFCURVE",
"110 274 CURVE SMOOTH",
"66 250 OFFCURVE",
"29 212 OFFCURVE",
"29 136 CURVE SMOOTH",
"29 50 OFFCURVE",
"77 -13 OFFCURVE",
"167 -13 CURVE SMOOTH"
);
},
{
closed = 1;
nodes = (
"172 102 OFFCURVE",
"154 126 OFFCURVE",
"154 152 CURVE SMOOTH",
"154 178 OFFCURVE",
"171 191 OFFCURVE",
"193 202 CURVE SMOOTH",
"217 214 OFFCURVE",
"246 220 OFFCURVE",
"264 236 CURVE",
"264 159 LINE SMOOTH",
"264 116 OFFCURVE",
"236 102 OFFCURVE",
"208 102 CURVE SMOOTH"
);
},
{
closed = 1;
nodes = (
"389 388 LINE SMOOTH",
"389 418 OFFCURVE",
"407 438 OFFCURVE",
"439 438 CURVE SMOOTH",
"471 438 OFFCURVE",
"489 418 OFFCURVE",
"489 388 CURVE SMOOTH",
"489 358 LINE",
"389 358 LINE"
);
}
);
width = 655;
}
);
leftKerningGroup = o;
rightKerningGroup = e;
unicode = 00E6;
},
{
color = 8;
glyphname = b;
lastChange = "2018-05-02 18:04:59 +0000";
layers = (
{
layerId = "60B18B06-8123-4D0C-85E3-2DE7B5C03586";
paths = (
{
closed = 1;
nodes = (
"342 -13 OFFCURVE",
"409 21 OFFCURVE",
"409 162 CURVE SMOOTH",
"409 388 LINE SMOOTH",
"409 529 OFFCURVE",
"342 563 OFFCURVE",
"277 563 CURVE SMOOTH",
"221 563 OFFCURVE",
"183 538 OFFCURVE",
"162 495 CURVE",
"184 466 LINE",
"184 750 LINE",
"59 750 LINE",
"59 0 LINE",
"184 0 LINE",
"184 84 LINE",
"162 55 LINE",
"183 12 OFFCURVE",
"221 -13 OFFCURVE",
"277 -13 CURVE SMOOTH"
);
},
{
closed = 1;
nodes = (
"202 112 OFFCURVE",
"184 132 OFFCURVE",
"184 162 CURVE SMOOTH",
"184 388 LINE SMOOTH",
"184 418 OFFCURVE",
"202 438 OFFCURVE",
"234 438 CURVE SMOOTH",
"266 438 OFFCURVE",
"284 418 OFFCURVE",
"284 388 CURVE SMOOTH",
"284 162 LINE SMOOTH",
"284 132 OFFCURVE",
"266 112 OFFCURVE",
"234 112 CURVE SMOOTH"
);
}
);
width = 458;
},
{
hints = (
{
horizontal = 1;
origin = "{0, 19}";
target = "{1, 13}";
},
{
horizontal = 1;
origin = "{0, 6}";
target = "{1, 6}";
},
{
horizontal = 1;
origin = "{0, 12}";
target = down;
type = TopGhost;
},
{
horizontal = 1;
origin = "{1, 13}";
target = "{0, 13}";
}
);
layerId = "DDDB0B36-051A-43AE-9F30-611505482296";
paths = (
{
closed = 1;
nodes = (
"344 -12 OFFCURVE",
"413 58 OFFCURVE",
"413 162 CURVE SMOOTH",
"413 379 LINE SMOOTH",
"413 482 OFFCURVE",
"344 552 OFFCURVE",
"244 552 CURVE SMOOTH",
"189 552 OFFCURVE",
"146 527 OFFCURVE",
"121 486 CURVE",
"130 474 LINE",
"130 750 LINE",
"75 750 LINE",
"75 0 LINE",
"130 0 LINE",
"130 66 LINE",
"121 54 LINE",
"146 13 OFFCURVE",
"189 -12 OFFCURVE",
"244 -12 CURVE SMOOTH"
);
},
{
closed = 1;
nodes = (
"171 43 OFFCURVE",
"130 90 OFFCURVE",
"130 161 CURVE SMOOTH",
"130 379 LINE SMOOTH",
"130 450 OFFCURVE",
"171 497 OFFCURVE",
"244 497 CURVE SMOOTH",
"314 497 OFFCURVE",
"358 450 OFFCURVE",
"358 379 CURVE SMOOTH",
"358 162 LINE SMOOTH",
"358 91 OFFCURVE",
"314 43 OFFCURVE",
"244 43 CURVE SMOOTH"
);
}
);
width = 473;
}
);
leftKerningGroup = h;
note = b;
rightKerningGroup = o;
unicode = 0062;
},
{
color = 8;
glyphname = c;
lastChange = "2018-05-02 18:04:59 +0000";
layers = (
{
anchors = (
{
name = bottom;
position = "{218, 0}";
},
{
name = top;
position = "{218, 550}";
}
);
layerId = "60B18B06-8123-4D0C-85E3-2DE7B5C03586";
paths = (
{
closed = 1;
nodes = (
"268 182 LINE",
"268 162 LINE SMOOTH",
"268 132 OFFCURVE",
"250 112 OFFCURVE",
"218 112 CURVE SMOOTH",
"186 112 OFFCURVE",
"168 132 OFFCURVE",
"168 162 CURVE SMOOTH",
"168 388 LINE SMOOTH",
"168 418 OFFCURVE",
"186 438 OFFCURVE",
"218 438 CURVE SMOOTH",
"250 438 OFFCURVE",
"268 418 OFFCURVE",
"268 388 CURVE SMOOTH",
"268 368 LINE",
"393 368 LINE",
"393 378 LINE SMOOTH",
"393 489 OFFCURVE",
"325 563 OFFCURVE",
"218 563 CURVE SMOOTH",
"111 563 OFFCURVE",
"43 489 OFFCURVE",
"43 378 CURVE SMOOTH",
"43 172 LINE SMOOTH",
"43 61 OFFCURVE",
"111 -13 OFFCURVE",
"218 -13 CURVE SMOOTH",
"325 -13 OFFCURVE",
"393 61 OFFCURVE",
"393 172 CURVE SMOOTH",
"393 182 LINE"
);
}
);
width = 420;
},
{
anchors = (
{
name = bottom;
position = "{230, 0}";
},
{
name = top;
position = "{230, 540}";
}
);
hints = (
{
horizontal = 1;
origin = "{0, 27}";
target = "{0, 4}";
},
{
horizontal = 1;
origin = "{0, 20}";
target = "{0, 11}";
}
);
layerId = "DDDB0B36-051A-43AE-9F30-611505482296";
paths = (
{
closed = 1;
nodes = (
"344 172 LINE",
"344 162 LINE SMOOTH",
"344 91 OFFCURVE",
"300 43 OFFCURVE",
"230 43 CURVE SMOOTH",
"160 43 OFFCURVE",
"114 91 OFFCURVE",
"114 162 CURVE SMOOTH",
"114 379 LINE SMOOTH",
"114 450 OFFCURVE",
"160 497 OFFCURVE",
"230 497 CURVE SMOOTH",
"300 497 OFFCURVE",
"344 450 OFFCURVE",
"344 379 CURVE SMOOTH",
"344 369 LINE",
"399 369 LINE",
"399 379 LINE SMOOTH",
"399 482 OFFCURVE",
"330 552 OFFCURVE",
"230 552 CURVE SMOOTH",
"130 552 OFFCURVE",
"59 482 OFFCURVE",
"59 379 CURVE SMOOTH",
"59 162 LINE SMOOTH",
"59 58 OFFCURVE",
"130 -12 OFFCURVE",
"230 -12 CURVE SMOOTH",
"330 -12 OFFCURVE",
"399 58 OFFCURVE",
"399 162 CURVE SMOOTH",
"399 172 LINE"
);
}
);
width = 440;
}
);
leftKerningGroup = o;
note = c;
rightKerningGroup = c;
unicode = 0063;
},
{
color = 8;
glyphname = d;
lastChange = "2018-05-02 18:04:59 +0000";
layers = (
{
anchors = (
{
name = bottom;
position = "{229, 0}";
},
{
name = center;
position = "{336, 646}";
},
{
name = top;
position = "{229, 550}";
}
);
layerId = "60B18B06-8123-4D0C-85E3-2DE7B5C03586";
paths = (
{
closed = 1;
nodes = (
"237 -13 OFFCURVE",
"275 12 OFFCURVE",
"296 55 CURVE",
"274 84 LINE",
"274 0 LINE",
"399 0 LINE",
"399 750 LINE",
"274 750 LINE",
"274 466 LINE",
"296 495 LINE",
"275 538 OFFCURVE",
"237 563 OFFCURVE",
"181 563 CURVE SMOOTH",
"116 563 OFFCURVE",
"49 529 OFFCURVE",
"49 388 CURVE SMOOTH",
"49 162 LINE SMOOTH",
"49 21 OFFCURVE",
"116 -13 OFFCURVE",
"181 -13 CURVE SMOOTH"
);
},
{
closed = 1;
nodes = (
"192 112 OFFCURVE",
"174 132 OFFCURVE",
"174 162 CURVE SMOOTH",
"174 388 LINE SMOOTH",
"174 418 OFFCURVE",
"192 438 OFFCURVE",
"224 438 CURVE SMOOTH",
"256 438 OFFCURVE",
"274 418 OFFCURVE",
"274 388 CURVE SMOOTH",
"274 162 LINE SMOOTH",
"274 132 OFFCURVE",
"256 112 OFFCURVE",
"224 112 CURVE SMOOTH"
);
}
);
width = 458;
},
{
anchors = (
{
name = bottom;
position = "{239, 0}";
},
{
name = center;
position = "{371, 642}";
},
{
name = top;
position = "{239, 540}";
}
);
hints = (
{
horizontal = 1;
origin = "{0, 19}";
target = "{1, 13}";
},
{
horizontal = 1;
origin = "{0, 12}";
target = "{1, 6}";
},
{
horizontal = 1;
origin = "{0, 7}";
target = down;
type = TopGhost;
},
{
horizontal = 1;
origin = "{1, 13}";
target = "{0, 4}";
}
);
layerId = "DDDB0B36-051A-43AE-9F30-611505482296";
paths = (
{
closed = 1;
nodes = (
"284 -12 OFFCURVE",
"327 13 OFFCURVE",
"352 54 CURVE",
"343 66 LINE",
"343 0 LINE",
"398 0 LINE",
"398 750 LINE",
"343 750 LINE",
"343 474 LINE",
"352 486 LINE",
"327 527 OFFCURVE",
"284 552 OFFCURVE",
"229 552 CURVE SMOOTH",
"129 552 OFFCURVE",
"60 482 OFFCURVE",
"60 379 CURVE SMOOTH",
"60 162 LINE SMOOTH",
"60 58 OFFCURVE",
"129 -12 OFFCURVE",
"229 -12 CURVE SMOOTH"
);
},
{
closed = 1;
nodes = (
"159 43 OFFCURVE",
"115 91 OFFCURVE",
"115 162 CURVE SMOOTH",
"115 379 LINE SMOOTH",
"115 450 OFFCURVE",
"159 497 OFFCURVE",
"229 497 CURVE SMOOTH",
"302 497 OFFCURVE",
"343 450 OFFCURVE",
"343 379 CURVE SMOOTH",
"343 161 LINE SMOOTH",
"343 90 OFFCURVE",
"302 43 OFFCURVE",
"229 43 CURVE SMOOTH"
);
}
);
width = 473;
}
);
leftKerningGroup = o;
note = d;
rightKerningGroup = d;
unicode = 0064;
},
{
glyphname = eth;
lastChange = "2018-05-02 18:04:59 +0000";
layers = (
{
hints = (
{
horizontal = 1;
origin = "{0, 17}";
target = "{1, 13}";
},
{
horizontal = 1;
origin = "{0, 10}";
target = "{1, 6}";
},
{
horizontal = 1;
origin = "{0, 0}";
target = "{0, 1}";
},
{
horizontal = 1;
origin = "{1, 13}";
target = "{0, 22}";
}
);
layerId = "DDDB0B36-051A-43AE-9F30-611505482296";
paths = (
{
closed = 1;
nodes = (
"209 750 LINE",
"209 695 LINE",
"229 695 LINE SMOOTH",
"299 695 OFFCURVE",
"343 647 OFFCURVE",
"343 576 CURVE SMOOTH",
"343 474 LINE",
"352 486 LINE",
"327 527 OFFCURVE",
"284 552 OFFCURVE",
"229 552 CURVE SMOOTH",
"129 552 OFFCURVE",
"60 482 OFFCURVE",
"60 379 CURVE SMOOTH",
"60 162 LINE SMOOTH",
"60 58 OFFCURVE",
"129 -12 OFFCURVE",
"229 -12 CURVE SMOOTH",
"284 -12 OFFCURVE",
"327 13 OFFCURVE",
"352 54 CURVE",
"343 66 LINE",
"343 0 LINE",
"398 0 LINE",
"398 576 LINE SMOOTH",
"398 680 OFFCURVE",
"329 750 OFFCURVE",
"229 750 CURVE SMOOTH"
);
},
{
closed = 1;
nodes = (
"159 43 OFFCURVE",
"115 91 OFFCURVE",
"115 162 CURVE SMOOTH",
"115 379 LINE SMOOTH",
"115 450 OFFCURVE",
"159 497 OFFCURVE",
"229 497 CURVE SMOOTH",
"302 497 OFFCURVE",
"343 450 OFFCURVE",
"343 379 CURVE SMOOTH",
"343 161 LINE SMOOTH",
"343 90 OFFCURVE",
"302 43 OFFCURVE",
"229 43 CURVE SMOOTH"
);
},
{
closed = 1;
nodes = (
"462 639 LINE",
"462 691 LINE",
"237 629 LINE",
"237 577 LINE"
);
}
);
width = 473;
},
{
layerId = "60B18B06-8123-4D0C-85E3-2DE7B5C03586";
paths = (
{
closed = 1;
nodes = (
"196 750 LINE",
"196 665 LINE",
"224 665 LINE SMOOTH",
"254 665 OFFCURVE",
"274 645 OFFCURVE",
"274 615 CURVE SMOOTH",
"274 466 LINE",
"296 495 LINE",
"275 538 OFFCURVE",
"237 563 OFFCURVE",
"181 563 CURVE SMOOTH",
"116 563 OFFCURVE",
"49 529 OFFCURVE",
"49 388 CURVE SMOOTH",
"49 162 LINE SMOOTH",
"49 21 OFFCURVE",
"116 -13 OFFCURVE",
"181 -13 CURVE SMOOTH",
"237 -13 OFFCURVE",
"275 12 OFFCURVE",
"296 55 CURVE",
"274 84 LINE",
"274 0 LINE",
"399 0 LINE",
"399 615 LINE SMOOTH",
"399 696 OFFCURVE",
"349 750 OFFCURVE",
"274 750 CURVE SMOOTH"
);
},
{
closed = 1;
nodes = (
"192 112 OFFCURVE",
"174 132 OFFCURVE",
"174 162 CURVE SMOOTH",
"174 388 LINE SMOOTH",
"174 418 OFFCURVE",
"192 438 OFFCURVE",
"224 438 CURVE SMOOTH",
"256 438 OFFCURVE",
"274 418 OFFCURVE",
"274 388 CURVE SMOOTH",
"274 162 LINE SMOOTH",
"274 132 OFFCURVE",
"256 112 OFFCURVE",
"224 112 CURVE SMOOTH"
);
},
{
closed = 1;
nodes = (
"437 617 LINE",
"437 687 LINE",
"226 632 LINE",
"226 562 LINE"
);
}
);
width = 458;
}
);
leftKerningGroup = o;
rightKerningGroup = o;
unicode = 00F0;
},
{
color = 8;
glyphname = e;
lastChange = "2018-05-02 18:04:59 +0000";
layers = (
{
anchors = (
{
name = bottom;
position = "{218, 0}";
},
{
name = ogonek;
position = "{245, 0}";
},
{
name = top;
position = "{218, 550}";
}
);
layerId = "60B18B06-8123-4D0C-85E3-2DE7B5C03586";
paths = (
{
closed = 1;
nodes = (
"325 -13 OFFCURVE",
"393 61 OFFCURVE",
"393 172 CURVE SMOOTH",
"393 182 LINE",
"268 182 LINE",
"268 162 LINE SMOOTH",
"268 132 OFFCURVE",
"250 112 OFFCURVE",
"218 112 CURVE SMOOTH",
"186 112 OFFCURVE",
"168 132 OFFCURVE",
"168 162 CURVE SMOOTH",
"168 388 LINE SMOOTH",
"168 418 OFFCURVE",
"186 438 OFFCURVE",
"218 438 CURVE SMOOTH",
"250 438 OFFCURVE",
"268 418 OFFCURVE",
"268 388 CURVE SMOOTH",
"268 358 LINE",
"152 358 LINE",
"152 243 LINE",
"393 243 LINE",
"393 378 LINE SMOOTH",
"393 489 OFFCURVE",
"325 563 OFFCURVE",
"218 563 CURVE SMOOTH",
"111 563 OFFCURVE",
"43 489 OFFCURVE",
"43 378 CURVE SMOOTH",
"43 172 LINE SMOOTH",
"43 61 OFFCURVE",
"111 -13 OFFCURVE",
"218 -13 CURVE SMOOTH"
);
}
);
width = 434;
},
{
anchors = (
{
name = bottom;
position = "{230, 0}";
},
{
name = ogonek;
position = "{255, 0}";
},
{
name = top;
position = "{230, 540}";
}
);
hints = (
{
horizontal = 1;
origin = "{0, 33}";
target = "{0, 8}";
},
{
horizontal = 1;
origin = "{0, 21}";
target = "{0, 20}";
},
{
horizontal = 1;
origin = "{0, 26}";
target = "{0, 15}";
}
);
layerId = "DDDB0B36-051A-43AE-9F30-611505482296";
paths = (
{
closed = 1;
nodes = (
"330 -12 OFFCURVE",
"399 58 OFFCURVE",
"399 162 CURVE SMOOTH",
"399 172 LINE",
"344 172 LINE",
"344 162 LINE SMOOTH",
"344 91 OFFCURVE",
"300 43 OFFCURVE",
"230 43 CURVE SMOOTH",
"160 43 OFFCURVE",
"114 91 OFFCURVE",
"114 162 CURVE SMOOTH",
"114 379 LINE SMOOTH",
"114 450 OFFCURVE",
"160 497 OFFCURVE",
"230 497 CURVE SMOOTH",
"300 497 OFFCURVE",
"344 450 OFFCURVE",
"344 379 CURVE SMOOTH",
"344 321 LINE",
"100 321 LINE",
"100 266 LINE",
"399 266 LINE",
"399 379 LINE SMOOTH",
"399 482 OFFCURVE",
"330 552 OFFCURVE",
"230 552 CURVE SMOOTH",
"130 552 OFFCURVE",
"59 482 OFFCURVE",
"59 379 CURVE SMOOTH",
"59 162 LINE SMOOTH",
"59 58 OFFCURVE",
"130 -12 OFFCURVE",
"230 -12 CURVE SMOOTH"
);
}
);
width = 454;
}
);
leftKerningGroup = o;
note = e;
rightKerningGroup = e;
unicode = 0065;
},
{
color = 8;
glyphname = f;
lastChange = "2018-05-02 18:04:59 +0000";
layers = (
{
layerId = "60B18B06-8123-4D0C-85E3-2DE7B5C03586";
paths = (
{
closed = 1;
nodes = (
"225 0 LINE",
"225 435 LINE",
"330 435 LINE",
"330 550 LINE",
"225 550 LINE",
"225 585 LINE SMOOTH",
"225 615 OFFCURVE",
"243 635 OFFCURVE",
"275 635 CURVE SMOOTH",
"330 635 LINE",
"330 760 LINE",
"275 760 LINE SMOOTH",
"168 760 OFFCURVE",
"100 686 OFFCURVE",
"100 585 CURVE SMOOTH",
"100 550 LINE",
"0 550 LINE",
"0 435 LINE",
"100 435 LINE",
"100 0 LINE"
);
}
);
width = 330;
},
{
hints = (
{
horizontal = 1;
origin = "{0, 19}";
target = up;
type = BottomGhost;
},
{
horizontal = 1;
origin = "{0, 16}";
target = "{0, 17}";
},
{
horizontal = 1;
origin = "{0, 11}";
target = "{0, 8}";
}
);
layerId = "DDDB0B36-051A-43AE-9F30-611505482296";
paths = (
{
closed = 1;
nodes = (
"163 0 LINE",
"163 487 LINE",
"311 487 LINE",
"311 540 LINE",
"163 540 LINE",
"163 576 LINE SMOOTH",
"163 653 OFFCURVE",
"209 705 OFFCURVE",
"279 705 CURVE SMOOTH",
"311 705 LINE",
"311 760 LINE",
"279 760 LINE SMOOTH",
"176 760 OFFCURVE",
"108 685 OFFCURVE",
"108 576 CURVE SMOOTH",
"108 540 LINE",
"7 540 LINE",
"7 487 LINE",
"108 487 LINE",
"108 0 LINE"
);
}
);
width = 318;
}
);
leftKerningGroup = f;
note = f;
rightKerningGroup = f;
unicode = 0066;
},
{
color = 8;
glyphname = g;
lastChange = "2018-05-02 18:04:59 +0000";
layers = (
{
anchors = (
{
name = bottom;
position = "{218, -183}";
},
{
name = top;
position = "{218, 550}";
}
);
layerId = "60B18B06-8123-4D0C-85E3-2DE7B5C03586";
paths = (
{
closed = 1;
nodes = (
"324 -183 OFFCURVE",
"393 -110 OFFCURVE",
"393 0 CURVE SMOOTH",
"393 550 LINE",
"268 550 LINE",
"268 466 LINE",
"290 495 LINE",
"269 538 OFFCURVE",
"231 563 OFFCURVE",
"175 563 CURVE SMOOTH",
"110 563 OFFCURVE",
"43 529 OFFCURVE",
"43 388 CURVE SMOOTH",
"43 232 LINE SMOOTH",
"43 91 OFFCURVE",
"110 57 OFFCURVE",
"175 57 CURVE SMOOTH",
"231 57 OFFCURVE",
"269 82 OFFCURVE",
"290 125 CURVE",
"268 154 LINE",
"268 -8 LINE SMOOTH",
"268 -38 OFFCURVE",
"250 -58 OFFCURVE",
"218 -58 CURVE SMOOTH",
"186 -58 OFFCURVE",
"168 -38 OFFCURVE",
"168 -8 CURVE SMOOTH",
"168 24 LINE",
"43 24 LINE",
"43 2 LINE SMOOTH",
"43 -109 OFFCURVE",
"111 -183 OFFCURVE",
"218 -183 CURVE SMOOTH"
);
},
{
closed = 1;
nodes = (
"186 182 OFFCURVE",
"168 202 OFFCURVE",
"168 232 CURVE SMOOTH",
"168 388 LINE SMOOTH",
"168 418 OFFCURVE",
"186 438 OFFCURVE",
"218 438 CURVE SMOOTH",
"250 438 OFFCURVE",
"268 418 OFFCURVE",
"268 388 CURVE SMOOTH",
"268 232 LINE SMOOTH",
"268 202 OFFCURVE",
"250 182 OFFCURVE",
"218 182 CURVE SMOOTH"
);
}
);
width = 452;
},
{
anchors = (
{
name = bottom;
position = "{216, -183}";
},
{
name = top;
position = "{218, 540}";
}
);
hints = (
{
horizontal = 1;
origin = "{0, 33}";
target = "{0, 24}";
},
{
horizontal = 1;
origin = "{0, 16}";
target = "{1, 13}";
},
{
horizontal = 1;
origin = "{0, 4}";
target = "{1, 6}";
},
{
horizontal = 1;
origin = "{0, 9}";
target = "{1, 6}";
}
);
layerId = "DDDB0B36-051A-43AE-9F30-611505482296";
paths = (
{
closed = 1;
nodes = (
"316 -183 OFFCURVE",
"387 -113 OFFCURVE",
"387 -9 CURVE SMOOTH",
"387 540 LINE",
"332 540 LINE",
"332 474 LINE",
"341 486 LINE",
"316 527 OFFCURVE",
"273 552 OFFCURVE",
"218 552 CURVE SMOOTH",
"118 552 OFFCURVE",
"49 482 OFFCURVE",
"49 379 CURVE SMOOTH",
"49 232 LINE SMOOTH",
"49 128 OFFCURVE",
"118 58 OFFCURVE",
"218 58 CURVE SMOOTH",
"273 58 OFFCURVE",
"316 83 OFFCURVE",
"341 124 CURVE",
"332 136 LINE",
"332 -9 LINE SMOOTH",
"332 -80 OFFCURVE",
"286 -128 OFFCURVE",
"216 -128 CURVE SMOOTH",
"146 -128 OFFCURVE",
"102 -80 OFFCURVE",
"102 -9 CURVE SMOOTH",
"102 1 LINE",
"47 1 LINE",
"47 -9 LINE SMOOTH",
"47 -113 OFFCURVE",
"116 -183 OFFCURVE",
"216 -183 CURVE SMOOTH"
);
},
{
closed = 1;
nodes = (
"148 113 OFFCURVE",
"104 161 OFFCURVE",
"104 232 CURVE SMOOTH",
"104 379 LINE SMOOTH",
"104 450 OFFCURVE",
"148 497 OFFCURVE",
"218 497 CURVE SMOOTH",
"291 497 OFFCURVE",
"332 450 OFFCURVE",
"332 379 CURVE SMOOTH",
"332 231 LINE SMOOTH",
"332 160 OFFCURVE",
"291 113 OFFCURVE",
"218 113 CURVE SMOOTH"
);
}
);
width = 462;
}
);
leftKerningGroup = o;
note = g;
rightKerningGroup = g;
rightMetricsKey = "=|n";
unicode = 0067;
},
{
color = 8;
glyphname = h;
lastChange = "2018-05-02 18:04:59 +0000";
layers = (
{
anchors = (
{
name = bottom;
position = "{232, 0}";
},
{
name = center;
position = "{120, 653}";
},
{
name = top;
position = "{120, 750}";
}
);
layerId = "60B18B06-8123-4D0C-85E3-2DE7B5C03586";
paths = (
{
closed = 1;
nodes = (
"184 0 LINE",
"184 388 LINE SMOOTH",
"184 418 OFFCURVE",
"202 438 OFFCURVE",
"234 438 CURVE SMOOTH",
"266 438 OFFCURVE",
"284 418 OFFCURVE",
"284 388 CURVE SMOOTH",
"284 0 LINE",
"409 0 LINE",
"409 418 LINE SMOOTH",
"409 529 OFFCURVE",
"342 563 OFFCURVE",
"277 563 CURVE SMOOTH",
"221 563 OFFCURVE",
"183 538 OFFCURVE",
"162 495 CURVE",
"184 466 LINE",
"184 750 LINE",
"59 750 LINE",
"59 0 LINE"
);
}
);
width = 464;
},
{
anchors = (
{
name = bottom;
position = "{238, 0}";
},
{
name = center;
position = "{102, 652}";
},
{
name = top;
position = "{102, 750}";
}
);
hints = (
{
horizontal = 1;
origin = "{0, 20}";
target = up;
type = BottomGhost;
},
{
horizontal = 1;
origin = "{0, 4}";
target = "{0, 13}";
},
{
horizontal = 1;
origin = "{0, 19}";
target = down;
type = TopGhost;
}
);
layerId = "DDDB0B36-051A-43AE-9F30-611505482296";
paths = (
{
closed = 1;
nodes = (
"130 0 LINE",
"130 380 LINE SMOOTH",
"130 451 OFFCURVE",
"174 498 OFFCURVE",
"241 498 CURVE SMOOTH",
"306 498 OFFCURVE",
"350 451 OFFCURVE",
"350 380 CURVE SMOOTH",
"350 0 LINE",
"405 0 LINE",
"405 380 LINE SMOOTH",
"405 484 OFFCURVE",
"342 553 OFFCURVE",
"247 553 CURVE SMOOTH",
"191 553 OFFCURVE",
"147 528 OFFCURVE",
"121 484 CURVE",
"130 473 LINE",
"130 750 LINE",
"75 750 LINE",
"75 0 LINE"
);
}
);
width = 473;
}
);
leftKerningGroup = h;
note = h;
rightKerningGroup = n;
unicode = 0068;
},
{
color = 8;
glyphname = i;
lastChange = "2018-05-02 18:04:59 +0000";
layers = (
{
layerId = "60B18B06-8123-4D0C-85E3-2DE7B5C03586";
paths = (
{
closed = 1;
nodes = (
"184 0 LINE",
"184 550 LINE",
"59 550 LINE",
"59 0 LINE"
);
},
{
closed = 1;
nodes = (
"184 590 LINE",
"184 720 LINE",
"59 720 LINE",
"59 590 LINE"
);
}
);
width = 243;
},
{
hints = (
{
horizontal = 1;
origin = "{0, 3}";
target = up;
type = BottomGhost;
},
{
horizontal = 1;
origin = "{0, 2}";
target = down;
type = TopGhost;
},
{
horizontal = 1;
origin = "{1, 3}";
target = "{1, 2}";
}
);
layerId = "DDDB0B36-051A-43AE-9F30-611505482296";
paths = (
{
closed = 1;
nodes = (
"130 0 LINE",
"130 540 LINE",
"75 540 LINE",
"75 0 LINE"
);
},
{
closed = 1;
nodes = (
"130 607 LINE",
"130 720 LINE",
"75 720 LINE",
"75 607 LINE"
);
}
);
width = 205;
}
);
leftKerningGroup = i;
note = i;
rightKerningGroup = i;
unicode = 0069;
},
{
glyphname = idotless;
lastChange = "2018-05-02 18:04:59 +0000";
layers = (
{
anchors = (
{
name = bottom;
position = "{103, 0}";
},
{
name = ogonek;
position = "{84, 0}";
},
{
name = top;
position = "{103, 540}";
}
);
hints = (
{
horizontal = 1;
origin = "{0, 3}";
target = up;
type = BottomGhost;
},
{
horizontal = 1;
origin = "{0, 2}";
target = down;
type = TopGhost;
}
);
layerId = "DDDB0B36-051A-43AE-9F30-611505482296";
paths = (
{
closed = 1;
nodes = (
"130 0 LINE",
"130 540 LINE",
"75 540 LINE",
"75 0 LINE"
);
}
);
width = 205;
},
{
anchors = (
{
name = bottom;
position = "{122, 0}";
},
{
name = ogonek;
position = "{102, 0}";
},
{
name = top;
position = "{122, 550}";
}
);
layerId = "60B18B06-8123-4D0C-85E3-2DE7B5C03586";
paths = (
{
closed = 1;
nodes = (
"184 0 LINE",
"184 550 LINE",
"59 550 LINE",
"59 0 LINE"
);
}
);
width = 243;
}
);
leftKerningGroup = i;
rightKerningGroup = i;
unicode = 0131;
},
{
color = 8;
glyphname = j;
lastChange = "2018-05-02 18:04:59 +0000";
layers = (
{
layerId = "60B18B06-8123-4D0C-85E3-2DE7B5C03586";
paths = (
{
closed = 1;
nodes = (
"9 -183 LINE SMOOTH",
"116 -183 OFFCURVE",
"184 -109 OFFCURVE",
"184 2 CURVE SMOOTH",
"184 550 LINE",
"59 550 LINE",
"59 -8 LINE SMOOTH",
"59 -38 OFFCURVE",
"41 -58 OFFCURVE",
"9 -58 CURVE SMOOTH",
"-26 -58 LINE",
"-26 -183 LINE"
);
},
{
closed = 1;
nodes = (
"184 590 LINE",
"184 720 LINE",
"59 720 LINE",
"59 590 LINE"
);
}
);
width = 243;
},
{
hints = (
{
horizontal = 1;
origin = "{0, 11}";
target = "{0, 10}";
},
{
horizontal = 1;
origin = "{0, 5}";
target = down;
type = TopGhost;
},
{
horizontal = 1;
origin = "{1, 3}";
target = "{1, 2}";
}
);
layerId = "DDDB0B36-051A-43AE-9F30-611505482296";
paths = (
{
closed = 1;
nodes = (
"-40 -183 LINE SMOOTH",
"62 -183 OFFCURVE",
"130 -109 OFFCURVE",
"130 2 CURVE SMOOTH",
"130 540 LINE",
"75 540 LINE",
"75 1 LINE SMOOTH",
"75 -76 OFFCURVE",
"29 -128 OFFCURVE",
"-40 -128 CURVE SMOOTH",
"-70 -128 LINE",
"-70 -183 LINE"
);
},
{
closed = 1;
nodes = (
"130 607 LINE",
"130 720 LINE",
"75 720 LINE",
"75 607 LINE"
);
}
);
width = 205;
}
);
leftKerningGroup = j;
note = j;
rightKerningGroup = j;
unicode = 006A;
},
{
glyphname = jdotless;
lastChange = "2018-05-02 18:04:59 +0000";
layers = (
{
anchors = (
{
name = bottom;
position = "{103, 0}";
},
{
name = top;
position = "{103, 540}";
}
);
hints = (
{
horizontal = 1;
origin = "{0, 11}";
target = "{0, 10}";
},
{
horizontal = 1;
origin = "{0, 5}";
target = down;
type = TopGhost;
}
);
layerId = "DDDB0B36-051A-43AE-9F30-611505482296";
paths = (
{
closed = 1;
nodes = (
"-40 -183 LINE SMOOTH",
"62 -183 OFFCURVE",
"130 -109 OFFCURVE",
"130 2 CURVE SMOOTH",
"130 540 LINE",
"75 540 LINE",
"75 1 LINE SMOOTH",
"75 -76 OFFCURVE",
"29 -128 OFFCURVE",
"-40 -128 CURVE SMOOTH",
"-70 -128 LINE",
"-70 -183 LINE"
);
}
);
width = 205;
},
{
anchors = (
{
name = bottom;
position = "{122, 0}";
},
{
name = top;
position = "{122, 550}";
}
);
layerId = "60B18B06-8123-4D0C-85E3-2DE7B5C03586";
paths = (
{
closed = 1;
nodes = (
"9 -183 LINE SMOOTH",
"116 -183 OFFCURVE",
"184 -109 OFFCURVE",
"184 2 CURVE SMOOTH",
"184 550 LINE",
"59 550 LINE",
"59 -8 LINE SMOOTH",
"59 -38 OFFCURVE",
"41 -58 OFFCURVE",
"9 -58 CURVE SMOOTH",
"-26 -58 LINE",
"-26 -183 LINE"
);
}
);
width = 243;
}
);
leftKerningGroup = j;
leftMetricsKey = j;
rightKerningGroup = j;
rightMetricsKey = j;
unicode = 0237;
},
{
color = 8;
glyphname = k;
lastChange = "2018-05-02 18:04:59 +0000";
layers = (
{
anchors = (
{
name = bottom;
position = "{218, 0}";
},
{
name = top;
position = "{218, 550}";
}
);
layerId = "60B18B06-8123-4D0C-85E3-2DE7B5C03586";
paths = (
{
closed = 1;
nodes = (
"450 0 LINE",
"302 384 LINE",
"421 550 LINE",
"291 550 LINE",
"175 389 LINE",
"175 208 LINE",
"220 270 LINE",
"320 0 LINE"
);
},
{
closed = 1;
nodes = (
"184 0 LINE",
"184 750 LINE",
"59 750 LINE",
"59 0 LINE"
);
}
);
width = 446;
},
{
anchors = (
{
name = bottom;
position = "{203, 0}";
},
{
name = top;
position = "{203, 540}";
}
);
hints = (
{
horizontal = 1;
origin = "{1, 3}";
target = up;
type = BottomGhost;
},
{
horizontal = 1;
origin = "{0, 3}";
target = down;
type = TopGhost;
},
{
horizontal = 1;
origin = "{1, 2}";
target = down;
type = TopGhost;
}
);
layerId = "DDDB0B36-051A-43AE-9F30-611505482296";
paths = (
{
closed = 1;
nodes = (
"413 0 LINE",
"223 343 LINE",
"381 541 LINE",
"321 541 LINE",
"120 300 LINE",
"120 213 LINE",
"187 298 LINE",
"353 0 LINE"
);
},
{
closed = 1;
nodes = (
"130 0 LINE",
"130 750 LINE",
"75 750 LINE",
"75 0 LINE"
);
}
);
width = 420;
}
);
leftKerningGroup = h;
note = k;
rightKerningGroup = k;
unicode = 006B;
},
{
glyphname = kgreenlandic;
lastChange = "2018-05-02 18:04:59 +0000";
layers = (
{
hints = (
{
horizontal = 1;
origin = "{1, 3}";
target = up;
type = BottomGhost;
},
{
horizontal = 1;
origin = "{0, 3}";
target = down;
type = TopGhost;
},
{
horizontal = 1;
origin = "{1, 2}";
target = down;
type = TopGhost;
}
);
layerId = "DDDB0B36-051A-43AE-9F30-611505482296";
paths = (
{
closed = 1;
nodes = (
"413 0 LINE",
"188 313 LINE",
"381 541 LINE",
"321 541 LINE",
"129 317 LINE",
"353 0 LINE"
);
},
{
closed = 1;
nodes = (
"130 0 LINE",
"130 540 LINE",
"75 540 LINE",
"75 0 LINE"
);
}
);
width = 418;
},
{
layerId = "60B18B06-8123-4D0C-85E3-2DE7B5C03586";
paths = (
{
closed = 1;
nodes = (
"450 0 LINE",
"302 384 LINE",
"421 550 LINE",
"291 550 LINE",
"175 389 LINE",
"320 0 LINE"
);
},
{
closed = 1;
nodes = (
"184 0 LINE",
"184 550 LINE",
"59 550 LINE",
"59 0 LINE"
);
}
);
width = 446;
}
);
leftKerningGroup = n;
rightKerningGroup = k;
unicode = 0138;
},
{
color = 8;
glyphname = l;
lastChange = "2018-05-02 18:04:59 +0000";
layers = (
{
anchors = (
{
name = bottom;
position = "{122, 0}";
},
{
name = center;
position = "{122, 376}";
},
{
name = top;
position = "{122, 750}";
}
);
layerId = "60B18B06-8123-4D0C-85E3-2DE7B5C03586";
paths = (
{
closed = 1;
nodes = (
"184 0 LINE",
"184 750 LINE",
"59 750 LINE",
"59 0 LINE"
);
}
);
width = 243;
},
{
anchors = (
{
name = bottom;
position = "{103, 0}";
},
{
name = center;
position = "{103, 375}";
},
{
name = top;
position = "{103, 750}";
}
);
hints = (
{
horizontal = 1;
origin = "{0, 3}";
target = up;
type = BottomGhost;
},
{
horizontal = 1;
origin = "{0, 2}";
target = down;
type = TopGhost;
}
);
layerId = "DDDB0B36-051A-43AE-9F30-611505482296";
paths = (
{
closed = 1;
nodes = (
"130 0 LINE",
"130 750 LINE",
"75 750 LINE",
"75 0 LINE"
);
}
);
width = 205;
}
);
leftKerningGroup = l;
note = l;
rightKerningGroup = l;
unicode = 006C;
},
{
color = 8;
glyphname = m;
lastChange = "2018-05-02 18:04:59 +0000";
layers = (
{
layerId = "60B18B06-8123-4D0C-85E3-2DE7B5C03586";
paths = (
{
closed = 1;
nodes = (
"184 0 LINE",
"184 388 LINE SMOOTH",
"184 418 OFFCURVE",
"202 438 OFFCURVE",
"234 438 CURVE SMOOTH",
"266 438 OFFCURVE",
"284 418 OFFCURVE",
"284 388 CURVE SMOOTH",
"284 0 LINE",
"409 0 LINE",
"409 388 LINE SMOOTH",
"409 418 OFFCURVE",
"427 438 OFFCURVE",
"459 438 CURVE SMOOTH",
"491 438 OFFCURVE",
"509 418 OFFCURVE",
"509 388 CURVE SMOOTH",
"509 0 LINE",
"634 0 LINE",
"634 418 LINE SMOOTH",
"634 529 OFFCURVE",
"567 563 OFFCURVE",
"502 563 CURVE SMOOTH",
"433 563 OFFCURVE",
"393 526 OFFCURVE",
"375 464 CURVE",
"408 456 LINE",
"393 536 OFFCURVE",
"334 563 OFFCURVE",
"277 563 CURVE SMOOTH",
"221 563 OFFCURVE",
"183 538 OFFCURVE",
"162 495 CURVE",
"184 466 LINE",
"184 550 LINE",
"59 550 LINE",
"59 0 LINE"
);
}
);
width = 689;
},
{
hints = (
{
horizontal = 1;
origin = "{0, 36}";
target = up;
type = BottomGhost;
},
{
horizontal = 1;
origin = "{0, 29}";
target = "{0, 4}";
},
{
horizontal = 1;
origin = "{0, 35}";
target = "{0, 4}";
}
);
layerId = "DDDB0B36-051A-43AE-9F30-611505482296";
paths = (
{
closed = 1;
nodes = (
"130 0 LINE",
"130 379 LINE SMOOTH",
"130 450 OFFCURVE",
"174 497 OFFCURVE",
"241 497 CURVE SMOOTH",
"306 497 OFFCURVE",
"350 450 OFFCURVE",
"350 379 CURVE SMOOTH",
"350 0 LINE",
"405 0 LINE",
"405 379 LINE SMOOTH",
"405 450 OFFCURVE",
"449 497 OFFCURVE",
"516 497 CURVE SMOOTH",
"581 497 OFFCURVE",
"625 450 OFFCURVE",
"625 379 CURVE SMOOTH",
"625 0 LINE",
"680 0 LINE",
"680 379 LINE SMOOTH",
"680 483 OFFCURVE",
"617 552 OFFCURVE",
"522 552 CURVE SMOOTH",
"453 552 OFFCURVE",
"402 513 OFFCURVE",
"381 451 CURVE",
"393 451 LINE",
"371 514 OFFCURVE",
"318 552 OFFCURVE",
"247 552 CURVE SMOOTH",
"191 552 OFFCURVE",
"147 527 OFFCURVE",
"121 483 CURVE",
"130 472 LINE",
"130 540 LINE",
"75 540 LINE",
"75 0 LINE"
);
}
);
width = 748;
}
);
leftKerningGroup = n;
note = m;
rightKerningGroup = n;
unicode = 006D;
},
{
color = 8;
glyphname = n;
lastChange = "2018-05-02 18:04:59 +0000";
layers = (
{
anchors = (
{
name = bottom;
position = "{234, 0}";
},
{
name = top;
position = "{234, 550}";
}
);
layerId = "60B18B06-8123-4D0C-85E3-2DE7B5C03586";
paths = (
{
closed = 1;
nodes = (
"184 0 LINE",
"184 388 LINE SMOOTH",
"184 418 OFFCURVE",
"202 438 OFFCURVE",
"234 438 CURVE SMOOTH",
"266 438 OFFCURVE",
"284 418 OFFCURVE",
"284 388 CURVE SMOOTH",
"284 0 LINE",
"409 0 LINE",
"409 388 LINE SMOOTH",
"409 498 OFFCURVE",
"360 563 OFFCURVE",
"277 563 CURVE SMOOTH",
"224 563 OFFCURVE",
"183 538 OFFCURVE",
"161 488 CURVE",
"184 463 LINE",
"184 550 LINE",
"59 550 LINE",
"59 0 LINE"
);
}
);
width = 462;
},
{
anchors = (
{
name = bottom;
position = "{240, 0}";
},
{
name = top;
position = "{240, 540}";
}
);
hints = (
{
horizontal = 1;
origin = "{0, 20}";
target = up;
type = BottomGhost;
},
{
horizontal = 1;
origin = "{0, 13}";
target = "{0, 4}";
},
{
horizontal = 1;
origin = "{0, 19}";
target = "{0, 4}";
}
);
layerId = "DDDB0B36-051A-43AE-9F30-611505482296";
paths = (
{
closed = 1;
nodes = (
"130 0 LINE",
"130 379 LINE SMOOTH",
"130 450 OFFCURVE",
"174 497 OFFCURVE",
"241 497 CURVE SMOOTH",
"306 497 OFFCURVE",
"350 450 OFFCURVE",
"350 379 CURVE SMOOTH",
"350 0 LINE",
"405 0 LINE",
"405 379 LINE SMOOTH",
"405 483 OFFCURVE",
"342 552 OFFCURVE",
"247 552 CURVE SMOOTH",
"191 552 OFFCURVE",
"147 527 OFFCURVE",
"121 483 CURVE",
"130 472 LINE",
"130 540 LINE",
"75 540 LINE",
"75 0 LINE"
);
}
);
width = 473;
}
);
leftKerningGroup = n;
note = n;
rightKerningGroup = n;
unicode = 006E;
},
{
color = 8;
glyphname = o;
lastChange = "2018-05-02 18:04:59 +0000";
layers = (
{
anchors = (
{
name = bottom;
position = "{218, 0}";
},
{
name = center;
position = "{218, 275}";
},
{
name = ogonek;
position = "{250, 0}";
},
{
name = top;
position = "{218, 550}";
}
);
layerId = "60B18B06-8123-4D0C-85E3-2DE7B5C03586";
paths = (
{
closed = 1;
nodes = (
"325 -13 OFFCURVE",
"393 61 OFFCURVE",
"393 172 CURVE SMOOTH",
"393 378 LINE SMOOTH",
"393 489 OFFCURVE",
"325 563 OFFCURVE",
"218 563 CURVE SMOOTH",
"111 563 OFFCURVE",
"43 489 OFFCURVE",
"43 378 CURVE SMOOTH",
"43 172 LINE SMOOTH",
"43 61 OFFCURVE",
"111 -13 OFFCURVE",
"218 -13 CURVE SMOOTH"
);
},
{
closed = 1;
nodes = (
"186 112 OFFCURVE",
"168 132 OFFCURVE",
"168 162 CURVE SMOOTH",
"168 388 LINE SMOOTH",
"168 418 OFFCURVE",
"186 438 OFFCURVE",
"218 438 CURVE SMOOTH",
"250 438 OFFCURVE",
"268 418 OFFCURVE",
"268 388 CURVE SMOOTH",
"268 162 LINE SMOOTH",
"268 132 OFFCURVE",
"250 112 OFFCURVE",
"218 112 CURVE SMOOTH"
);
}
);
width = 436;
},
{
anchors = (
{
name = bottom;
position = "{230, 0}";
},
{
name = center;
position = "{230, 270}";
},
{
name = ogonek;
position = "{268, 0}";
},
{
name = top;
position = "{230, 540}";
}
);
hints = (
{
horizontal = 1;
origin = "{0, 13}";
target = "{1, 13}";
},
{
horizontal = 1;
origin = "{0, 6}";
target = "{1, 6}";
}
);
layerId = "DDDB0B36-051A-43AE-9F30-611505482296";
paths = (
{
closed = 1;
nodes = (
"330 -12 OFFCURVE",
"399 58 OFFCURVE",
"399 162 CURVE SMOOTH",
"399 379 LINE SMOOTH",
"399 482 OFFCURVE",
"330 552 OFFCURVE",
"230 552 CURVE SMOOTH",
"130 552 OFFCURVE",
"59 482 OFFCURVE",
"59 379 CURVE SMOOTH",
"59 162 LINE SMOOTH",
"59 58 OFFCURVE",
"130 -12 OFFCURVE",
"230 -12 CURVE SMOOTH"
);
},
{
closed = 1;
nodes = (
"160 43 OFFCURVE",
"114 91 OFFCURVE",
"114 162 CURVE SMOOTH",
"114 379 LINE SMOOTH",
"114 450 OFFCURVE",
"160 497 OFFCURVE",
"230 497 CURVE SMOOTH",
"300 497 OFFCURVE",
"344 450 OFFCURVE",
"344 379 CURVE SMOOTH",
"344 162 LINE SMOOTH",
"344 91 OFFCURVE",
"300 43 OFFCURVE",
"230 43 CURVE SMOOTH"
);
}
);
width = 459;
}
);
leftKerningGroup = o;
note = o;
rightKerningGroup = o;
unicode = 006F;
},
{
glyphname = oe;
lastChange = "2018-05-02 18:04:59 +0000";
layers = (
{
hints = (
{
horizontal = 1;
origin = "{0, 38}";
target = "{1, 13}";
},
{
horizontal = 1;
origin = "{0, 19}";
target = "{2, 8}";
},
{
horizontal = 1;
origin = "{0, 31}";
target = "{1, 6}";
}
);
layerId = "DDDB0B36-051A-43AE-9F30-611505482296";
paths = (
{
closed = 1;
nodes = (
"298 -12 OFFCURVE",
"353 21 OFFCURVE",
"380 75 CURVE",
"364 75 LINE",
"391 21 OFFCURVE",
"447 -12 OFFCURVE",
"515 -12 CURVE SMOOTH",
"615 -12 OFFCURVE",
"684 58 OFFCURVE",
"684 162 CURVE SMOOTH",
"684 172 LINE",
"629 172 LINE",
"629 162 LINE SMOOTH",
"629 91 OFFCURVE",
"585 43 OFFCURVE",
"515 43 CURVE SMOOTH",
"445 43 OFFCURVE",
"399 91 OFFCURVE",
"399 162 CURVE SMOOTH",
"399 266 LINE",
"684 266 LINE",
"684 379 LINE SMOOTH",
"684 482 OFFCURVE",
"615 552 OFFCURVE",
"515 552 CURVE SMOOTH",
"447 552 OFFCURVE",
"391 519 OFFCURVE",
"364 465 CURVE",
"380 465 LINE",
"353 519 OFFCURVE",
"298 552 OFFCURVE",
"230 552 CURVE SMOOTH",
"130 552 OFFCURVE",
"59 482 OFFCURVE",
"59 379 CURVE SMOOTH",
"59 162 LINE SMOOTH",
"59 58 OFFCURVE",
"130 -12 OFFCURVE",
"230 -12 CURVE SMOOTH"
);
},
{
closed = 1;
nodes = (
"160 43 OFFCURVE",
"114 91 OFFCURVE",
"114 162 CURVE SMOOTH",
"114 379 LINE SMOOTH",
"114 450 OFFCURVE",
"160 497 OFFCURVE",
"230 497 CURVE SMOOTH",
"300 497 OFFCURVE",
"344 450 OFFCURVE",
"344 379 CURVE SMOOTH",
"344 162 LINE SMOOTH",
"344 91 OFFCURVE",
"300 43 OFFCURVE",
"230 43 CURVE SMOOTH"
);
},
{
closed = 1;
nodes = (
"399 379 LINE SMOOTH",
"399 450 OFFCURVE",
"445 497 OFFCURVE",
"515 497 CURVE SMOOTH",
"585 497 OFFCURVE",
"629 450 OFFCURVE",
"629 379 CURVE SMOOTH",
"629 321 LINE",
"399 321 LINE"
);
}
);
width = 739;
},
{
layerId = "60B18B06-8123-4D0C-85E3-2DE7B5C03586";
paths = (
{
closed = 1;
nodes = (
"278 -13 OFFCURVE",
"326 10 OFFCURVE",
"358 52 CURVE",
"305 52 LINE",
"335 10 OFFCURVE",
"383 -13 OFFCURVE",
"443 -13 CURVE SMOOTH",
"550 -13 OFFCURVE",
"618 61 OFFCURVE",
"618 172 CURVE SMOOTH",
"618 182 LINE",
"493 182 LINE",
"493 162 LINE SMOOTH",
"493 132 OFFCURVE",
"475 112 OFFCURVE",
"443 112 CURVE SMOOTH",
"411 112 OFFCURVE",
"393 132 OFFCURVE",
"393 162 CURVE SMOOTH",
"393 243 LINE",
"618 243 LINE",
"618 378 LINE SMOOTH",
"618 489 OFFCURVE",
"550 563 OFFCURVE",
"443 563 CURVE SMOOTH",
"383 563 OFFCURVE",
"335 540 OFFCURVE",
"305 498 CURVE",
"358 498 LINE",
"326 540 OFFCURVE",
"278 563 OFFCURVE",
"218 563 CURVE SMOOTH",
"111 563 OFFCURVE",
"43 489 OFFCURVE",
"43 378 CURVE SMOOTH",
"43 172 LINE SMOOTH",
"43 61 OFFCURVE",
"111 -13 OFFCURVE",
"218 -13 CURVE SMOOTH"
);
},
{
closed = 1;
nodes = (
"186 112 OFFCURVE",
"168 132 OFFCURVE",
"168 162 CURVE SMOOTH",
"168 388 LINE SMOOTH",
"168 418 OFFCURVE",
"186 438 OFFCURVE",
"218 438 CURVE SMOOTH",
"250 438 OFFCURVE",
"268 418 OFFCURVE",
"268 388 CURVE SMOOTH",
"268 162 LINE SMOOTH",
"268 132 OFFCURVE",
"250 112 OFFCURVE",
"218 112 CURVE SMOOTH"
);
},
{
closed = 1;
nodes = (
"393 388 LINE SMOOTH",
"393 418 OFFCURVE",
"411 438 OFFCURVE",
"443 438 CURVE SMOOTH",
"475 438 OFFCURVE",
"493 418 OFFCURVE",
"493 388 CURVE SMOOTH",
"493 358 LINE",
"393 358 LINE"
);
}
);
width = 659;
}
);
leftKerningGroup = o;
leftMetricsKey = o;
rightKerningGroup = e;
rightMetricsKey = e;
unicode = 0153;
},
{
color = 8;
glyphname = p;
lastChange = "2018-05-02 18:04:59 +0000";
layers = (
{
anchors = (
{
name = bottom;
position = "{234, 0}";
},
{
name = top;
position = "{234, 550}";
}
);
layerId = "60B18B06-8123-4D0C-85E3-2DE7B5C03586";
paths = (
{
closed = 1;
nodes = (
"184 -180 LINE",
"184 84 LINE",
"162 55 LINE",
"183 12 OFFCURVE",
"221 -13 OFFCURVE",
"277 -13 CURVE SMOOTH",
"342 -13 OFFCURVE",
"409 21 OFFCURVE",
"409 162 CURVE SMOOTH",
"409 388 LINE SMOOTH",
"409 529 OFFCURVE",
"342 563 OFFCURVE",
"277 563 CURVE SMOOTH",
"221 563 OFFCURVE",
"183 538 OFFCURVE",
"162 495 CURVE",
"184 466 LINE",
"184 550 LINE",
"59 550 LINE",
"59 -180 LINE"
);
},
{
closed = 1;
nodes = (
"202 112 OFFCURVE",
"184 132 OFFCURVE",
"184 162 CURVE SMOOTH",
"184 388 LINE SMOOTH",
"184 418 OFFCURVE",
"202 438 OFFCURVE",
"234 438 CURVE SMOOTH",
"266 438 OFFCURVE",
"284 418 OFFCURVE",
"284 388 CURVE SMOOTH",
"284 162 LINE SMOOTH",
"284 132 OFFCURVE",
"266 112 OFFCURVE",
"234 112 CURVE SMOOTH"
);
}
);
width = 458;
},
{
anchors = (
{
name = bottom;
position = "{244, 0}";
},
{
name = top;
position = "{244, 540}";
}
);
hints = (
{
horizontal = 1;
origin = "{0, 5}";
target = "{1, 13}";
},
{
horizontal = 1;
origin = "{0, 12}";
target = "{1, 6}";
},
{
horizontal = 1;
origin = "{0, 18}";
target = "{1, 6}";
}
);
layerId = "DDDB0B36-051A-43AE-9F30-611505482296";
paths = (
{
closed = 1;
nodes = (
"130 -180 LINE",
"130 66 LINE",
"121 54 LINE",
"146 13 OFFCURVE",
"189 -12 OFFCURVE",
"244 -12 CURVE SMOOTH",
"344 -12 OFFCURVE",
"413 58 OFFCURVE",
"413 162 CURVE SMOOTH",
"413 379 LINE SMOOTH",
"413 482 OFFCURVE",
"344 552 OFFCURVE",
"244 552 CURVE SMOOTH",
"189 552 OFFCURVE",
"146 527 OFFCURVE",
"121 486 CURVE",
"130 474 LINE",
"130 540 LINE",
"75 540 LINE",
"75 -180 LINE"
);
},
{
closed = 1;
nodes = (
"171 43 OFFCURVE",
"130 90 OFFCURVE",
"130 161 CURVE SMOOTH",
"130 379 LINE SMOOTH",
"130 450 OFFCURVE",
"171 497 OFFCURVE",
"244 497 CURVE SMOOTH",
"314 497 OFFCURVE",
"358 450 OFFCURVE",
"358 379 CURVE SMOOTH",
"358 162 LINE SMOOTH",
"358 91 OFFCURVE",
"314 43 OFFCURVE",
"244 43 CURVE SMOOTH"
);
}
);
width = 472;
}
);
leftKerningGroup = n;
note = p;
rightKerningGroup = o;
unicode = 0070;
},
{
glyphname = thorn;
lastChange = "2018-05-02 18:04:59 +0000";
layers = (
{
anchors = (
{
name = bottom;
position = "{244, 0}";
},
{
name = top;
position = "{244, 540}";
}
);
hints = (
{
horizontal = 1;
origin = "{0, 5}";
target = "{1, 13}";
},
{
horizontal = 1;
origin = "{0, 12}";
target = "{1, 6}";
},
{
horizontal = 1;
origin = "{0, 18}";
target = down;
type = TopGhost;
}
);
layerId = "DDDB0B36-051A-43AE-9F30-611505482296";
paths = (
{
closed = 1;
nodes = (
"130 -180 LINE",
"130 66 LINE",
"121 54 LINE",
"146 13 OFFCURVE",
"189 -12 OFFCURVE",
"244 -12 CURVE SMOOTH",
"344 -12 OFFCURVE",
"413 58 OFFCURVE",
"413 162 CURVE SMOOTH",
"413 379 LINE SMOOTH",
"413 482 OFFCURVE",
"344 552 OFFCURVE",
"244 552 CURVE SMOOTH",
"189 552 OFFCURVE",
"146 527 OFFCURVE",
"121 486 CURVE",
"130 474 LINE",
"130 750 LINE",
"75 750 LINE",
"75 -180 LINE"
);
},
{
closed = 1;
nodes = (
"171 43 OFFCURVE",
"130 90 OFFCURVE",
"130 161 CURVE SMOOTH",
"130 379 LINE SMOOTH",
"130 450 OFFCURVE",
"171 497 OFFCURVE",
"244 497 CURVE SMOOTH",
"314 497 OFFCURVE",
"358 450 OFFCURVE",
"358 379 CURVE SMOOTH",
"358 162 LINE SMOOTH",
"358 91 OFFCURVE",
"314 43 OFFCURVE",
"244 43 CURVE SMOOTH"
);
}
);
width = 472;
},
{
anchors = (
{
name = bottom;
position = "{234, 0}";
},
{
name = top;
position = "{234, 550}";
}
);
layerId = "60B18B06-8123-4D0C-85E3-2DE7B5C03586";
paths = (
{
closed = 1;
nodes = (
"184 -180 LINE",
"184 84 LINE",
"162 55 LINE",
"183 12 OFFCURVE",
"221 -13 OFFCURVE",
"277 -13 CURVE SMOOTH",
"342 -13 OFFCURVE",
"409 21 OFFCURVE",
"409 162 CURVE SMOOTH",
"409 388 LINE SMOOTH",
"409 529 OFFCURVE",
"342 563 OFFCURVE",
"277 563 CURVE SMOOTH",
"221 563 OFFCURVE",
"183 538 OFFCURVE",
"162 495 CURVE",
"184 466 LINE",
"184 750 LINE",
"59 750 LINE",
"59 -180 LINE"
);
},
{
closed = 1;
nodes = (
"202 112 OFFCURVE",
"184 132 OFFCURVE",
"184 162 CURVE SMOOTH",
"184 388 LINE SMOOTH",
"184 418 OFFCURVE",
"202 438 OFFCURVE",
"234 438 CURVE SMOOTH",
"266 438 OFFCURVE",
"284 418 OFFCURVE",
"284 388 CURVE SMOOTH",
"284 162 LINE SMOOTH",
"284 132 OFFCURVE",
"266 112 OFFCURVE",
"234 112 CURVE SMOOTH"
);
}
);
width = 458;
}
);
leftKerningGroup = h;
rightKerningGroup = o;
unicode = 00FE;
},
{
color = 8;
glyphname = q;
lastChange = "2018-05-02 18:04:59 +0000";
layers = (
{
layerId = "60B18B06-8123-4D0C-85E3-2DE7B5C03586";
paths = (
{
closed = 1;
nodes = (
"399 -170 LINE",
"399 550 LINE",
"274 550 LINE",
"274 466 LINE",
"296 495 LINE",
"275 538 OFFCURVE",
"237 563 OFFCURVE",
"181 563 CURVE SMOOTH",
"116 563 OFFCURVE",
"49 529 OFFCURVE",
"49 388 CURVE SMOOTH",
"49 162 LINE SMOOTH",
"49 21 OFFCURVE",
"116 -13 OFFCURVE",
"181 -13 CURVE SMOOTH",
"237 -13 OFFCURVE",
"275 12 OFFCURVE",
"296 55 CURVE",
"274 84 LINE",
"274 -170 LINE"
);
},
{
closed = 1;
nodes = (
"192 112 OFFCURVE",
"174 132 OFFCURVE",
"174 162 CURVE SMOOTH",
"174 388 LINE SMOOTH",
"174 418 OFFCURVE",
"192 438 OFFCURVE",
"224 438 CURVE SMOOTH",
"256 438 OFFCURVE",
"274 418 OFFCURVE",
"274 388 CURVE SMOOTH",
"274 162 LINE SMOOTH",
"274 132 OFFCURVE",
"256 112 OFFCURVE",
"224 112 CURVE SMOOTH"
);
}
);
width = 458;
},
{
hints = (
{
horizontal = 1;
origin = "{0, 14}";
target = "{1, 13}";
},
{
horizontal = 1;
origin = "{0, 2}";
target = "{1, 6}";
},
{
horizontal = 1;
origin = "{0, 7}";
target = "{1, 6}";
}
);
layerId = "DDDB0B36-051A-43AE-9F30-611505482296";
paths = (
{
closed = 1;
nodes = (
"397 -180 LINE",
"397 540 LINE",
"342 540 LINE",
"342 474 LINE",
"351 486 LINE",
"326 527 OFFCURVE",
"283 552 OFFCURVE",
"228 552 CURVE SMOOTH",
"128 552 OFFCURVE",
"59 482 OFFCURVE",
"59 379 CURVE SMOOTH",
"59 162 LINE SMOOTH",
"59 58 OFFCURVE",
"128 -12 OFFCURVE",
"228 -12 CURVE SMOOTH",
"283 -12 OFFCURVE",
"326 13 OFFCURVE",
"351 54 CURVE",
"342 66 LINE",
"342 -180 LINE"
);
},
{
closed = 1;
nodes = (
"158 43 OFFCURVE",
"114 91 OFFCURVE",
"114 162 CURVE SMOOTH",
"114 379 LINE SMOOTH",
"114 450 OFFCURVE",
"158 497 OFFCURVE",
"228 497 CURVE SMOOTH",
"301 497 OFFCURVE",
"342 450 OFFCURVE",
"342 379 CURVE SMOOTH",
"342 161 LINE SMOOTH",
"342 90 OFFCURVE",
"301 43 OFFCURVE",
"228 43 CURVE SMOOTH"
);
}
);
width = 472;
}
);
leftKerningGroup = o;
note = q;
rightKerningGroup = u;
unicode = 0071;
},
{
color = 8;
glyphname = r;
lastChange = "2018-05-02 18:04:59 +0000";
layers = (
{
anchors = (
{
name = bottom;
position = "{121, 0}";
},
{
name = top;
position = "{184, 550}";
}
);
layerId = "60B18B06-8123-4D0C-85E3-2DE7B5C03586";
paths = (
{
closed = 1;
nodes = (
"184 0 LINE",
"184 388 LINE SMOOTH",
"184 418 OFFCURVE",
"202 432 OFFCURVE",
"234 432 CURVE SMOOTH",
"302 432 LINE",
"302 557 LINE",
"277 557 LINE SMOOTH",
"224 557 OFFCURVE",
"183 534 OFFCURVE",
"161 487 CURVE",
"184 460 LINE",
"184 550 LINE",
"59 550 LINE",
"59 0 LINE"
);
}
);
width = 302;
},
{
anchors = (
{
name = bottom;
position = "{102, 0}";
},
{
name = top;
position = "{173, 540}";
}
);
hints = (
{
horizontal = 1;
origin = "{0, 14}";
target = up;
type = BottomGhost;
},
{
horizontal = 1;
origin = "{0, 7}";
target = "{0, 4}";
},
{
horizontal = 1;
origin = "{0, 13}";
target = down;
type = TopGhost;
}
);
layerId = "DDDB0B36-051A-43AE-9F30-611505482296";
paths = (
{
closed = 1;
nodes = (
"130 0 LINE",
"130 373 LINE SMOOTH",
"130 444 OFFCURVE",
"174 491 OFFCURVE",
"241 491 CURVE SMOOTH",
"270 491 LINE",
"270 546 LINE",
"247 546 LINE SMOOTH",
"191 546 OFFCURVE",
"147 521 OFFCURVE",
"121 477 CURVE",
"130 466 LINE",
"130 540 LINE",
"75 540 LINE",
"75 0 LINE"
);
}
);
width = 276;
}
);
leftKerningGroup = n;
note = r;
rightKerningGroup = r;
unicode = 0072;
},
{
color = 8;
glyphname = s;
lastChange = "2018-05-02 18:04:59 +0000";
layers = (
{
anchors = (
{
name = bottom;
position = "{210, 0}";
},
{
name = top;
position = "{210, 550}";
}
);
layerId = "60B18B06-8123-4D0C-85E3-2DE7B5C03586";
paths = (
{
closed = 1;
nodes = (
"317 -13 OFFCURVE",
"385 59 OFFCURVE",
"385 163 CURVE SMOOTH",
"385 264 OFFCURVE",
"317 333 OFFCURVE",
"210 333 CURVE SMOOTH",
"178 333 OFFCURVE",
"160 358 OFFCURVE",
"160 388 CURVE SMOOTH",
"160 416 OFFCURVE",
"178 438 OFFCURVE",
"210 438 CURVE SMOOTH",
"242 438 OFFCURVE",
"260 418 OFFCURVE",
"260 388 CURVE SMOOTH",
"260 368 LINE",
"385 368 LINE",
"385 378 LINE SMOOTH",
"385 489 OFFCURVE",
"317 563 OFFCURVE",
"210 563 CURVE SMOOTH",
"103 563 OFFCURVE",
"35 492 OFFCURVE",
"35 388 CURVE SMOOTH",
"35 287 OFFCURVE",
"103 218 OFFCURVE",
"210 218 CURVE SMOOTH",
"242 218 OFFCURVE",
"260 193 OFFCURVE",
"260 163 CURVE SMOOTH",
"260 135 OFFCURVE",
"242 112 OFFCURVE",
"210 112 CURVE SMOOTH",
"178 112 OFFCURVE",
"160 132 OFFCURVE",
"160 162 CURVE SMOOTH",
"160 182 LINE",
"35 182 LINE",
"35 172 LINE SMOOTH",
"35 61 OFFCURVE",
"103 -13 OFFCURVE",
"210 -13 CURVE SMOOTH"
);
}
);
width = 419;
},
{
anchors = (
{
name = bottom;
position = "{213, 0}";
},
{
name = top;
position = "{213, 540}";
}
);
hints = (
{
horizontal = 1;
origin = "{0, 41}";
target = "{0, 32}";
},
{
horizontal = 1;
origin = "{0, 26}";
target = "{0, 5}";
},
{
horizontal = 1;
origin = "{0, 20}";
target = "{0, 11}";
}
);
layerId = "DDDB0B36-051A-43AE-9F30-611505482296";
paths = (
{
closed = 1;
nodes = (
"314 -12 OFFCURVE",
"378 50 OFFCURVE",
"378 143 CURVE SMOOTH",
"378 235 OFFCURVE",
"312 297 OFFCURVE",
"214 297 CURVE SMOOTH",
"147 297 OFFCURVE",
"103 336 OFFCURVE",
"103 397 CURVE SMOOTH",
"103 457 OFFCURVE",
"147 497 OFFCURVE",
"214 497 CURVE SMOOTH",
"279 497 OFFCURVE",
"323 458 OFFCURVE",
"323 397 CURVE SMOOTH",
"323 378 LINE",
"378 378 LINE",
"378 397 LINE SMOOTH",
"378 490 OFFCURVE",
"312 552 OFFCURVE",
"214 552 CURVE SMOOTH",
"114 552 OFFCURVE",
"48 490 OFFCURVE",
"48 397 CURVE SMOOTH",
"48 304 OFFCURVE",
"114 243 OFFCURVE",
"214 243 CURVE SMOOTH",
"279 243 OFFCURVE",
"323 203 OFFCURVE",
"323 143 CURVE SMOOTH",
"323 83 OFFCURVE",
"281 43 OFFCURVE",
"217 43 CURVE SMOOTH",
"149 43 OFFCURVE",
"103 83 OFFCURVE",
"103 143 CURVE SMOOTH",
"103 164 LINE",
"48 164 LINE",
"48 144 LINE SMOOTH",
"48 50 OFFCURVE",
"116 -12 OFFCURVE",
"217 -12 CURVE SMOOTH"
);
}
);
width = 426;
}
);
leftKerningGroup = s;
note = s;
rightKerningGroup = s;
unicode = 0073;
},
{
glyphname = germandbls;
lastChange = "2018-05-02 18:04:59 +0000";
layers = (
{
hints = (
{
horizontal = 1;
origin = "{0, 23}";
target = "{0, 22}";
},
{
horizontal = 1;
origin = "{0, 13}";
target = "{0, 12}";
},
{
horizontal = 1;
origin = "{0, 39}";
target = "{0, 4}";
}
);
layerId = "DDDB0B36-051A-43AE-9F30-611505482296";
paths = (
{
closed = 1;
nodes = (
"130 -120 LINE",
"130 581 LINE SMOOTH",
"130 659 OFFCURVE",
"178 711 OFFCURVE",
"250 711 CURVE SMOOTH",
"322 711 OFFCURVE",
"370 659 OFFCURVE",
"370 581 CURVE SMOOTH",
"370 530 LINE SMOOTH",
"370 464 OFFCURVE",
"330 420 OFFCURVE",
"270 420 CURVE SMOOTH",
"218 420 LINE",
"218 365 LINE",
"280 365 LINE SMOOTH",
"340 365 OFFCURVE",
"380 321 OFFCURVE",
"380 255 CURVE SMOOTH",
"380 165 LINE SMOOTH",
"380 99 OFFCURVE",
"340 55 OFFCURVE",
"280 55 CURVE SMOOTH",
"218 55 LINE",
"218 0 LINE",
"280 0 LINE SMOOTH",
"373 0 OFFCURVE",
"435 66 OFFCURVE",
"435 165 CURVE SMOOTH",
"435 255 LINE SMOOTH",
"435 324 OFFCURVE",
"403 378 OFFCURVE",
"354 404 CURVE",
"355 387 LINE",
"398 415 OFFCURVE",
"425 466 OFFCURVE",
"425 530 CURVE SMOOTH",
"425 581 LINE SMOOTH",
"425 692 OFFCURVE",
"355 766 OFFCURVE",
"250 766 CURVE SMOOTH",
"145 766 OFFCURVE",
"75 692 OFFCURVE",
"75 581 CURVE SMOOTH",
"75 -120 LINE"
);
}
);
width = 490;
},
{
layerId = "60B18B06-8123-4D0C-85E3-2DE7B5C03586";
paths = (
{
closed = 1;
nodes = (
"194 -120 LINE",
"194 571 LINE SMOOTH",
"194 607 OFFCURVE",
"218 631 OFFCURVE",
"254 631 CURVE SMOOTH",
"290 631 OFFCURVE",
"314 607 OFFCURVE",
"314 571 CURVE SMOOTH",
"314 485 LINE SMOOTH",
"314 455 OFFCURVE",
"296 435 OFFCURVE",
"264 435 CURVE SMOOTH",
"244 435 LINE",
"244 300 LINE",
"274 300 LINE SMOOTH",
"306 300 OFFCURVE",
"324 280 OFFCURVE",
"324 250 CURVE SMOOTH",
"324 170 LINE SMOOTH",
"324 140 OFFCURVE",
"306 120 OFFCURVE",
"274 120 CURVE SMOOTH",
"242 120 LINE",
"242 -15 LINE",
"274 -15 LINE SMOOTH",
"387 -15 OFFCURVE",
"459 59 OFFCURVE",
"459 170 CURVE SMOOTH",
"459 250 LINE SMOOTH",
"459 315 OFFCURVE",
"433 367 OFFCURVE",
"391 400 CURVE",
"394 346 LINE",
"429 378 OFFCURVE",
"449 427 OFFCURVE",
"449 485 CURVE SMOOTH",
"449 571 LINE SMOOTH",
"449 688 OFFCURVE",
"371 766 OFFCURVE",
"254 766 CURVE SMOOTH",
"137 766 OFFCURVE",
"59 688 OFFCURVE",
"59 571 CURVE SMOOTH",
"59 -120 LINE"
);
}
);
width = 502;
}
);
leftKerningGroup = I;
rightKerningGroup = B;
unicode = 00DF;
},
{
glyphname = longs;
lastChange = "2018-05-02 18:04:59 +0000";
layers = (
{
hints = (
{
horizontal = 1;
origin = "{0, 15}";
target = up;
type = BottomGhost;
},
{
horizontal = 1;
origin = "{0, 12}";
target = "{0, 13}";
},
{
horizontal = 1;
origin = "{0, 7}";
target = "{0, 4}";
}
);
layerId = "DDDB0B36-051A-43AE-9F30-611505482296";
paths = (
{
closed = 1;
nodes = (
"163 0 LINE",
"163 576 LINE SMOOTH",
"163 653 OFFCURVE",
"209 705 OFFCURVE",
"279 705 CURVE SMOOTH",
"311 705 LINE",
"311 760 LINE",
"279 760 LINE SMOOTH",
"176 760 OFFCURVE",
"108 685 OFFCURVE",
"108 576 CURVE SMOOTH",
"108 540 LINE",
"7 540 LINE",
"7 487 LINE",
"108 487 LINE",
"108 0 LINE"
);
}
);
width = 268;
},
{
layerId = "60B18B06-8123-4D0C-85E3-2DE7B5C03586";
paths = (
{
closed = 1;
nodes = (
"225 0 LINE",
"225 585 LINE SMOOTH",
"225 615 OFFCURVE",
"243 635 OFFCURVE",
"275 635 CURVE SMOOTH",
"330 635 LINE",
"330 760 LINE",
"275 760 LINE SMOOTH",
"168 760 OFFCURVE",
"100 686 OFFCURVE",
"100 585 CURVE SMOOTH",
"100 550 LINE",
"0 550 LINE",
"0 435 LINE",
"100 435 LINE",
"100 0 LINE"
);
}
);
width = 304;
}
);
leftKerningGroup = f;
rightKerningGroup = f;
unicode = 017F;
},
{
color = 8;
glyphname = t;
lastChange = "2018-05-02 18:04:59 +0000";
layers = (
{
anchors = (
{
name = bottom;
position = "{243, 0}";
},
{
name = center;
position = "{165, 275}";
},
{
name = top;
position = "{165, 550}";
}
);
layerId = "60B18B06-8123-4D0C-85E3-2DE7B5C03586";
paths = (
{
closed = 1;
nodes = (
"319 -7 LINE",
"319 118 LINE",
"264 118 LINE SMOOTH",
"232 118 OFFCURVE",
"214 138 OFFCURVE",
"214 168 CURVE SMOOTH",
"214 435 LINE",
"319 435 LINE",
"319 550 LINE",
"214 550 LINE",
"214 680 LINE",
"89 680 LINE",
"89 550 LINE",
"-1 550 LINE",
"-1 435 LINE",
"89 435 LINE",
"89 168 LINE SMOOTH",
"89 57 OFFCURVE",
"157 -7 OFFCURVE",
"264 -7 CURVE SMOOTH"
);
}
);
width = 342;
},
{
anchors = (
{
name = bottom;
position = "{240, 0}";
},
{
name = center;
position = "{166, 270}";
},
{
name = top;
position = "{166, 540}";
}
);
hints = (
{
horizontal = 1;
origin = "{0, 19}";
target = "{0, 2}";
},
{
horizontal = 1;
origin = "{0, 13}";
target = "{0, 14}";
}
);
layerId = "DDDB0B36-051A-43AE-9F30-611505482296";
paths = (
{
closed = 1;
nodes = (
"308 -6 LINE",
"308 49 LINE",
"278 49 LINE SMOOTH",
"209 49 OFFCURVE",
"163 100 OFFCURVE",
"163 178 CURVE SMOOTH",
"163 488 LINE",
"308 488 LINE",
"308 541 LINE",
"163 541 LINE",
"163 680 LINE",
"108 680 LINE",
"108 541 LINE",
"8 541 LINE",
"8 488 LINE",
"108 488 LINE",
"108 178 LINE SMOOTH",
"108 67 OFFCURVE",
"176 -6 OFFCURVE",
"278 -6 CURVE SMOOTH"
);
}
);
width = 329;
}
);
leftKerningGroup = t;
note = t;
rightKerningGroup = t;
unicode = 0074;
},
{
color = 8;
glyphname = u;
lastChange = "2018-05-02 18:04:59 +0000";
layers = (
{
anchors = (
{
name = bottom;
position = "{232, 0}";
},
{
name = ogonek;
position = "{323, 0}";
},
{
name = top;
position = "{232, 550}";
}
);
layerId = "60B18B06-8123-4D0C-85E3-2DE7B5C03586";
paths = (
{
closed = 1;
nodes = (
"242 -13 OFFCURVE",
"280 12 OFFCURVE",
"301 55 CURVE",
"279 84 LINE",
"279 0 LINE",
"404 0 LINE",
"404 550 LINE",
"279 550 LINE",
"279 162 LINE SMOOTH",
"279 132 OFFCURVE",
"261 112 OFFCURVE",
"229 112 CURVE SMOOTH",
"197 112 OFFCURVE",
"179 132 OFFCURVE",
"179 162 CURVE SMOOTH",
"179 550 LINE",
"54 550 LINE",
"54 162 LINE SMOOTH",
"54 21 OFFCURVE",
"121 -13 OFFCURVE",
"186 -13 CURVE SMOOTH"
);
}
);
width = 463;
},
{
anchors = (
{
name = bottom;
position = "{231, 0}";
},
{
name = ogonek;
position = "{348, 0}";
},
{
name = top;
position = "{231, 540}";
}
);
hints = (
{
horizontal = 1;
origin = "{0, 20}";
target = "{0, 11}";
},
{
horizontal = 1;
origin = "{0, 16}";
target = down;
type = TopGhost;
},
{
horizontal = 1;
origin = "{0, 11}";
target = "{0, 4}";
}
);
layerId = "DDDB0B36-051A-43AE-9F30-611505482296";
paths = (
{
closed = 1;
nodes = (
"282 -12 OFFCURVE",
"326 13 OFFCURVE",
"352 57 CURVE",
"343 68 LINE",
"343 0 LINE",
"398 0 LINE",
"398 540 LINE",
"343 540 LINE",
"343 161 LINE SMOOTH",
"343 90 OFFCURVE",
"299 43 OFFCURVE",
"232 43 CURVE SMOOTH",
"167 43 OFFCURVE",
"123 90 OFFCURVE",
"123 161 CURVE SMOOTH",
"123 540 LINE",
"68 540 LINE",
"68 161 LINE SMOOTH",
"68 57 OFFCURVE",
"131 -12 OFFCURVE",
"226 -12 CURVE SMOOTH"
);
}
);
width = 473;
}
);
leftKerningGroup = u;
note = u;
rightKerningGroup = u;
unicode = 0075;
},
{
color = 8;
glyphname = v;
lastChange = "2018-05-02 18:04:59 +0000";
layers = (
{
layerId = "60B18B06-8123-4D0C-85E3-2DE7B5C03586";
paths = (
{
closed = 1;
nodes = (
"288 0 LINE",
"427 550 LINE",
"291 550 LINE",
"202 145 LINE",
"229 145 LINE",
"136 550 LINE",
"0 550 LINE",
"142 0 LINE"
);
}
);
width = 428;
},
{
hints = (
{
horizontal = 1;
origin = "{0, 7}";
target = up;
type = BottomGhost;
},
{
horizontal = 1;
origin = "{0, 6}";
target = down;
type = TopGhost;
}
);
layerId = "DDDB0B36-051A-43AE-9F30-611505482296";
paths = (
{
closed = 1;
nodes = (
"242 0 LINE",
"400 540 LINE",
"342 540 LINE",
"200 55 LINE",
"214 55 LINE",
"72 540 LINE",
"14 540 LINE",
"173 0 LINE"
);
}
);
width = 414;
}
);
leftKerningGroup = v;
note = v;
rightKerningGroup = v;
unicode = 0076;
},
{
color = 8;
glyphname = w;
lastChange = "2018-05-02 18:04:59 +0000";
layers = (
{
anchors = (
{
name = bottom;
position = "{301, 0}";
},
{
name = top;
position = "{301, 550}";
}
);
layerId = "60B18B06-8123-4D0C-85E3-2DE7B5C03586";
paths = (
{
closed = 1;
nodes = (
"236 0 LINE",
"314 367 LINE",
"289 367 LINE",
"365 0 LINE",
"493 0 LINE",
"590 550 LINE",
"460 550 LINE",
"410 153 LINE",
"429 153 LINE",
"355 550 LINE",
"246 550 LINE",
"172 153 LINE",
"191 153 LINE",
"141 550 LINE",
"11 550 LINE",
"108 0 LINE"
);
}
);
width = 601;
},
{
anchors = (
{
name = bottom;
position = "{268, 0}";
},
{
name = top;
position = "{268, 540}";
}
);
hints = (
{
horizontal = 1;
origin = "{0, 14}";
target = down;
type = TopGhost;
}
);
layerId = "DDDB0B36-051A-43AE-9F30-611505482296";
paths = (
{
closed = 1;
nodes = (
"183 0 LINE",
"273 435 LINE",
"263 435 LINE",
"352 0 LINE",
"419 0 LINE",
"502 540 LINE",
"444 540 LINE",
"381 55 LINE",
"389 56 LINE",
"295 540 LINE",
"240 540 LINE",
"146 56 LINE",
"154 55 LINE",
"90 540 LINE",
"33 540 LINE",
"116 0 LINE"
);
}
);
width = 535;
}
);
leftKerningGroup = w;
note = w;
rightKerningGroup = w;
unicode = 0077;
},
{
color = 8;
glyphname = x;
lastChange = "2018-05-02 18:04:59 +0000";
layers = (
{
layerId = "60B18B06-8123-4D0C-85E3-2DE7B5C03586";
paths = (
{
closed = 1;
nodes = (
"128 0 LINE",
"234 202 LINE",
"178 202 LINE",
"284 0 LINE",
"412 0 LINE",
"268 275 LINE",
"412 550 LINE",
"284 550 LINE",
"178 348 LINE",
"234 348 LINE",
"128 550 LINE",
"0 550 LINE",
"145 275 LINE",
"0 0 LINE"
);
}
);
width = 412;
},
{
hints = (
{
horizontal = 1;
origin = "{0, 13}";
target = up;
type = BottomGhost;
},
{
horizontal = 1;
origin = "{0, 11}";
target = down;
type = TopGhost;
}
);
layerId = "DDDB0B36-051A-43AE-9F30-611505482296";
paths = (
{
closed = 1;
nodes = (
"77 0 LINE",
"206 232 LINE",
"182 232 LINE",
"310 0 LINE",
"372 0 LINE",
"222 271 LINE",
"372 540 LINE",
"310 540 LINE",
"182 310 LINE",
"206 310 LINE",
"77 540 LINE",
"15 540 LINE",
"165 271 LINE",
"15 0 LINE"
);
}
);
width = 387;
}
);
note = x;
unicode = 0078;
},
{
color = 8;
glyphname = y;
lastChange = "2018-05-02 18:04:59 +0000";
layers = (
{
anchors = (
{
name = bottom;
position = "{213, 0}";
},
{
name = top;
position = "{213, 550}";
}
);
layerId = "60B18B06-8123-4D0C-85E3-2DE7B5C03586";
paths = (
{
closed = 1;
nodes = (
"228 -180 LINE",
"426 550 LINE",
"290 550 LINE",
"201 155 LINE",
"228 155 LINE",
"135 550 LINE",
"-1 550 LINE",
"150 0 LINE",
"102 -180 LINE"
);
}
);
width = 425;
},
{
anchors = (
{
name = bottom;
position = "{208, 0}";
},
{
name = top;
position = "{208, 540}";
}
);
hints = (
{
horizontal = 1;
origin = "{0, 6}";
target = down;
type = TopGhost;
}
);
layerId = "DDDB0B36-051A-43AE-9F30-611505482296";
paths = (
{
closed = 1;
nodes = (
"188 -180 LINE",
"401 540 LINE",
"340 540 LINE",
"201 61 LINE",
"215 61 LINE",
"75 540 LINE",
"15 540 LINE",
"175 -15 LINE",
"126 -180 LINE"
);
}
);
width = 415;
}
);
leftKerningGroup = y;
note = y;
rightKerningGroup = v;
unicode = 0079;
},
{
color = 8;
glyphname = z;
lastChange = "2018-05-02 18:04:59 +0000";
layers = (
{
anchors = (
{
name = bottom;
position = "{202, 0}";
},
{
name = top;
position = "{202, 550}";
}
);
layerId = "60B18B06-8123-4D0C-85E3-2DE7B5C03586";
paths = (
{
closed = 1;
nodes = (
"376 0 LINE",
"376 125 LINE",
"120 125 LINE",
"150 73 LINE",
"376 452 LINE",
"376 550 LINE",
"26 550 LINE",
"26 425 LINE",
"291 425 LINE",
"262 477 LINE",
"26 98 LINE",
"26 0 LINE"
);
}
);
width = 402;
},
{
anchors = (
{
name = bottom;
position = "{186, 0}";
},
{
name = top;
position = "{186, 540}";
}
);
hints = (
{
horizontal = 1;
origin = "{0, 11}";
target = "{0, 2}";
},
{
horizontal = 1;
origin = "{0, 6}";
target = "{0, 7}";
}
);
layerId = "DDDB0B36-051A-43AE-9F30-611505482296";
paths = (
{
closed = 1;
nodes = (
"339 0 LINE",
"339 55 LINE",
"70 55 LINE",
"83 33 LINE",
"347 497 LINE",
"347 540 LINE",
"31 540 LINE",
"31 485 LINE",
"301 485 LINE",
"288 506 LINE",
"23 43 LINE",
"23 0 LINE"
);
}
);
width = 370;
}
);
leftKerningGroup = z;
note = z;
rightKerningGroup = z;
unicode = 007A;
},
{
color = 6;
glyphname = a.ss01;
lastChange = "2018-05-02 18:04:59 +0000";
layers = (
{
anchors = (
{
name = bottom;
position = "{229, 0}";
},
{
name = top;
position = "{229, 550}";
}
);
layerId = "60B18B06-8123-4D0C-85E3-2DE7B5C03586";
paths = (
{
closed = 1;
nodes = (
"237 -13 OFFCURVE",
"275 12 OFFCURVE",
"296 55 CURVE",
"274 84 LINE",
"274 0 LINE",
"399 0 LINE",
"399 550 LINE",
"274 550 LINE",
"274 466 LINE",
"296 495 LINE",
"275 538 OFFCURVE",
"237 563 OFFCURVE",
"181 563 CURVE SMOOTH",
"116 563 OFFCURVE",
"49 529 OFFCURVE",
"49 388 CURVE SMOOTH",
"49 162 LINE SMOOTH",
"49 21 OFFCURVE",
"116 -13 OFFCURVE",
"181 -13 CURVE SMOOTH"
);
},
{
closed = 1;
nodes = (
"192 112 OFFCURVE",
"174 132 OFFCURVE",
"174 162 CURVE SMOOTH",
"174 388 LINE SMOOTH",
"174 418 OFFCURVE",
"192 438 OFFCURVE",
"224 438 CURVE SMOOTH",
"256 438 OFFCURVE",
"274 418 OFFCURVE",
"274 388 CURVE SMOOTH",
"274 162 LINE SMOOTH",
"274 132 OFFCURVE",
"256 112 OFFCURVE",
"224 112 CURVE SMOOTH"
);
}
);
width = 458;
},
{
anchors = (
{
name = bottom;
position = "{239, 0}";
},
{
name = top;
position = "{239, 540}";
}
);
hints = (
{
horizontal = 1;
origin = "{0, 19}";
target = "{1, 13}";
},
{
horizontal = 1;
origin = "{0, 7}";
target = "{1, 6}";
},
{
horizontal = 1;
origin = "{0, 12}";
target = "{1, 6}";
},
{
horizontal = 1;
origin = "{1, 13}";
target = "{0, 4}";
}
);
layerId = "DDDB0B36-051A-43AE-9F30-611505482296";
paths = (
{
closed = 1;
nodes = (
"284 -12 OFFCURVE",
"327 13 OFFCURVE",
"352 54 CURVE",
"343 66 LINE",
"343 0 LINE",
"398 0 LINE",
"398 540 LINE",
"343 540 LINE",
"343 474 LINE",
"352 486 LINE",
"327 527 OFFCURVE",
"284 552 OFFCURVE",
"229 552 CURVE SMOOTH",
"129 552 OFFCURVE",
"60 482 OFFCURVE",
"60 379 CURVE SMOOTH",
"60 162 LINE SMOOTH",
"60 58 OFFCURVE",
"129 -12 OFFCURVE",
"229 -12 CURVE SMOOTH"
);
},
{
closed = 1;
nodes = (
"159 43 OFFCURVE",
"115 91 OFFCURVE",
"115 162 CURVE SMOOTH",
"115 379 LINE SMOOTH",
"115 450 OFFCURVE",
"159 497 OFFCURVE",
"229 497 CURVE SMOOTH",
"302 497 OFFCURVE",
"343 450 OFFCURVE",
"343 379 CURVE SMOOTH",
"343 161 LINE SMOOTH",
"343 90 OFFCURVE",
"302 43 OFFCURVE",
"229 43 CURVE SMOOTH"
);
}
);
width = 473;
}
);
leftKerningGroup = o;
note = a;
rightKerningGroup = d;
},
{
color = 3;
glyphname = y.ss02;
lastChange = "2018-05-02 18:04:59 +0000";
layers = (
{
anchors = (
{
name = bottom;
position = "{218, -183}";
},
{
name = top;
position = "{218, 550}";
}
);
layerId = "60B18B06-8123-4D0C-85E3-2DE7B5C03586";
paths = (
{
closed = 1;
nodes = (
"324 -183 OFFCURVE",
"393 -110 OFFCURVE",
"393 0 CURVE SMOOTH",
"393 550 LINE",
"268 550 LINE",
"268 232 LINE SMOOTH",
"268 202 OFFCURVE",
"250 182 OFFCURVE",
"218 182 CURVE SMOOTH",
"186 182 OFFCURVE",
"168 202 OFFCURVE",
"168 232 CURVE SMOOTH",
"168 550 LINE",
"43 550 LINE",
"43 232 LINE SMOOTH",
"43 91 OFFCURVE",
"110 57 OFFCURVE",
"175 57 CURVE SMOOTH",
"231 57 OFFCURVE",
"269 82 OFFCURVE",
"290 125 CURVE",
"268 154 LINE",
"268 -8 LINE SMOOTH",
"268 -38 OFFCURVE",
"250 -58 OFFCURVE",
"218 -58 CURVE SMOOTH",
"186 -58 OFFCURVE",
"168 -38 OFFCURVE",
"168 -8 CURVE SMOOTH",
"168 24 LINE",
"43 24 LINE",
"43 2 LINE SMOOTH",
"43 -109 OFFCURVE",
"111 -183 OFFCURVE",
"218 -183 CURVE SMOOTH"
);
}
);
width = 452;
},
{
anchors = (
{
name = bottom;
position = "{223, -183}";
},
{
name = top;
position = "{225, 540}";
}
);
hints = (
{
horizontal = 1;
origin = "{0, 34}";
target = "{0, 25}";
},
{
horizontal = 1;
origin = "{0, 17}";
target = "{0, 8}";
},
{
horizontal = 1;
origin = "{0, 13}";
target = down;
type = TopGhost;
}
);
layerId = "DDDB0B36-051A-43AE-9F30-611505482296";
paths = (
{
closed = 1;
nodes = (
"323 -183 OFFCURVE",
"394 -113 OFFCURVE",
"394 -9 CURVE SMOOTH",
"394 540 LINE",
"339 540 LINE",
"339 231 LINE SMOOTH",
"339 160 OFFCURVE",
"298 113 OFFCURVE",
"225 113 CURVE SMOOTH",
"155 113 OFFCURVE",
"111 161 OFFCURVE",
"111 232 CURVE SMOOTH",
"111 540 LINE",
"56 540 LINE",
"56 232 LINE SMOOTH",
"56 128 OFFCURVE",
"125 58 OFFCURVE",
"225 58 CURVE SMOOTH",
"280 58 OFFCURVE",
"323 83 OFFCURVE",
"348 124 CURVE",
"339 136 LINE",
"339 -9 LINE SMOOTH",
"339 -80 OFFCURVE",
"293 -128 OFFCURVE",
"223 -128 CURVE SMOOTH",
"153 -128 OFFCURVE",
"109 -80 OFFCURVE",
"109 -9 CURVE SMOOTH",
"109 1 LINE",
"54 1 LINE",
"54 -9 LINE SMOOTH",
"54 -113 OFFCURVE",
"123 -183 OFFCURVE",
"223 -183 CURVE SMOOTH"
);
}
);
width = 469;
}
);
leftKerningGroup = u;
note = u;
rightKerningGroup = u;
rightMetricsKey = j;
},
{
glyphname = ordfeminine;
lastChange = "2018-05-02 18:04:59 +0000";
layers = (
{
hints = (
{
horizontal = 1;
origin = "{0, 31}";
target = "{1, 12}";
},
{
horizontal = 1;
origin = "{0, 9}";
target = "{0, 18}";
}
);
layerId = "DDDB0B36-051A-43AE-9F30-611505482296";
paths = (
{
closed = 1;
nodes = (
"214 420 OFFCURVE",
"243 434 OFFCURVE",
"259 462 CURVE",
"251 472 LINE",
"251 427 LINE",
"295 427 LINE",
"295 654 LINE SMOOTH",
"295 717 OFFCURVE",
"253 760 OFFCURVE",
"192 760 CURVE SMOOTH",
"131 760 OFFCURVE",
"89 717 OFFCURVE",
"89 654 CURVE SMOOTH",
"89 647 LINE",
"133 647 LINE",
"133 656 LINE SMOOTH",
"133 692 OFFCURVE",
"156 716 OFFCURVE",
"192 716 CURVE SMOOTH",
"228 716 OFFCURVE",
"251 692 OFFCURVE",
"251 656 CURVE SMOOTH",
"251 648 LINE SMOOTH",
"251 605 OFFCURVE",
"190 608 OFFCURVE",
"144 589 CURVE SMOOTH",
"112 576 OFFCURVE",
"83 556 OFFCURVE",
"83 508 CURVE SMOOTH",
"83 457 OFFCURVE",
"117 420 OFFCURVE",
"177 420 CURVE SMOOTH"
);
},
{
closed = 1;
nodes = (
"148 461 OFFCURVE",
"127 482 OFFCURVE",
"127 511 CURVE SMOOTH",
"127 538 OFFCURVE",
"144 551 OFFCURVE",
"168 559 CURVE SMOOTH",
"194 568 OFFCURVE",
"227 570 OFFCURVE",
"251 585 CURVE",
"251 528 LINE SMOOTH",
"251 486 OFFCURVE",
"228 461 OFFCURVE",
"186 461 CURVE SMOOTH"
);
}
);
width = 393;
},
{
layerId = "60B18B06-8123-4D0C-85E3-2DE7B5C03586";
paths = (
{
closed = 1;
nodes = (
"153 414 OFFCURVE",
"179 428 OFFCURVE",
"192 457 CURVE",
"178 474 LINE",
"178 422 LINE",
"256 422 LINE",
"256 649 LINE SMOOTH",
"256 715 OFFCURVE",
"216 760 OFFCURVE",
"151 760 CURVE SMOOTH",
"87 760 OFFCURVE",
"46 716 OFFCURVE",
"46 649 CURVE SMOOTH",
"46 636 LINE",
"124 636 LINE",
"124 655 LINE SMOOTH",
"124 671 OFFCURVE",
"134 682 OFFCURVE",
"151 682 CURVE SMOOTH",
"168 682 OFFCURVE",
"178 671 OFFCURVE",
"178 655 CURVE SMOOTH",
"178 649 LINE SMOOTH",
"178 615 OFFCURVE",
"131 611 OFFCURVE",
"88 587 CURVE SMOOTH",
"61 572 OFFCURVE",
"40 549 OFFCURVE",
"40 504 CURVE SMOOTH",
"40 452 OFFCURVE",
"69 414 OFFCURVE",
"122 414 CURVE SMOOTH"
);
},
{
closed = 1;
nodes = (
"128 486 OFFCURVE",
"119 501 OFFCURVE",
"119 514 CURVE SMOOTH",
"119 528 OFFCURVE",
"127 535 OFFCURVE",
"140 542 CURVE SMOOTH",
"153 549 OFFCURVE",
"169 553 OFFCURVE",
"178 562 CURVE",
"178 517 LINE SMOOTH",
"178 493 OFFCURVE",
"162 486 OFFCURVE",
"148 486 CURVE SMOOTH"
);
}
);
width = 309;
}
);
unicode = 00AA;
},
{
glyphname = ordmasculine;
lastChange = "2018-05-02 18:04:59 +0000";
layers = (
{
hints = (
{
horizontal = 1;
origin = "{0, 13}";
target = "{1, 13}";
},
{
horizontal = 1;
origin = "{0, 6}";
target = "{1, 6}";
}
);
layerId = "DDDB0B36-051A-43AE-9F30-611505482296";
paths = (
{
closed = 1;
nodes = (
"246 420 OFFCURVE",
"287 462 OFFCURVE",
"287 526 CURVE SMOOTH",
"287 654 LINE SMOOTH",
"287 717 OFFCURVE",
"246 760 OFFCURVE",
"185 760 CURVE SMOOTH",
"124 760 OFFCURVE",
"82 717 OFFCURVE",
"82 654 CURVE SMOOTH",
"82 526 LINE SMOOTH",
"82 463 OFFCURVE",
"124 420 OFFCURVE",
"185 420 CURVE SMOOTH"
);
},
{
closed = 1;
nodes = (
"149 463 OFFCURVE",
"126 488 OFFCURVE",
"126 524 CURVE SMOOTH",
"126 656 LINE SMOOTH",
"126 692 OFFCURVE",
"149 716 OFFCURVE",
"185 716 CURVE SMOOTH",
"221 716 OFFCURVE",
"244 692 OFFCURVE",
"244 656 CURVE SMOOTH",
"244 524 LINE SMOOTH",
"244 488 OFFCURVE",
"221 463 OFFCURVE",
"185 463 CURVE SMOOTH"
);
}
);
width = 369;
},
{
layerId = "60B18B06-8123-4D0C-85E3-2DE7B5C03586";
paths = (
{
closed = 1;
nodes = (
"217 414 OFFCURVE",
"258 460 OFFCURVE",
"258 526 CURVE SMOOTH",
"258 649 LINE SMOOTH",
"258 716 OFFCURVE",
"216 760 OFFCURVE",
"152 760 CURVE SMOOTH",
"88 760 OFFCURVE",
"47 716 OFFCURVE",
"47 649 CURVE SMOOTH",
"47 526 LINE SMOOTH",
"47 459 OFFCURVE",
"88 414 OFFCURVE",
"152 414 CURVE SMOOTH"
);
},
{
closed = 1;
nodes = (
"135 493 OFFCURVE",
"126 504 OFFCURVE",
"126 519 CURVE SMOOTH",
"126 655 LINE SMOOTH",
"126 671 OFFCURVE",
"135 682 OFFCURVE",
"152 682 CURVE SMOOTH",
"169 682 OFFCURVE",
"179 671 OFFCURVE",
"179 655 CURVE SMOOTH",
"179 519 LINE SMOOTH",
"179 503 OFFCURVE",
"169 493 OFFCURVE",
"152 493 CURVE SMOOTH"
);
}
);
width = 305;
}
);
unicode = 00BA;
},
{
glyphname = Delta;
lastChange = "2018-05-02 18:04:59 +0000";
layers = (
{
hints = (
{
horizontal = 1;
origin = "{0, 3}";
target = "{1, 2}";
},
{
horizontal = 1;
origin = "{0, 2}";
target = down;
type = TopGhost;
}
);
layerId = "DDDB0B36-051A-43AE-9F30-611505482296";
paths = (
{
closed = 1;
nodes = (
"429 0 LINE",
"259 750 LINE",
"201 750 LINE",
"31 0 LINE"
);
},
{
closed = 1;
nodes = (
"230 644 LINE",
"360 55 LINE",
"100 55 LINE"
);
}
);
width = 460;
},
{
layerId = "60B18B06-8123-4D0C-85E3-2DE7B5C03586";
paths = (
{
closed = 1;
nodes = (
"442 0 LINE",
"303 750 LINE",
"157 750 LINE",
"15 0 LINE"
);
},
{
closed = 1;
nodes = (
"230 499 LINE",
"284 135 LINE",
"174 135 LINE"
);
}
);
width = 457;
}
);
leftKerningGroup = A;
rightKerningGroup = A;
unicode = 0394;
},
{
glyphname = Omega;
lastChange = "2018-05-02 18:04:59 +0000";
layers = (
{
hints = (
{
horizontal = 1;
origin = "{0, 37}";
target = "{0, 36}";
},
{
horizontal = 1;
origin = "{0, 27}";
target = "{0, 8}";
}
);
layerId = "DDDB0B36-051A-43AE-9F30-611505482296";
paths = (
{
closed = 1;
nodes = (
"271 0 LINE",
"271 55 LINE",
"199 55 OFFCURVE",
"151 107 OFFCURVE",
"151 185 CURVE SMOOTH",
"151 551 LINE SMOOTH",
"151 647 OFFCURVE",
"211 711 OFFCURVE",
"301 711 CURVE SMOOTH",
"391 711 OFFCURVE",
"451 647 OFFCURVE",
"451 551 CURVE SMOOTH",
"451 185 LINE SMOOTH",
"451 107 OFFCURVE",
"403 55 OFFCURVE",
"331 55 CURVE",
"331 0 LINE",
"566 0 LINE",
"566 55 LINE",
"437 55 LINE",
"452 44 LINE",
"486 77 OFFCURVE",
"506 126 OFFCURVE",
"506 185 CURVE SMOOTH",
"506 551 LINE SMOOTH",
"506 680 OFFCURVE",
"424 766 OFFCURVE",
"301 766 CURVE SMOOTH",
"178 766 OFFCURVE",
"96 680 OFFCURVE",
"96 551 CURVE SMOOTH",
"96 185 LINE SMOOTH",
"96 126 OFFCURVE",
"116 77 OFFCURVE",
"150 44 CURVE",
"165 55 LINE",
"36 55 LINE",
"36 0 LINE"
);
}
);
width = 602;
},
{
layerId = "60B18B06-8123-4D0C-85E3-2DE7B5C03586";
paths = (
{
closed = 1;
nodes = (
"264 0 LINE",
"264 135 LINE",
"232 135 OFFCURVE",
"214 155 OFFCURVE",
"214 185 CURVE SMOOTH",
"214 551 LINE SMOOTH",
"214 599 OFFCURVE",
"246 631 OFFCURVE",
"294 631 CURVE SMOOTH",
"342 631 OFFCURVE",
"374 599 OFFCURVE",
"374 551 CURVE SMOOTH",
"374 185 LINE SMOOTH",
"374 155 OFFCURVE",
"356 135 OFFCURVE",
"324 135 CURVE",
"324 0 LINE",
"559 0 LINE",
"559 135 LINE",
"443 135 LINE",
"495 95 LINE",
"502 127 OFFCURVE",
"509 153 OFFCURVE",
"509 185 CURVE SMOOTH",
"509 551 LINE SMOOTH",
"509 680 OFFCURVE",
"423 766 OFFCURVE",
"294 766 CURVE SMOOTH",
"165 766 OFFCURVE",
"79 680 OFFCURVE",
"79 551 CURVE SMOOTH",
"79 185 LINE SMOOTH",
"79 153 OFFCURVE",
"86 127 OFFCURVE",
"93 95 CURVE",
"145 135 LINE",
"29 135 LINE",
"29 0 LINE"
);
}
);
width = 588;
}
);
leftKerningGroup = O;
rightKerningGroup = O;
unicode = 03A9;
},
{
glyphname = pi;
lastChange = "2018-05-02 18:04:59 +0000";
layers = (
{
hints = (
{
horizontal = 1;
origin = "{0, 19}";
target = "{0, 2}";
},
{
horizontal = 1;
origin = "{0, 9}";
target = "{0, 10}";
},
{
horizontal = 1;
origin = "{0, 12}";
target = up;
type = BottomGhost;
}
);
layerId = "DDDB0B36-051A-43AE-9F30-611505482296";
paths = (
{
closed = 1;
nodes = (
"508 -6 LINE",
"508 49 LINE",
"478 49 LINE SMOOTH",
"409 49 OFFCURVE",
"363 100 OFFCURVE",
"363 178 CURVE SMOOTH",
"363 488 LINE",
"508 488 LINE",
"508 541 LINE",
"8 541 LINE",
"8 488 LINE",
"108 488 LINE",
"108 0 LINE",
"163 0 LINE",
"163 488 LINE",
"308 488 LINE",
"308 178 LINE SMOOTH",
"308 67 OFFCURVE",
"376 -6 OFFCURVE",
"478 -6 CURVE SMOOTH"
);
}
);
width = 529;
},
{
layerId = "60B18B06-8123-4D0C-85E3-2DE7B5C03586";
paths = (
{
closed = 1;
nodes = (
"509 -7 LINE",
"509 118 LINE",
"474 118 LINE SMOOTH",
"442 118 OFFCURVE",
"424 138 OFFCURVE",
"424 168 CURVE SMOOTH",
"424 435 LINE",
"509 435 LINE",
"509 550 LINE",
"-1 550 LINE",
"-1 435 LINE",
"89 435 LINE",
"89 0 LINE",
"214 0 LINE",
"214 435 LINE",
"299 435 LINE",
"299 168 LINE SMOOTH",
"299 57 OFFCURVE",
"367 -7 OFFCURVE",
"474 -7 CURVE SMOOTH"
);
}
);
width = 532;
}
);
leftKerningGroup = eta;
rightKerningGroup = iota;
unicode = 03C0;
},
{
glyphname = zero;
lastChange = "2018-05-02 18:04:59 +0000";
layers = (
{
layerId = "60B18B06-8123-4D0C-85E3-2DE7B5C03586";
paths = (
{
closed = 1;
nodes = (
"357 -16 OFFCURVE",
"429 58 OFFCURVE",
"429 169 CURVE SMOOTH",
"429 581 LINE SMOOTH",
"429 692 OFFCURVE",
"357 766 OFFCURVE",
"244 766 CURVE SMOOTH",
"131 766 OFFCURVE",
"59 692 OFFCURVE",
"59 581 CURVE SMOOTH",
"59 169 LINE SMOOTH",
"59 58 OFFCURVE",
"131 -16 OFFCURVE",
"244 -16 CURVE SMOOTH"
);
},
{
closed = 1;
nodes = (
"212 119 OFFCURVE",
"194 139 OFFCURVE",
"194 169 CURVE SMOOTH",
"194 581 LINE SMOOTH",
"194 611 OFFCURVE",
"212 631 OFFCURVE",
"244 631 CURVE SMOOTH",
"276 631 OFFCURVE",
"294 611 OFFCURVE",
"294 581 CURVE SMOOTH",
"294 169 LINE SMOOTH",
"294 139 OFFCURVE",
"276 119 OFFCURVE",
"244 119 CURVE SMOOTH"
);
},
{
closed = 1;
nodes = (
"137 119 LINE",
"212 119 LINE",
"352 631 LINE",
"276 631 LINE"
);
}
);
width = 488;
},
{
hints = (
{
horizontal = 1;
origin = "{0, 13}";
target = "{2, 0}";
},
{
horizontal = 1;
origin = "{0, 6}";
target = "{1, 6}";
}
);
layerId = "DDDB0B36-051A-43AE-9F30-611505482296";
paths = (
{
closed = 1;
nodes = (
"358 -16 OFFCURVE",
"428 58 OFFCURVE",
"428 169 CURVE SMOOTH",
"428 581 LINE SMOOTH",
"428 692 OFFCURVE",
"358 766 OFFCURVE",
"253 766 CURVE SMOOTH",
"148 766 OFFCURVE",
"78 692 OFFCURVE",
"78 581 CURVE SMOOTH",
"78 169 LINE SMOOTH",
"78 58 OFFCURVE",
"148 -16 OFFCURVE",
"253 -16 CURVE SMOOTH"
);
},
{
closed = 1;
nodes = (
"181 39 OFFCURVE",
"133 91 OFFCURVE",
"133 169 CURVE SMOOTH",
"133 581 LINE SMOOTH",
"133 659 OFFCURVE",
"181 711 OFFCURVE",
"253 711 CURVE SMOOTH",
"325 711 OFFCURVE",
"373 659 OFFCURVE",
"373 581 CURVE SMOOTH",
"373 169 LINE SMOOTH",
"373 91 OFFCURVE",
"325 39 OFFCURVE",
"253 39 CURVE SMOOTH"
);
},
{
closed = 1;
nodes = (
"141 39 LINE",
"181 39 LINE",
"365 711 LINE",
"325 711 LINE"
);
}
);
width = 506;
}
);
note = zero;
unicode = 0030;
},
{
glyphname = one;
lastChange = "2018-05-02 18:05:23 +0000";
layers = (
{
layerId = "60B18B06-8123-4D0C-85E3-2DE7B5C03586";
paths = (
{
closed = 1;
nodes = (
"263 0 LINE",
"263 750 LINE",
"128 750 LINE",
"128 739 LINE SMOOTH",
"128 692 OFFCURVE",
"97 664 OFFCURVE",
"44 664 CURVE SMOOTH",
"11 664 LINE",
"11 529 LINE",
"128 529 LINE",
"128 0 LINE"
);
}
);
width = 333;
},
{
hints = (
{
horizontal = 1;
origin = "{0, 10}";
target = up;
type = BottomGhost;
},
{
horizontal = 1;
origin = "{0, 8}";
target = "{0, 7}";
}
);
layerId = "DDDB0B36-051A-43AE-9F30-611505482296";
paths = (
{
closed = 1;
nodes = (
"175 0 LINE",
"175 750 LINE",
"120 750 LINE",
"120 739 LINE SMOOTH",
"120 692 OFFCURVE",
"89 664 OFFCURVE",
"36 664 CURVE SMOOTH",
"23 664 LINE",
"23 609 LINE",
"120 609 LINE",
"120 0 LINE"
);
}
);
width = 264;
}
);
note = one;
unicode = 0031;
},
{
glyphname = two;
lastChange = "2018-05-02 18:04:59 +0000";
layers = (
{
layerId = "60B18B06-8123-4D0C-85E3-2DE7B5C03586";
paths = (
{
closed = 1;
nodes = (
"408 0 LINE",
"408 135 LINE",
"120 135 LINE",
"181 74 LINE",
"181 150 LINE SMOOTH",
"181 288 OFFCURVE",
"408 295 OFFCURVE",
"408 481 CURVE SMOOTH",
"408 581 LINE SMOOTH",
"408 692 OFFCURVE",
"336 766 OFFCURVE",
"223 766 CURVE SMOOTH",
"110 766 OFFCURVE",
"38 692 OFFCURVE",
"38 581 CURVE SMOOTH",
"38 541 LINE",
"173 541 LINE",
"173 581 LINE SMOOTH",
"173 611 OFFCURVE",
"191 631 OFFCURVE",
"223 631 CURVE SMOOTH",
"255 631 OFFCURVE",
"273 611 OFFCURVE",
"273 581 CURVE SMOOTH",
"273 481 LINE SMOOTH",
"273 365 OFFCURVE",
"38 365 OFFCURVE",
"38 125 CURVE SMOOTH",
"38 0 LINE"
);
}
);
width = 451;
},
{
associatedMasterId = "60B18B06-8123-4D0C-85E3-2DE7B5C03586";
layerId = "F92B29A1-039B-46AC-99A0-1FE44ADB51CB";
name = "Apr 25 18, 17:35";
paths = (
{
closed = 1;
nodes = (
"150 582 LINE SMOOTH",
"150 621 OFFCURVE",
"186 655 OFFCURVE",
"226 655 CURVE SMOOTH",
"265 655 OFFCURVE",
"301 623 OFFCURVE",
"302 582 CURVE SMOOTH",
"304 500 LINE SMOOTH",
"309 322 OFFCURVE",
"41 294 OFFCURVE",
"41 71 CURVE SMOOTH",
"41 0 LINE",
"414 0 LINE",
"414 95 LINE",
"142 95 LINE",
"142 284 OFFCURVE",
"399 275 OFFCURVE",
"399 503 CURVE",
"398 582 LINE SMOOTH",
"397 672 OFFCURVE",
"320 750 OFFCURVE",
"226 750 CURVE SMOOTH",
"134 750 OFFCURVE",
"54 676 OFFCURVE",
"54 582 CURVE SMOOTH",
"54 520 LINE",
"150 520 LINE"
);
}
);
width = 456;
},
{
hints = (
{
horizontal = 1;
origin = "{0, 28}";
target = "{0, 2}";
},
{
horizontal = 1;
origin = "{0, 11}";
target = "{0, 20}";
}
);
layerId = "DDDB0B36-051A-43AE-9F30-611505482296";
paths = (
{
closed = 1;
nodes = (
"396 0 LINE",
"396 55 LINE",
"78 55 LINE",
"103 30 LINE",
"103 62 LINE SMOOTH",
"103 227 OFFCURVE",
"396 349 OFFCURVE",
"396 522 CURVE SMOOTH",
"396 581 LINE SMOOTH",
"396 691 OFFCURVE",
"326 766 OFFCURVE",
"221 766 CURVE SMOOTH",
"116 766 OFFCURVE",
"46 692 OFFCURVE",
"46 581 CURVE SMOOTH",
"46 561 LINE",
"101 561 LINE",
"101 581 LINE SMOOTH",
"101 659 OFFCURVE",
"149 711 OFFCURVE",
"221 711 CURVE SMOOTH",
"293 711 OFFCURVE",
"341 659 OFFCURVE",
"341 581 CURVE SMOOTH",
"341 522 LINE SMOOTH",
"341 361 OFFCURVE",
"46 261 OFFCURVE",
"46 42 CURVE SMOOTH",
"46 0 LINE"
);
}
);
width = 445;
}
);
note = two;
unicode = 0032;
},
{
glyphname = three;
lastChange = "2018-05-02 18:04:59 +0000";
layers = (
{
layerId = "60B18B06-8123-4D0C-85E3-2DE7B5C03586";
paths = (
{
closed = 1;
nodes = (
"329 -16 OFFCURVE",
"401 58 OFFCURVE",
"401 169 CURVE SMOOTH",
"401 269 LINE SMOOTH",
"401 331 OFFCURVE",
"378 381 OFFCURVE",
"340 414 CURVE",
"340 361 LINE",
"378 392 OFFCURVE",
"401 442 OFFCURVE",
"401 504 CURVE SMOOTH",
"401 581 LINE SMOOTH",
"401 692 OFFCURVE",
"329 766 OFFCURVE",
"216 766 CURVE SMOOTH",
"103 766 OFFCURVE",
"31 692 OFFCURVE",
"31 581 CURVE SMOOTH",
"31 541 LINE",
"166 541 LINE",
"166 581 LINE SMOOTH",
"166 611 OFFCURVE",
"184 631 OFFCURVE",
"216 631 CURVE SMOOTH",
"248 631 OFFCURVE",
"266 611 OFFCURVE",
"266 581 CURVE SMOOTH",
"266 504 LINE SMOOTH",
"266 474 OFFCURVE",
"248 454 OFFCURVE",
"216 454 CURVE SMOOTH",
"138 454 LINE",
"138 319 LINE",
"216 319 LINE SMOOTH",
"248 319 OFFCURVE",
"266 299 OFFCURVE",
"266 269 CURVE SMOOTH",
"266 169 LINE SMOOTH",
"266 139 OFFCURVE",
"248 119 OFFCURVE",
"216 119 CURVE SMOOTH",
"184 119 OFFCURVE",
"166 139 OFFCURVE",
"166 169 CURVE SMOOTH",
"166 209 LINE",
"31 209 LINE",
"31 169 LINE SMOOTH",
"31 58 OFFCURVE",
"103 -16 OFFCURVE",
"216 -16 CURVE SMOOTH"
);
}
);
width = 457;
},
{
hints = (
{
horizontal = 1;
origin = "{0, 49}";
target = "{0, 40}";
},
{
horizontal = 1;
origin = "{0, 32}";
target = "{0, 31}";
},
{
horizontal = 1;
origin = "{0, 14}";
target = "{0, 23}";
}
);
layerId = "DDDB0B36-051A-43AE-9F30-611505482296";
paths = (
{
closed = 1;
nodes = (
"327 -16 OFFCURVE",
"397 58 OFFCURVE",
"397 169 CURVE SMOOTH",
"397 225 LINE SMOOTH",
"397 302 OFFCURVE",
"364 361 OFFCURVE",
"308 391 CURVE",
"307 375 LINE",
"364 404 OFFCURVE",
"397 463 OFFCURVE",
"397 540 CURVE SMOOTH",
"397 581 LINE SMOOTH",
"397 692 OFFCURVE",
"327 766 OFFCURVE",
"222 766 CURVE SMOOTH",
"117 766 OFFCURVE",
"47 692 OFFCURVE",
"47 581 CURVE SMOOTH",
"47 561 LINE",
"102 561 LINE",
"102 581 LINE SMOOTH",
"102 659 OFFCURVE",
"150 711 OFFCURVE",
"222 711 CURVE SMOOTH",
"294 711 OFFCURVE",
"342 659 OFFCURVE",
"342 581 CURVE SMOOTH",
"342 540 LINE SMOOTH",
"342 462 OFFCURVE",
"294 410 OFFCURVE",
"222 410 CURVE SMOOTH",
"170 410 LINE",
"170 355 LINE",
"222 355 LINE SMOOTH",
"294 355 OFFCURVE",
"342 303 OFFCURVE",
"342 225 CURVE SMOOTH",
"342 169 LINE SMOOTH",
"342 91 OFFCURVE",
"294 39 OFFCURVE",
"222 39 CURVE SMOOTH",
"150 39 OFFCURVE",
"102 91 OFFCURVE",
"102 169 CURVE SMOOTH",
"102 189 LINE",
"47 189 LINE",
"47 169 LINE SMOOTH",
"47 58 OFFCURVE",
"117 -16 OFFCURVE",
"222 -16 CURVE SMOOTH"
);
}
);
width = 467;
}
);
note = three;
unicode = 0033;
},
{
glyphname = four;
lastChange = "2018-05-02 18:05:28 +0000";
layers = (
{
layerId = "60B18B06-8123-4D0C-85E3-2DE7B5C03586";
paths = (
{
closed = 1;
nodes = (
"397 0 LINE",
"397 128 LINE",
"454 128 LINE",
"454 263 LINE",
"397 263 LINE",
"397 750 LINE",
"279 750 LINE",
"14 244 LINE",
"14 128 LINE",
"262 128 LINE",
"262 0 LINE"
);
},
{
closed = 1;
nodes = (
"262 481 LINE",
"262 263 LINE",
"94 263 LINE",
"128 208 LINE"
);
}
);
width = 482;
},
{
hints = (
{
horizontal = 1;
origin = "{0, 10}";
target = up;
type = BottomGhost;
},
{
horizontal = 1;
origin = "{0, 8}";
target = "{0, 7}";
},
{
horizontal = 1;
origin = "{0, 6}";
target = down;
type = TopGhost;
}
);
layerId = "DDDB0B36-051A-43AE-9F30-611505482296";
paths = (
{
closed = 1;
nodes = (
"373 0 LINE",
"373 175 LINE",
"447 175 LINE",
"447 229 LINE",
"373 229 LINE",
"373 750 LINE",
"313 750 LINE",
"27 229 LINE",
"27 175 LINE",
"318 175 LINE",
"318 0 LINE"
);
},
{
closed = 1;
nodes = (
"318 661 LINE",
"318 229 LINE",
"59 229 LINE",
"72 207 LINE"
);
}
);
width = 475;
}
);
note = four;
unicode = 0034;
},
{
glyphname = five;
lastChange = "2018-05-02 18:04:59 +0000";
layers = (
{
layerId = "60B18B06-8123-4D0C-85E3-2DE7B5C03586";
paths = (
{
closed = 1;
nodes = (
"360 -16 OFFCURVE",
"432 58 OFFCURVE",
"432 169 CURVE SMOOTH",
"432 309 LINE SMOOTH",
"432 420 OFFCURVE",
"360 494 OFFCURVE",
"257 494 CURVE SMOOTH",
"217 494 OFFCURVE",
"189 480 OFFCURVE",
"171 453 CURVE",
"197 418 LINE",
"197 676 LINE",
"136 615 LINE",
"402 615 LINE",
"402 750 LINE",
"62 750 LINE",
"62 302 LINE",
"197 302 LINE",
"197 309 LINE SMOOTH",
"197 339 OFFCURVE",
"215 359 OFFCURVE",
"247 359 CURVE SMOOTH",
"279 359 OFFCURVE",
"297 339 OFFCURVE",
"297 309 CURVE SMOOTH",
"297 169 LINE SMOOTH",
"297 139 OFFCURVE",
"279 119 OFFCURVE",
"247 119 CURVE SMOOTH",
"215 119 OFFCURVE",
"197 139 OFFCURVE",
"197 169 CURVE SMOOTH",
"197 209 LINE",
"62 209 LINE",
"62 169 LINE SMOOTH",
"62 58 OFFCURVE",
"134 -16 OFFCURVE",
"247 -16 CURVE SMOOTH"
);
}
);
width = 472;
},
{
hints = (
{
horizontal = 1;
origin = "{0, 37}";
target = "{0, 28}";
},
{
horizontal = 1;
origin = "{0, 21}";
target = "{0, 6}";
},
{
horizontal = 1;
origin = "{0, 15}";
target = "{0, 12}";
}
);
layerId = "DDDB0B36-051A-43AE-9F30-611505482296";
paths = (
{
closed = 1;
nodes = (
"359 -16 OFFCURVE",
"429 58 OFFCURVE",
"429 169 CURVE SMOOTH",
"429 318 LINE SMOOTH",
"429 429 OFFCURVE",
"359 503 OFFCURVE",
"254 503 CURVE SMOOTH",
"197 503 OFFCURVE",
"151 477 OFFCURVE",
"125 431 CURVE",
"134 420 LINE",
"134 720 LINE",
"109 695 LINE",
"429 695 LINE",
"429 750 LINE",
"79 750 LINE",
"79 307 LINE",
"134 307 LINE",
"134 319 LINE SMOOTH",
"134 397 OFFCURVE",
"179 448 OFFCURVE",
"248 448 CURVE SMOOTH",
"326 448 OFFCURVE",
"374 396 OFFCURVE",
"374 318 CURVE SMOOTH",
"374 169 LINE SMOOTH",
"374 91 OFFCURVE",
"326 39 OFFCURVE",
"254 39 CURVE SMOOTH",
"182 39 OFFCURVE",
"134 91 OFFCURVE",
"134 169 CURVE SMOOTH",
"134 189 LINE",
"79 189 LINE",
"79 169 LINE SMOOTH",
"79 58 OFFCURVE",
"149 -16 OFFCURVE",
"254 -16 CURVE SMOOTH"
);
}
);
width = 489;
},
{
associatedMasterId = "DDDB0B36-051A-43AE-9F30-611505482296";
layerId = "2F00CE1A-B26B-4236-88BB-68A23E01396B";
name = "Apr 26 18, 16:09";
paths = (
{
closed = 1;
nodes = (
"361 -12 OFFCURVE",
"431 62 OFFCURVE",
"431 173 CURVE SMOOTH",
"431 225 LINE SMOOTH",
"431 336 OFFCURVE",
"361 410 OFFCURVE",
"256 410 CURVE SMOOTH",
"256 410 LINE",
"250 355 LINE",
"328 355 OFFCURVE",
"376 303 OFFCURVE",
"376 225 CURVE SMOOTH",
"376 173 LINE SMOOTH",
"376 95 OFFCURVE",
"328 43 OFFCURVE",
"256 43 CURVE SMOOTH",
"184 43 OFFCURVE",
"136 95 OFFCURVE",
"136 173 CURVE SMOOTH",
"136 193 LINE",
"81 193 LINE",
"81 173 LINE SMOOTH",
"81 62 OFFCURVE",
"151 -12 OFFCURVE",
"256 -12 CURVE SMOOTH"
);
},
{
closed = 1;
nodes = (
"256 410 LINE",
"161 410 OFFCURVE",
"103 337 OFFCURVE",
"103 226 CURVE SMOOTH",
"103 214 LINE",
"139 214 LINE",
"139 226 LINE SMOOTH",
"139 304 OFFCURVE",
"181 355 OFFCURVE",
"250 355 CURVE"
);
}
);
width = 600;
}
);
note = five;
unicode = 0035;
},
{
glyphname = six;
lastChange = "2018-05-02 18:04:59 +0000";
layers = (
{
layerId = "60B18B06-8123-4D0C-85E3-2DE7B5C03586";
paths = (
{
closed = 1;
nodes = (
"357 -16 OFFCURVE",
"429 58 OFFCURVE",
"429 169 CURVE SMOOTH",
"429 309 LINE SMOOTH",
"429 420 OFFCURVE",
"357 494 OFFCURVE",
"254 494 CURVE SMOOTH",
"214 494 OFFCURVE",
"186 480 OFFCURVE",
"168 453 CURVE",
"194 418 LINE",
"194 581 LINE SMOOTH",
"194 611 OFFCURVE",
"212 631 OFFCURVE",
"244 631 CURVE SMOOTH",
"276 631 OFFCURVE",
"294 611 OFFCURVE",
"294 581 CURVE SMOOTH",
"294 541 LINE",
"429 541 LINE",
"429 581 LINE SMOOTH",
"429 692 OFFCURVE",
"357 766 OFFCURVE",
"244 766 CURVE SMOOTH",
"131 766 OFFCURVE",
"59 692 OFFCURVE",
"59 581 CURVE SMOOTH",
"59 169 LINE SMOOTH",
"59 58 OFFCURVE",
"131 -16 OFFCURVE",
"244 -16 CURVE SMOOTH"
);
},
{
closed = 1;
nodes = (
"212 119 OFFCURVE",
"194 139 OFFCURVE",
"194 169 CURVE SMOOTH",
"194 309 LINE SMOOTH",
"194 339 OFFCURVE",
"212 359 OFFCURVE",
"244 359 CURVE SMOOTH",
"276 359 OFFCURVE",
"294 339 OFFCURVE",
"294 309 CURVE SMOOTH",
"294 169 LINE SMOOTH",
"294 139 OFFCURVE",
"276 119 OFFCURVE",
"244 119 CURVE SMOOTH"
);
}
);
width = 479;
},
{
hints = (
{
horizontal = 1;
origin = "{0, 30}";
target = "{1, 13}";
},
{
horizontal = 1;
origin = "{1, 6}";
target = "{0, 6}";
},
{
horizontal = 1;
origin = "{0, 23}";
target = "{0, 14}";
}
);
layerId = "DDDB0B36-051A-43AE-9F30-611505482296";
paths = (
{
closed = 1;
nodes = (
"358 -16 OFFCURVE",
"428 58 OFFCURVE",
"428 169 CURVE SMOOTH",
"428 318 LINE SMOOTH",
"428 429 OFFCURVE",
"358 503 OFFCURVE",
"253 503 CURVE SMOOTH",
"196 503 OFFCURVE",
"150 477 OFFCURVE",
"124 431 CURVE",
"133 420 LINE",
"133 581 LINE SMOOTH",
"133 659 OFFCURVE",
"181 711 OFFCURVE",
"253 711 CURVE SMOOTH",
"325 711 OFFCURVE",
"373 659 OFFCURVE",
"373 581 CURVE SMOOTH",
"373 561 LINE",
"428 561 LINE",
"428 581 LINE SMOOTH",
"428 692 OFFCURVE",
"358 766 OFFCURVE",
"253 766 CURVE SMOOTH",
"148 766 OFFCURVE",
"78 692 OFFCURVE",
"78 581 CURVE SMOOTH",
"78 169 LINE SMOOTH",
"78 58 OFFCURVE",
"148 -16 OFFCURVE",
"253 -16 CURVE SMOOTH"
);
},
{
closed = 1;
nodes = (
"181 39 OFFCURVE",
"133 91 OFFCURVE",
"133 169 CURVE SMOOTH",
"133 319 LINE SMOOTH",
"133 397 OFFCURVE",
"178 448 OFFCURVE",
"247 448 CURVE SMOOTH",
"325 448 OFFCURVE",
"373 396 OFFCURVE",
"373 318 CURVE SMOOTH",
"373 169 LINE SMOOTH",
"373 91 OFFCURVE",
"325 39 OFFCURVE",
"253 39 CURVE SMOOTH"
);
}
);
width = 497;
}
);
note = six;
unicode = 0036;
},
{
glyphname = seven;
lastChange = "2018-05-02 18:05:30 +0000";
layers = (
{
layerId = "60B18B06-8123-4D0C-85E3-2DE7B5C03586";
paths = (
{
closed = 1;
nodes = (
"194 0 LINE",
"376 624 LINE",
"376 750 LINE",
"11 750 LINE",
"11 615 LINE",
"304 615 LINE",
"261 673 LINE",
"54 0 LINE"
);
}
);
width = 393;
},
{
hints = (
{
horizontal = 1;
origin = "{0, 7}";
target = up;
type = BottomGhost;
},
{
horizontal = 1;
origin = "{0, 3}";
target = "{0, 4}";
}
);
layerId = "DDDB0B36-051A-43AE-9F30-611505482296";
paths = (
{
closed = 1;
nodes = (
"167 0 LINE",
"359 704 LINE",
"359 750 LINE",
"19 750 LINE",
"19 695 LINE",
"322 695 LINE",
"304 719 LINE",
"107 0 LINE"
);
}
);
width = 388;
}
);
note = seven;
unicode = 0037;
},
{
glyphname = eight;
lastChange = "2018-05-02 18:04:59 +0000";
layers = (
{
layerId = "60B18B06-8123-4D0C-85E3-2DE7B5C03586";
paths = (
{
closed = 1;
nodes = (
"353 -16 OFFCURVE",
"425 58 OFFCURVE",
"425 169 CURVE SMOOTH",
"425 266 LINE SMOOTH",
"425 328 OFFCURVE",
"402 378 OFFCURVE",
"364 411 CURVE",
"364 358 LINE",
"402 389 OFFCURVE",
"425 439 OFFCURVE",
"425 501 CURVE SMOOTH",
"425 581 LINE SMOOTH",
"425 692 OFFCURVE",
"353 766 OFFCURVE",
"240 766 CURVE SMOOTH",
"127 766 OFFCURVE",
"55 692 OFFCURVE",
"55 581 CURVE SMOOTH",
"55 501 LINE SMOOTH",
"55 439 OFFCURVE",
"78 389 OFFCURVE",
"116 358 CURVE",
"116 411 LINE",
"78 378 OFFCURVE",
"55 328 OFFCURVE",
"55 266 CURVE SMOOTH",
"55 169 LINE SMOOTH",
"55 58 OFFCURVE",
"127 -16 OFFCURVE",
"240 -16 CURVE SMOOTH"
);
},
{
closed = 1;
nodes = (
"208 119 OFFCURVE",
"190 139 OFFCURVE",
"190 169 CURVE SMOOTH",
"190 266 LINE SMOOTH",
"190 296 OFFCURVE",
"208 316 OFFCURVE",
"240 316 CURVE SMOOTH",
"272 316 OFFCURVE",
"290 296 OFFCURVE",
"290 266 CURVE SMOOTH",
"290 169 LINE SMOOTH",
"290 139 OFFCURVE",
"272 119 OFFCURVE",
"240 119 CURVE SMOOTH"
);
},
{
closed = 1;
nodes = (
"208 451 OFFCURVE",
"190 471 OFFCURVE",
"190 501 CURVE SMOOTH",
"190 581 LINE SMOOTH",
"190 611 OFFCURVE",
"208 631 OFFCURVE",
"240 631 CURVE SMOOTH",
"272 631 OFFCURVE",
"290 611 OFFCURVE",
"290 581 CURVE SMOOTH",
"290 501 LINE SMOOTH",
"290 471 OFFCURVE",
"272 451 OFFCURVE",
"240 451 CURVE SMOOTH"
);
}
);
width = 480;
},
{
hints = (
{
horizontal = 1;
origin = "{0, 29}";
target = "{1, 13}";
},
{
horizontal = 1;
origin = "{1, 6}";
target = "{2, 13}";
},
{
horizontal = 1;
origin = "{0, 14}";
target = "{2, 6}";
}
);
layerId = "DDDB0B36-051A-43AE-9F30-611505482296";
paths = (
{
closed = 1;
nodes = (
"350 -16 OFFCURVE",
"420 58 OFFCURVE",
"420 169 CURVE SMOOTH",
"420 225 LINE SMOOTH",
"420 302 OFFCURVE",
"387 361 OFFCURVE",
"331 391 CURVE",
"330 375 LINE",
"387 404 OFFCURVE",
"420 463 OFFCURVE",
"420 540 CURVE SMOOTH",
"420 581 LINE SMOOTH",
"420 692 OFFCURVE",
"350 766 OFFCURVE",
"245 766 CURVE SMOOTH",
"140 766 OFFCURVE",
"70 692 OFFCURVE",
"70 581 CURVE SMOOTH",
"70 540 LINE SMOOTH",
"70 463 OFFCURVE",
"103 404 OFFCURVE",
"160 375 CURVE",
"159 391 LINE",
"103 361 OFFCURVE",
"70 302 OFFCURVE",
"70 225 CURVE SMOOTH",
"70 169 LINE SMOOTH",
"70 58 OFFCURVE",
"140 -16 OFFCURVE",
"245 -16 CURVE SMOOTH"
);
},
{
closed = 1;
nodes = (
"173 39 OFFCURVE",
"125 91 OFFCURVE",
"125 169 CURVE SMOOTH",
"125 225 LINE SMOOTH",
"125 303 OFFCURVE",
"173 355 OFFCURVE",
"245 355 CURVE SMOOTH",
"317 355 OFFCURVE",
"365 303 OFFCURVE",
"365 225 CURVE SMOOTH",
"365 169 LINE SMOOTH",
"365 91 OFFCURVE",
"317 39 OFFCURVE",
"245 39 CURVE SMOOTH"
);
},
{
closed = 1;
nodes = (
"173 410 OFFCURVE",
"125 462 OFFCURVE",
"125 540 CURVE SMOOTH",
"125 581 LINE SMOOTH",
"125 659 OFFCURVE",
"173 711 OFFCURVE",
"245 711 CURVE SMOOTH",
"317 711 OFFCURVE",
"365 659 OFFCURVE",
"365 581 CURVE SMOOTH",
"365 540 LINE SMOOTH",
"365 462 OFFCURVE",
"317 410 OFFCURVE",
"245 410 CURVE SMOOTH"
);
}
);
width = 490;
}
);
note = eight;
unicode = 0038;
},
{
glyphname = nine;
lastChange = "2018-05-02 18:04:59 +0000";
layers = (
{
layerId = "60B18B06-8123-4D0C-85E3-2DE7B5C03586";
paths = (
{
closed = 1;
nodes = (
"349 -16 OFFCURVE",
"421 58 OFFCURVE",
"421 169 CURVE SMOOTH",
"421 581 LINE SMOOTH",
"421 692 OFFCURVE",
"349 766 OFFCURVE",
"236 766 CURVE SMOOTH",
"123 766 OFFCURVE",
"51 692 OFFCURVE",
"51 581 CURVE SMOOTH",
"51 441 LINE SMOOTH",
"51 330 OFFCURVE",
"123 256 OFFCURVE",
"226 256 CURVE SMOOTH",
"266 256 OFFCURVE",
"294 270 OFFCURVE",
"312 297 CURVE",
"286 332 LINE",
"286 169 LINE SMOOTH",
"286 139 OFFCURVE",
"268 119 OFFCURVE",
"236 119 CURVE SMOOTH",
"204 119 OFFCURVE",
"186 139 OFFCURVE",
"186 169 CURVE SMOOTH",
"186 209 LINE",
"51 209 LINE",
"51 169 LINE SMOOTH",
"51 58 OFFCURVE",
"123 -16 OFFCURVE",
"236 -16 CURVE SMOOTH"
);
},
{
closed = 1;
nodes = (
"204 391 OFFCURVE",
"186 411 OFFCURVE",
"186 441 CURVE SMOOTH",
"186 581 LINE SMOOTH",
"186 611 OFFCURVE",
"204 631 OFFCURVE",
"236 631 CURVE SMOOTH",
"268 631 OFFCURVE",
"286 611 OFFCURVE",
"286 581 CURVE SMOOTH",
"286 441 LINE SMOOTH",
"286 411 OFFCURVE",
"268 391 OFFCURVE",
"236 391 CURVE SMOOTH"
);
}
);
width = 480;
},
{
hints = (
{
horizontal = 1;
origin = "{0, 30}";
target = "{0, 21}";
},
{
horizontal = 1;
origin = "{0, 13}";
target = "{1, 13}";
},
{
horizontal = 1;
origin = "{0, 6}";
target = "{1, 6}";
}
);
layerId = "DDDB0B36-051A-43AE-9F30-611505482296";
paths = (
{
closed = 1;
nodes = (
"349 -16 OFFCURVE",
"419 58 OFFCURVE",
"419 169 CURVE SMOOTH",
"419 581 LINE SMOOTH",
"419 692 OFFCURVE",
"349 766 OFFCURVE",
"244 766 CURVE SMOOTH",
"139 766 OFFCURVE",
"69 692 OFFCURVE",
"69 581 CURVE SMOOTH",
"69 432 LINE SMOOTH",
"69 321 OFFCURVE",
"139 247 OFFCURVE",
"244 247 CURVE SMOOTH",
"301 247 OFFCURVE",
"347 273 OFFCURVE",
"373 319 CURVE",
"364 330 LINE",
"364 169 LINE SMOOTH",
"364 91 OFFCURVE",
"316 39 OFFCURVE",
"244 39 CURVE SMOOTH",
"172 39 OFFCURVE",
"124 91 OFFCURVE",
"124 169 CURVE SMOOTH",
"124 189 LINE",
"69 189 LINE",
"69 169 LINE SMOOTH",
"69 58 OFFCURVE",
"139 -16 OFFCURVE",
"244 -16 CURVE SMOOTH"
);
},
{
closed = 1;
nodes = (
"172 302 OFFCURVE",
"124 354 OFFCURVE",
"124 432 CURVE SMOOTH",
"124 581 LINE SMOOTH",
"124 659 OFFCURVE",
"172 711 OFFCURVE",
"244 711 CURVE SMOOTH",
"316 711 OFFCURVE",
"364 659 OFFCURVE",
"364 581 CURVE SMOOTH",
"364 431 LINE SMOOTH",
"364 353 OFFCURVE",
"319 302 OFFCURVE",
"250 302 CURVE SMOOTH"
);
}
);
width = 497;
}
);
note = nine;
unicode = 0039;
},
{
color = 9;
glyphname = zero.tf;
lastChange = "2018-05-02 18:04:59 +0000";
layers = (
{
layerId = "60B18B06-8123-4D0C-85E3-2DE7B5C03586";
paths = (
{
closed = 1;
nodes = (
"351 -16 OFFCURVE",
"422 58 OFFCURVE",
"422 169 CURVE SMOOTH",
"422 581 LINE SMOOTH",
"422 692 OFFCURVE",
"351 766 OFFCURVE",
"240 766 CURVE SMOOTH",
"129 766 OFFCURVE",
"57 692 OFFCURVE",
"57 581 CURVE SMOOTH",
"57 169 LINE SMOOTH",
"57 58 OFFCURVE",
"129 -16 OFFCURVE",
"240 -16 CURVE SMOOTH"
);
},
{
closed = 1;
nodes = (
"209 119 OFFCURVE",
"191 139 OFFCURVE",
"191 169 CURVE SMOOTH",
"191 581 LINE SMOOTH",
"191 611 OFFCURVE",
"209 631 OFFCURVE",
"240 631 CURVE SMOOTH",
"270 631 OFFCURVE",
"288 611 OFFCURVE",
"288 581 CURVE SMOOTH",
"288 169 LINE SMOOTH",
"288 139 OFFCURVE",
"270 119 OFFCURVE",
"240 119 CURVE SMOOTH"
);
},
{
closed = 1;
nodes = (
"134 119 LINE",
"209 119 LINE",
"346 631 LINE",
"271 631 LINE"
);
}
);
width = 480;
},
{
hints = (
{
horizontal = 1;
origin = "{0, 13}";
target = "{2, 0}";
},
{
horizontal = 1;
origin = "{0, 6}";
target = "{1, 6}";
}
);
layerId = "DDDB0B36-051A-43AE-9F30-611505482296";
paths = (
{
closed = 1;
nodes = (
"341 -16 OFFCURVE",
"410 58 OFFCURVE",
"410 169 CURVE SMOOTH",
"410 581 LINE SMOOTH",
"410 692 OFFCURVE",
"341 766 OFFCURVE",
"240 766 CURVE SMOOTH",
"138 766 OFFCURVE",
"70 692 OFFCURVE",
"70 581 CURVE SMOOTH",
"70 169 LINE SMOOTH",
"70 58 OFFCURVE",
"138 -16 OFFCURVE",
"240 -16 CURVE SMOOTH"
);
},
{
closed = 1;
nodes = (
"171 39 OFFCURVE",
"125 91 OFFCURVE",
"125 169 CURVE SMOOTH",
"125 581 LINE SMOOTH",
"125 659 OFFCURVE",
"171 711 OFFCURVE",
"240 711 CURVE SMOOTH",
"308 711 OFFCURVE",
"355 659 OFFCURVE",
"355 581 CURVE SMOOTH",
"355 169 LINE SMOOTH",
"355 91 OFFCURVE",
"308 39 OFFCURVE",
"240 39 CURVE SMOOTH"
);
},
{
closed = 1;
nodes = (
"132 39 LINE",
"171 39 LINE",
"348 711 LINE",
"309 711 LINE"
);
}
);
width = 480;
}
);
note = zero;
},
{
color = 9;
glyphname = one.tf;
lastChange = "2018-05-02 18:05:34 +0000";
layers = (
{
layerId = "60B18B06-8123-4D0C-85E3-2DE7B5C03586";
paths = (
{
closed = 1;
nodes = (
"454 0 LINE",
"454 135 LINE",
"308 135 LINE",
"308 750 LINE",
"173 750 LINE",
"173 739 LINE SMOOTH",
"173 692 OFFCURVE",
"136 664 OFFCURVE",
"75 664 CURVE SMOOTH",
"42 664 LINE",
"42 529 LINE",
"173 529 LINE",
"173 135 LINE",
"26 135 LINE",
"26 0 LINE"
);
}
);
width = 480;
},
{
hints = (
{
horizontal = 1;
origin = "{0, 14}";
target = "{0, 13}";
},
{
horizontal = 1;
origin = "{0, 10}";
target = "{0, 9}";
}
);
layerId = "DDDB0B36-051A-43AE-9F30-611505482296";
paths = (
{
closed = 1;
nodes = (
"437 0 LINE",
"437 55 LINE",
"267 55 LINE",
"267 750 LINE",
"212 750 LINE",
"212 739 LINE SMOOTH",
"212 692 OFFCURVE",
"176 664 OFFCURVE",
"115 664 CURVE SMOOTH",
"102 664 LINE",
"102 609 LINE",
"212 609 LINE",
"212 55 LINE",
"42 55 LINE",
"42 0 LINE"
);
}
);
width = 480;
}
);
note = one;
},
{
color = 9;
glyphname = two.tf;
lastChange = "2018-05-02 18:04:59 +0000";
layers = (
{
layerId = "60B18B06-8123-4D0C-85E3-2DE7B5C03586";
paths = (
{
closed = 1;
nodes = (
"431 0 LINE",
"431 135 LINE",
"126 135 LINE",
"187 74 LINE",
"187 150 LINE SMOOTH",
"187 288 OFFCURVE",
"431 295 OFFCURVE",
"431 481 CURVE SMOOTH",
"431 581 LINE SMOOTH",
"431 692 OFFCURVE",
"354 766 OFFCURVE",
"238 766 CURVE SMOOTH",
"122 766 OFFCURVE",
"44 692 OFFCURVE",
"44 581 CURVE SMOOTH",
"44 541 LINE",
"179 541 LINE",
"179 581 LINE SMOOTH",
"179 611 OFFCURVE",
"203 631 OFFCURVE",
"238 631 CURVE SMOOTH",
"273 631 OFFCURVE",
"296 611 OFFCURVE",
"296 581 CURVE SMOOTH",
"296 481 LINE SMOOTH",
"296 365 OFFCURVE",
"44 365 OFFCURVE",
"44 125 CURVE SMOOTH",
"44 0 LINE"
);
}
);
width = 480;
},
{
associatedMasterId = "60B18B06-8123-4D0C-85E3-2DE7B5C03586";
layerId = "F92B29A1-039B-46AC-99A0-1FE44ADB51CB";
name = "Apr 25 18, 17:35";
paths = (
{
closed = 1;
nodes = (
"150 582 LINE SMOOTH",
"150 621 OFFCURVE",
"186 655 OFFCURVE",
"226 655 CURVE SMOOTH",
"265 655 OFFCURVE",
"301 623 OFFCURVE",
"302 582 CURVE SMOOTH",
"304 500 LINE SMOOTH",
"309 322 OFFCURVE",
"41 294 OFFCURVE",
"41 71 CURVE SMOOTH",
"41 0 LINE",
"414 0 LINE",
"414 95 LINE",
"142 95 LINE",
"142 284 OFFCURVE",
"399 275 OFFCURVE",
"399 503 CURVE",
"398 582 LINE SMOOTH",
"397 672 OFFCURVE",
"320 750 OFFCURVE",
"226 750 CURVE SMOOTH",
"134 750 OFFCURVE",
"54 676 OFFCURVE",
"54 582 CURVE SMOOTH",
"54 520 LINE",
"150 520 LINE"
);
}
);
width = 456;
},
{
hints = (
{
horizontal = 1;
origin = "{0, 28}";
target = "{0, 2}";
},
{
horizontal = 1;
origin = "{0, 11}";
target = "{0, 20}";
}
);
layerId = "DDDB0B36-051A-43AE-9F30-611505482296";
paths = (
{
closed = 1;
nodes = (
"420 0 LINE",
"420 55 LINE",
"88 55 LINE",
"113 30 LINE",
"113 62 LINE SMOOTH",
"113 227 OFFCURVE",
"420 349 OFFCURVE",
"420 522 CURVE SMOOTH",
"420 581 LINE SMOOTH",
"420 691 OFFCURVE",
"347 766 OFFCURVE",
"238 766 CURVE SMOOTH",
"129 766 OFFCURVE",
"56 692 OFFCURVE",
"56 581 CURVE SMOOTH",
"56 561 LINE",
"111 561 LINE",
"111 581 LINE SMOOTH",
"111 659 OFFCURVE",
"162 711 OFFCURVE",
"238 711 CURVE SMOOTH",
"314 711 OFFCURVE",
"365 659 OFFCURVE",
"365 581 CURVE SMOOTH",
"365 522 LINE SMOOTH",
"365 361 OFFCURVE",
"56 261 OFFCURVE",
"56 42 CURVE SMOOTH",
"56 0 LINE"
);
}
);
width = 480;
}
);
note = two;
},
{
color = 9;
glyphname = three.tf;
lastChange = "2018-05-02 18:04:59 +0000";
layers = (
{
layerId = "60B18B06-8123-4D0C-85E3-2DE7B5C03586";
paths = (
{
closed = 1;
nodes = (
"343 -16 OFFCURVE",
"419 58 OFFCURVE",
"419 169 CURVE SMOOTH",
"419 269 LINE SMOOTH",
"419 331 OFFCURVE",
"394 381 OFFCURVE",
"353 414 CURVE",
"353 361 LINE",
"394 392 OFFCURVE",
"419 442 OFFCURVE",
"419 504 CURVE SMOOTH",
"419 581 LINE SMOOTH",
"419 692 OFFCURVE",
"343 766 OFFCURVE",
"227 766 CURVE SMOOTH",
"110 766 OFFCURVE",
"35 692 OFFCURVE",
"35 581 CURVE SMOOTH",
"35 541 LINE",
"170 541 LINE",
"170 581 LINE SMOOTH",
"170 611 OFFCURVE",
"191 631 OFFCURVE",
"227 631 CURVE SMOOTH",
"262 631 OFFCURVE",
"284 611 OFFCURVE",
"284 581 CURVE SMOOTH",
"284 504 LINE SMOOTH",
"284 474 OFFCURVE",
"262 454 OFFCURVE",
"227 454 CURVE SMOOTH",
"147 454 LINE",
"147 319 LINE",
"227 319 LINE SMOOTH",
"262 319 OFFCURVE",
"284 299 OFFCURVE",
"284 269 CURVE SMOOTH",
"284 169 LINE SMOOTH",
"284 139 OFFCURVE",
"262 119 OFFCURVE",
"227 119 CURVE SMOOTH",
"191 119 OFFCURVE",
"170 139 OFFCURVE",
"170 169 CURVE SMOOTH",
"170 209 LINE",
"35 209 LINE",
"35 169 LINE SMOOTH",
"35 58 OFFCURVE",
"110 -16 OFFCURVE",
"227 -16 CURVE SMOOTH"
);
}
);
width = 480;
},
{
hints = (
{
horizontal = 1;
origin = "{0, 49}";
target = "{0, 40}";
},
{
horizontal = 1;
origin = "{0, 32}";
target = "{0, 31}";
},
{
horizontal = 1;
origin = "{0, 14}";
target = "{0, 23}";
}
);
layerId = "DDDB0B36-051A-43AE-9F30-611505482296";
paths = (
{
closed = 1;
nodes = (
"335 -16 OFFCURVE",
"406 58 OFFCURVE",
"406 169 CURVE SMOOTH",
"406 225 LINE SMOOTH",
"406 301 OFFCURVE",
"373 361 OFFCURVE",
"316 391 CURVE",
"314 375 LINE",
"373 404 OFFCURVE",
"406 464 OFFCURVE",
"406 540 CURVE SMOOTH",
"406 581 LINE SMOOTH",
"406 692 OFFCURVE",
"335 766 OFFCURVE",
"229 766 CURVE SMOOTH",
"123 766 OFFCURVE",
"51 692 OFFCURVE",
"51 581 CURVE SMOOTH",
"51 561 LINE",
"106 561 LINE",
"106 581 LINE SMOOTH",
"106 659 OFFCURVE",
"156 711 OFFCURVE",
"229 711 CURVE SMOOTH",
"302 711 OFFCURVE",
"351 659 OFFCURVE",
"351 581 CURVE SMOOTH",
"351 540 LINE SMOOTH",
"351 462 OFFCURVE",
"302 410 OFFCURVE",
"229 410 CURVE SMOOTH",
"176 410 LINE",
"176 355 LINE",
"229 355 LINE SMOOTH",
"302 355 OFFCURVE",
"351 303 OFFCURVE",
"351 225 CURVE SMOOTH",
"351 169 LINE SMOOTH",
"351 91 OFFCURVE",
"302 39 OFFCURVE",
"229 39 CURVE SMOOTH",
"156 39 OFFCURVE",
"106 91 OFFCURVE",
"106 169 CURVE SMOOTH",
"106 189 LINE",
"51 189 LINE",
"51 169 LINE SMOOTH",
"51 58 OFFCURVE",
"123 -16 OFFCURVE",
"229 -16 CURVE SMOOTH"
);
}
);
width = 480;
}
);
note = three;
},
{
color = 9;
glyphname = four.tf;
lastChange = "2018-05-02 18:05:38 +0000";
layers = (
{
layerId = "60B18B06-8123-4D0C-85E3-2DE7B5C03586";
paths = (
{
closed = 1;
nodes = (
"396 0 LINE",
"396 128 LINE",
"453 128 LINE",
"453 263 LINE",
"396 263 LINE",
"396 750 LINE",
"278 750 LINE",
"14 244 LINE",
"14 128 LINE",
"261 128 LINE",
"261 0 LINE"
);
},
{
closed = 1;
nodes = (
"261 481 LINE",
"261 263 LINE",
"94 263 LINE",
"128 208 LINE"
);
}
);
width = 480;
},
{
hints = (
{
horizontal = 1;
origin = "{0, 10}";
target = up;
type = BottomGhost;
},
{
horizontal = 1;
origin = "{0, 8}";
target = "{0, 7}";
},
{
horizontal = 1;
origin = "{0, 6}";
target = down;
type = TopGhost;
}
);
layerId = "DDDB0B36-051A-43AE-9F30-611505482296";
paths = (
{
closed = 1;
nodes = (
"377 0 LINE",
"377 175 LINE",
"451 175 LINE",
"451 229 LINE",
"377 229 LINE",
"377 750 LINE",
"316 750 LINE",
"29 229 LINE",
"29 175 LINE",
"322 175 LINE",
"322 0 LINE"
);
},
{
closed = 1;
nodes = (
"322 661 LINE",
"322 229 LINE",
"61 229 LINE",
"74 207 LINE"
);
}
);
width = 480;
}
);
note = four;
},
{
color = 9;
glyphname = five.tf;
lastChange = "2018-05-02 18:04:59 +0000";
layers = (
{
layerId = "60B18B06-8123-4D0C-85E3-2DE7B5C03586";
paths = (
{
closed = 1;
nodes = (
"365 -16 OFFCURVE",
"439 58 OFFCURVE",
"439 169 CURVE SMOOTH",
"439 309 LINE SMOOTH",
"439 420 OFFCURVE",
"365 494 OFFCURVE",
"261 494 CURVE SMOOTH",
"218 494 OFFCURVE",
"190 478 OFFCURVE",
"173 453 CURVE",
"199 418 LINE",
"199 676 LINE",
"138 615 LINE",
"409 615 LINE",
"409 750 LINE",
"64 750 LINE",
"64 302 LINE",
"199 302 LINE",
"199 309 LINE SMOOTH",
"199 339 OFFCURVE",
"218 359 OFFCURVE",
"251 359 CURVE SMOOTH",
"284 359 OFFCURVE",
"304 339 OFFCURVE",
"304 309 CURVE SMOOTH",
"304 169 LINE SMOOTH",
"304 139 OFFCURVE",
"284 119 OFFCURVE",
"251 119 CURVE SMOOTH",
"218 119 OFFCURVE",
"199 139 OFFCURVE",
"199 169 CURVE SMOOTH",
"199 209 LINE",
"64 209 LINE",
"64 169 LINE SMOOTH",
"64 58 OFFCURVE",
"137 -16 OFFCURVE",
"251 -16 CURVE SMOOTH"
);
}
);
width = 480;
},
{
hints = (
{
horizontal = 1;
origin = "{0, 37}";
target = "{0, 28}";
},
{
horizontal = 1;
origin = "{0, 21}";
target = "{0, 6}";
},
{
horizontal = 1;
origin = "{0, 15}";
target = "{0, 12}";
}
);
layerId = "DDDB0B36-051A-43AE-9F30-611505482296";
paths = (
{
closed = 1;
nodes = (
"353 -16 OFFCURVE",
"422 58 OFFCURVE",
"422 169 CURVE SMOOTH",
"422 318 LINE SMOOTH",
"422 429 OFFCURVE",
"353 503 OFFCURVE",
"249 503 CURVE SMOOTH",
"193 503 OFFCURVE",
"148 477 OFFCURVE",
"122 431 CURVE",
"131 420 LINE",
"131 720 LINE",
"106 695 LINE",
"422 695 LINE",
"422 750 LINE",
"76 750 LINE",
"76 307 LINE",
"131 307 LINE",
"131 319 LINE SMOOTH",
"131 397 OFFCURVE",
"176 448 OFFCURVE",
"243 448 CURVE SMOOTH",
"320 448 OFFCURVE",
"367 396 OFFCURVE",
"367 318 CURVE SMOOTH",
"367 169 LINE SMOOTH",
"367 91 OFFCURVE",
"320 39 OFFCURVE",
"249 39 CURVE SMOOTH",
"179 39 OFFCURVE",
"131 91 OFFCURVE",
"131 169 CURVE SMOOTH",
"131 189 LINE",
"76 189 LINE",
"76 169 LINE SMOOTH",
"76 58 OFFCURVE",
"146 -16 OFFCURVE",
"249 -16 CURVE SMOOTH"
);
}
);
width = 480;
},
{
associatedMasterId = "DDDB0B36-051A-43AE-9F30-611505482296";
layerId = "2F00CE1A-B26B-4236-88BB-68A23E01396B";
name = "Apr 26 18, 16:09";
paths = (
{
closed = 1;
nodes = (
"361 -12 OFFCURVE",
"431 62 OFFCURVE",
"431 173 CURVE SMOOTH",
"431 225 LINE SMOOTH",
"431 336 OFFCURVE",
"361 410 OFFCURVE",
"256 410 CURVE SMOOTH",
"256 410 LINE",
"250 355 LINE",
"328 355 OFFCURVE",
"376 303 OFFCURVE",
"376 225 CURVE SMOOTH",
"376 173 LINE SMOOTH",
"376 95 OFFCURVE",
"328 43 OFFCURVE",
"256 43 CURVE SMOOTH",
"184 43 OFFCURVE",
"136 95 OFFCURVE",
"136 173 CURVE SMOOTH",
"136 193 LINE",
"81 193 LINE",
"81 173 LINE SMOOTH",
"81 62 OFFCURVE",
"151 -12 OFFCURVE",
"256 -12 CURVE SMOOTH"
);
},
{
closed = 1;
nodes = (
"256 410 LINE",
"161 410 OFFCURVE",
"103 337 OFFCURVE",
"103 226 CURVE SMOOTH",
"103 214 LINE",
"139 214 LINE",
"139 226 LINE SMOOTH",
"139 304 OFFCURVE",
"181 355 OFFCURVE",
"250 355 CURVE"
);
}
);
width = 600;
}
);
note = five;
},
{
color = 9;
glyphname = six.tf;
lastChange = "2018-05-02 18:04:59 +0000";
layers = (
{
layerId = "60B18B06-8123-4D0C-85E3-2DE7B5C03586";
paths = (
{
closed = 1;
nodes = (
"357 -16 OFFCURVE",
"430 58 OFFCURVE",
"430 169 CURVE SMOOTH",
"430 309 LINE SMOOTH",
"430 420 OFFCURVE",
"357 494 OFFCURVE",
"254 494 CURVE SMOOTH",
"215 494 OFFCURVE",
"186 480 OFFCURVE",
"168 453 CURVE",
"194 418 LINE",
"194 581 LINE SMOOTH",
"194 611 OFFCURVE",
"213 631 OFFCURVE",
"244 631 CURVE SMOOTH",
"276 631 OFFCURVE",
"295 611 OFFCURVE",
"295 581 CURVE SMOOTH",
"295 541 LINE",
"430 541 LINE",
"430 581 LINE SMOOTH",
"430 692 OFFCURVE",
"357 766 OFFCURVE",
"244 766 CURVE SMOOTH",
"132 766 OFFCURVE",
"59 692 OFFCURVE",
"59 581 CURVE SMOOTH",
"59 169 LINE SMOOTH",
"59 58 OFFCURVE",
"132 -16 OFFCURVE",
"244 -16 CURVE SMOOTH"
);
},
{
closed = 1;
nodes = (
"213 119 OFFCURVE",
"194 139 OFFCURVE",
"194 169 CURVE SMOOTH",
"194 309 LINE SMOOTH",
"194 339 OFFCURVE",
"213 359 OFFCURVE",
"244 359 CURVE SMOOTH",
"276 359 OFFCURVE",
"295 339 OFFCURVE",
"295 309 CURVE SMOOTH",
"295 169 LINE SMOOTH",
"295 139 OFFCURVE",
"276 119 OFFCURVE",
"244 119 CURVE SMOOTH"
);
}
);
width = 480;
},
{
hints = (
{
horizontal = 1;
origin = "{0, 30}";
target = "{1, 13}";
},
{
horizontal = 1;
origin = "{1, 6}";
target = "{0, 6}";
},
{
horizontal = 1;
origin = "{0, 23}";
target = "{0, 14}";
}
);
layerId = "DDDB0B36-051A-43AE-9F30-611505482296";
paths = (
{
closed = 1;
nodes = (
"347 -16 OFFCURVE",
"416 58 OFFCURVE",
"416 169 CURVE SMOOTH",
"416 318 LINE SMOOTH",
"416 429 OFFCURVE",
"347 503 OFFCURVE",
"245 503 CURVE SMOOTH",
"189 503 OFFCURVE",
"144 477 OFFCURVE",
"119 431 CURVE",
"128 420 LINE",
"128 581 LINE SMOOTH",
"128 659 OFFCURVE",
"175 711 OFFCURVE",
"245 711 CURVE SMOOTH",
"314 711 OFFCURVE",
"361 659 OFFCURVE",
"361 581 CURVE SMOOTH",
"361 561 LINE",
"416 561 LINE",
"416 581 LINE SMOOTH",
"416 692 OFFCURVE",
"347 766 OFFCURVE",
"245 766 CURVE SMOOTH",
"142 766 OFFCURVE",
"73 692 OFFCURVE",
"73 581 CURVE SMOOTH",
"73 169 LINE SMOOTH",
"73 58 OFFCURVE",
"142 -16 OFFCURVE",
"245 -16 CURVE SMOOTH"
);
},
{
closed = 1;
nodes = (
"175 39 OFFCURVE",
"128 91 OFFCURVE",
"128 169 CURVE SMOOTH",
"128 319 LINE SMOOTH",
"128 397 OFFCURVE",
"172 448 OFFCURVE",
"239 448 CURVE SMOOTH",
"314 448 OFFCURVE",
"361 396 OFFCURVE",
"361 318 CURVE SMOOTH",
"361 169 LINE SMOOTH",
"361 91 OFFCURVE",
"314 39 OFFCURVE",
"245 39 CURVE SMOOTH"
);
}
);
width = 480;
}
);
note = six;
},
{
color = 9;
glyphname = seven.tf;
lastChange = "2018-05-02 18:05:39 +0000";
layers = (
{
layerId = "60B18B06-8123-4D0C-85E3-2DE7B5C03586";
paths = (
{
closed = 1;
nodes = (
"230 0 LINE",
"444 624 LINE",
"444 750 LINE",
"27 750 LINE",
"27 615 LINE",
"370 615 LINE",
"329 672 LINE",
"89 0 LINE"
);
}
);
width = 480;
},
{
hints = (
{
horizontal = 1;
origin = "{0, 7}";
target = up;
type = BottomGhost;
},
{
horizontal = 1;
origin = "{0, 3}";
target = "{0, 4}";
}
);
layerId = "DDDB0B36-051A-43AE-9F30-611505482296";
paths = (
{
closed = 1;
nodes = (
"208 0 LINE",
"423 704 LINE",
"423 750 LINE",
"46 750 LINE",
"46 695 LINE",
"384 695 LINE",
"366 719 LINE",
"148 0 LINE"
);
}
);
width = 480;
}
);
note = seven;
},
{
color = 9;
glyphname = eight.tf;
lastChange = "2018-05-02 18:04:59 +0000";
layers = (
{
layerId = "60B18B06-8123-4D0C-85E3-2DE7B5C03586";
paths = (
{
closed = 1;
nodes = (
"353 -16 OFFCURVE",
"425 58 OFFCURVE",
"425 169 CURVE SMOOTH",
"425 266 LINE SMOOTH",
"425 328 OFFCURVE",
"402 378 OFFCURVE",
"364 411 CURVE",
"364 358 LINE",
"402 389 OFFCURVE",
"425 439 OFFCURVE",
"425 501 CURVE SMOOTH",
"425 581 LINE SMOOTH",
"425 692 OFFCURVE",
"353 766 OFFCURVE",
"240 766 CURVE SMOOTH",
"127 766 OFFCURVE",
"55 692 OFFCURVE",
"55 581 CURVE SMOOTH",
"55 501 LINE SMOOTH",
"55 439 OFFCURVE",
"78 389 OFFCURVE",
"116 358 CURVE",
"116 411 LINE",
"78 378 OFFCURVE",
"55 328 OFFCURVE",
"55 266 CURVE SMOOTH",
"55 169 LINE SMOOTH",
"55 58 OFFCURVE",
"127 -16 OFFCURVE",
"240 -16 CURVE SMOOTH"
);
},
{
closed = 1;
nodes = (
"208 119 OFFCURVE",
"190 139 OFFCURVE",
"190 169 CURVE SMOOTH",
"190 266 LINE SMOOTH",
"190 296 OFFCURVE",
"208 316 OFFCURVE",
"240 316 CURVE SMOOTH",
"272 316 OFFCURVE",
"290 296 OFFCURVE",
"290 266 CURVE SMOOTH",
"290 169 LINE SMOOTH",
"290 139 OFFCURVE",
"272 119 OFFCURVE",
"240 119 CURVE SMOOTH"
);
},
{
closed = 1;
nodes = (
"208 451 OFFCURVE",
"190 471 OFFCURVE",
"190 501 CURVE SMOOTH",
"190 581 LINE SMOOTH",
"190 611 OFFCURVE",
"208 631 OFFCURVE",
"240 631 CURVE SMOOTH",
"272 631 OFFCURVE",
"290 611 OFFCURVE",
"290 581 CURVE SMOOTH",
"290 501 LINE SMOOTH",
"290 471 OFFCURVE",
"272 451 OFFCURVE",
"240 451 CURVE SMOOTH"
);
}
);
width = 480;
},
{
hints = (
{
horizontal = 1;
origin = "{0, 29}";
target = "{1, 13}";
},
{
horizontal = 1;
origin = "{1, 6}";
target = "{2, 13}";
},
{
horizontal = 1;
origin = "{0, 14}";
target = "{2, 6}";
}
);
layerId = "DDDB0B36-051A-43AE-9F30-611505482296";
paths = (
{
closed = 1;
nodes = (
"343 -16 OFFCURVE",
"413 58 OFFCURVE",
"413 169 CURVE SMOOTH",
"413 225 LINE SMOOTH",
"413 300 OFFCURVE",
"382 360 OFFCURVE",
"325 391 CURVE",
"324 375 LINE",
"377 402 OFFCURVE",
"413 459 OFFCURVE",
"413 540 CURVE SMOOTH",
"413 581 LINE SMOOTH",
"413 692 OFFCURVE",
"343 766 OFFCURVE",
"240 766 CURVE SMOOTH",
"137 766 OFFCURVE",
"67 692 OFFCURVE",
"67 581 CURVE SMOOTH",
"67 540 LINE SMOOTH",
"67 459 OFFCURVE",
"103 402 OFFCURVE",
"156 375 CURVE",
"155 391 LINE",
"100 361 OFFCURVE",
"67 303 OFFCURVE",
"67 225 CURVE SMOOTH",
"67 169 LINE SMOOTH",
"67 58 OFFCURVE",
"137 -16 OFFCURVE",
"240 -16 CURVE SMOOTH"
);
},
{
closed = 1;
nodes = (
"170 39 OFFCURVE",
"122 91 OFFCURVE",
"122 169 CURVE SMOOTH",
"122 225 LINE SMOOTH",
"122 303 OFFCURVE",
"170 355 OFFCURVE",
"240 355 CURVE SMOOTH",
"310 355 OFFCURVE",
"358 303 OFFCURVE",
"358 225 CURVE SMOOTH",
"358 169 LINE SMOOTH",
"358 91 OFFCURVE",
"310 39 OFFCURVE",
"240 39 CURVE SMOOTH"
);
},
{
closed = 1;
nodes = (
"170 410 OFFCURVE",
"122 462 OFFCURVE",
"122 540 CURVE SMOOTH",
"122 581 LINE SMOOTH",
"122 659 OFFCURVE",
"170 711 OFFCURVE",
"240 711 CURVE SMOOTH",
"310 711 OFFCURVE",
"358 659 OFFCURVE",
"358 581 CURVE SMOOTH",
"358 540 LINE SMOOTH",
"358 462 OFFCURVE",
"310 410 OFFCURVE",
"240 410 CURVE SMOOTH"
);
}
);
width = 480;
}
);
note = eight;
},
{
color = 9;
glyphname = nine.tf;
lastChange = "2018-05-02 18:04:59 +0000";
layers = (
{
layerId = "60B18B06-8123-4D0C-85E3-2DE7B5C03586";
paths = (
{
closed = 1;
nodes = (
"349 -16 OFFCURVE",
"421 58 OFFCURVE",
"421 169 CURVE SMOOTH",
"421 581 LINE SMOOTH",
"421 692 OFFCURVE",
"349 766 OFFCURVE",
"236 766 CURVE SMOOTH",
"123 766 OFFCURVE",
"51 692 OFFCURVE",
"51 581 CURVE SMOOTH",
"51 441 LINE SMOOTH",
"51 330 OFFCURVE",
"123 256 OFFCURVE",
"226 256 CURVE SMOOTH",
"266 256 OFFCURVE",
"294 270 OFFCURVE",
"312 297 CURVE",
"286 332 LINE",
"286 169 LINE SMOOTH",
"286 139 OFFCURVE",
"268 119 OFFCURVE",
"236 119 CURVE SMOOTH",
"204 119 OFFCURVE",
"186 139 OFFCURVE",
"186 169 CURVE SMOOTH",
"186 209 LINE",
"51 209 LINE",
"51 169 LINE SMOOTH",
"51 58 OFFCURVE",
"123 -16 OFFCURVE",
"236 -16 CURVE SMOOTH"
);
},
{
closed = 1;
nodes = (
"204 391 OFFCURVE",
"186 411 OFFCURVE",
"186 441 CURVE SMOOTH",
"186 581 LINE SMOOTH",
"186 611 OFFCURVE",
"204 631 OFFCURVE",
"236 631 CURVE SMOOTH",
"268 631 OFFCURVE",
"286 611 OFFCURVE",
"286 581 CURVE SMOOTH",
"286 441 LINE SMOOTH",
"286 411 OFFCURVE",
"268 391 OFFCURVE",
"236 391 CURVE SMOOTH"
);
}
);
width = 480;
},
{
hints = (
{
horizontal = 1;
origin = "{0, 30}";
target = "{0, 21}";
},
{
horizontal = 1;
origin = "{0, 13}";
target = "{1, 13}";
},
{
horizontal = 1;
origin = "{0, 6}";
target = "{1, 6}";
}
);
layerId = "DDDB0B36-051A-43AE-9F30-611505482296";
paths = (
{
closed = 1;
nodes = (
"338 -16 OFFCURVE",
"407 58 OFFCURVE",
"407 169 CURVE SMOOTH",
"407 581 LINE SMOOTH",
"407 692 OFFCURVE",
"338 766 OFFCURVE",
"236 766 CURVE SMOOTH",
"133 766 OFFCURVE",
"64 692 OFFCURVE",
"64 581 CURVE SMOOTH",
"64 432 LINE SMOOTH",
"64 321 OFFCURVE",
"133 247 OFFCURVE",
"235 247 CURVE SMOOTH",
"290 247 OFFCURVE",
"336 273 OFFCURVE",
"361 319 CURVE",
"352 330 LINE",
"352 169 LINE SMOOTH",
"352 91 OFFCURVE",
"305 39 OFFCURVE",
"236 39 CURVE SMOOTH",
"166 39 OFFCURVE",
"119 91 OFFCURVE",
"119 169 CURVE SMOOTH",
"119 189 LINE",
"64 189 LINE",
"64 169 LINE SMOOTH",
"64 58 OFFCURVE",
"133 -16 OFFCURVE",
"236 -16 CURVE SMOOTH"
);
},
{
closed = 1;
nodes = (
"166 302 OFFCURVE",
"119 354 OFFCURVE",
"119 432 CURVE SMOOTH",
"119 581 LINE SMOOTH",
"119 659 OFFCURVE",
"166 711 OFFCURVE",
"236 711 CURVE SMOOTH",
"305 711 OFFCURVE",
"352 659 OFFCURVE",
"352 581 CURVE SMOOTH",
"352 431 LINE SMOOTH",
"352 353 OFFCURVE",
"308 302 OFFCURVE",
"241 302 CURVE SMOOTH"
);
}
);
width = 480;
}
);
note = nine;
},
{
glyphname = twoinferior;
lastChange = "2018-05-02 06:07:58 +0000";
layers = (
{
components = (
{
name = two.dnom;
transform = "{1, 0, 0, 1, 0, -30}";
}
);
layerId = "60B18B06-8123-4D0C-85E3-2DE7B5C03586";
width = 301;
},
{
associatedMasterId = "60B18B06-8123-4D0C-85E3-2DE7B5C03586";
layerId = "F92B29A1-039B-46AC-99A0-1FE44ADB51CB";
name = "Apr 25 18, 17:35";
paths = (
{
closed = 1;
nodes = (
"150 582 LINE SMOOTH",
"150 621 OFFCURVE",
"186 655 OFFCURVE",
"226 655 CURVE SMOOTH",
"265 655 OFFCURVE",
"301 623 OFFCURVE",
"302 582 CURVE SMOOTH",
"304 500 LINE SMOOTH",
"309 322 OFFCURVE",
"41 294 OFFCURVE",
"41 71 CURVE SMOOTH",
"41 0 LINE",
"414 0 LINE",
"414 95 LINE",
"142 95 LINE",
"142 284 OFFCURVE",
"399 275 OFFCURVE",
"399 503 CURVE",
"398 582 LINE SMOOTH",
"397 672 OFFCURVE",
"320 750 OFFCURVE",
"226 750 CURVE SMOOTH",
"134 750 OFFCURVE",
"54 676 OFFCURVE",
"54 582 CURVE SMOOTH",
"54 520 LINE",
"150 520 LINE"
);
}
);
width = 456;
},
{
components = (
{
name = two.dnom;
transform = "{1, 0, 0, 1, 0, -30}";
}
);
layerId = "DDDB0B36-051A-43AE-9F30-611505482296";
width = 272;
}
);
note = two;
unicode = 2082;
},
{
glyphname = fiveinferior;
lastChange = "2018-05-02 06:07:58 +0000";
layers = (
{
components = (
{
name = five.dnom;
transform = "{1, 0, 0, 1, 0, -30}";
}
);
layerId = "60B18B06-8123-4D0C-85E3-2DE7B5C03586";
width = 315;
},
{
components = (
{
name = five.dnom;
transform = "{1, 0, 0, 1, 0, -30}";
}
);
layerId = "DDDB0B36-051A-43AE-9F30-611505482296";
width = 304;
},
{
associatedMasterId = "DDDB0B36-051A-43AE-9F30-611505482296";
layerId = "2F00CE1A-B26B-4236-88BB-68A23E01396B";
name = "Apr 26 18, 16:09";
paths = (
{
closed = 1;
nodes = (
"361 -12 OFFCURVE",
"431 62 OFFCURVE",
"431 173 CURVE SMOOTH",
"431 225 LINE SMOOTH",
"431 336 OFFCURVE",
"361 410 OFFCURVE",
"256 410 CURVE SMOOTH",
"256 410 LINE",
"250 355 LINE",
"328 355 OFFCURVE",
"376 303 OFFCURVE",
"376 225 CURVE SMOOTH",
"376 173 LINE SMOOTH",
"376 95 OFFCURVE",
"328 43 OFFCURVE",
"256 43 CURVE SMOOTH",
"184 43 OFFCURVE",
"136 95 OFFCURVE",
"136 173 CURVE SMOOTH",
"136 193 LINE",
"81 193 LINE",
"81 173 LINE SMOOTH",
"81 62 OFFCURVE",
"151 -12 OFFCURVE",
"256 -12 CURVE SMOOTH"
);
},
{
closed = 1;
nodes = (
"256 410 LINE",
"161 410 OFFCURVE",
"103 337 OFFCURVE",
"103 226 CURVE SMOOTH",
"103 214 LINE",
"139 214 LINE",
"139 226 LINE SMOOTH",
"139 304 OFFCURVE",
"181 355 OFFCURVE",
"250 355 CURVE"
);
}
);
width = 600;
}
);
note = five;
unicode = 2085;
},
{
glyphname = zero.dnom;
lastChange = "2018-05-02 18:04:59 +0000";
layers = (
{
layerId = "60B18B06-8123-4D0C-85E3-2DE7B5C03586";
paths = (
{
closed = 1;
nodes = (
"230 -10 OFFCURVE",
"274 35 OFFCURVE",
"274 101 CURVE SMOOTH",
"274 349 LINE SMOOTH",
"274 415 OFFCURVE",
"230 460 OFFCURVE",
"163 460 CURVE SMOOTH",
"95 460 OFFCURVE",
"51 415 OFFCURVE",
"51 349 CURVE SMOOTH",
"51 101 LINE SMOOTH",
"51 35 OFFCURVE",
"95 -10 OFFCURVE",
"163 -10 CURVE SMOOTH"
);
},
{
closed = 1;
nodes = (
"146 75 OFFCURVE",
"136 86 OFFCURVE",
"136 101 CURVE SMOOTH",
"136 349 LINE SMOOTH",
"136 364 OFFCURVE",
"146 375 OFFCURVE",
"163 375 CURVE SMOOTH",
"179 375 OFFCURVE",
"189 364 OFFCURVE",
"189 349 CURVE SMOOTH",
"189 101 LINE SMOOTH",
"189 86 OFFCURVE",
"179 75 OFFCURVE",
"163 75 CURVE SMOOTH"
);
},
{
closed = 1;
nodes = (
"99 75 LINE",
"145 75 LINE",
"227 375 LINE",
"180 375 LINE"
);
}
);
width = 325;
},
{
hints = (
{
horizontal = 1;
origin = "{0, 13}";
target = "{2, 0}";
},
{
horizontal = 1;
origin = "{1, 6}";
target = "{0, 6}";
}
);
layerId = "DDDB0B36-051A-43AE-9F30-611505482296";
paths = (
{
closed = 1;
nodes = (
"221 -10 OFFCURVE",
"264 35 OFFCURVE",
"264 101 CURVE SMOOTH",
"264 349 LINE SMOOTH",
"264 415 OFFCURVE",
"221 460 OFFCURVE",
"158 460 CURVE SMOOTH",
"94 460 OFFCURVE",
"51 415 OFFCURVE",
"51 349 CURVE SMOOTH",
"51 101 LINE SMOOTH",
"51 35 OFFCURVE",
"94 -10 OFFCURVE",
"158 -10 CURVE SMOOTH"
);
},
{
closed = 1;
nodes = (
"121 35 OFFCURVE",
"96 62 OFFCURVE",
"96 101 CURVE SMOOTH",
"96 349 LINE SMOOTH",
"96 388 OFFCURVE",
"121 415 OFFCURVE",
"158 415 CURVE SMOOTH",
"194 415 OFFCURVE",
"219 388 OFFCURVE",
"219 349 CURVE SMOOTH",
"219 101 LINE SMOOTH",
"219 62 OFFCURVE",
"194 35 OFFCURVE",
"158 35 CURVE SMOOTH"
);
},
{
closed = 1;
nodes = (
"87 35 LINE",
"120 35 LINE",
"229 415 LINE",
"195 415 LINE"
);
}
);
width = 315;
}
);
note = zero;
},
{
glyphname = one.dnom;
lastChange = "2018-05-02 18:05:43 +0000";
layers = (
{
layerId = "60B18B06-8123-4D0C-85E3-2DE7B5C03586";
paths = (
{
closed = 1;
nodes = (
"168 0 LINE",
"168 450 LINE",
"83 450 LINE",
"83 443 LINE SMOOTH",
"83 415 OFFCURVE",
"64 398 OFFCURVE",
"33 398 CURVE SMOOTH",
"12 398 LINE",
"12 313 LINE",
"83 313 LINE",
"83 0 LINE"
);
}
);
width = 228;
},
{
hints = (
{
horizontal = 1;
origin = "{0, 10}";
target = up;
type = BottomGhost;
},
{
horizontal = 1;
origin = "{0, 8}";
target = "{0, 7}";
}
);
layerId = "DDDB0B36-051A-43AE-9F30-611505482296";
paths = (
{
closed = 1;
nodes = (
"118 0 LINE",
"118 450 LINE",
"73 450 LINE",
"73 443 LINE SMOOTH",
"73 415 OFFCURVE",
"54 398 OFFCURVE",
"23 398 CURVE SMOOTH",
"12 398 LINE",
"12 353 LINE",
"73 353 LINE",
"73 0 LINE"
);
}
);
width = 178;
}
);
note = one;
},
{
glyphname = two.dnom;
lastChange = "2018-05-02 18:04:59 +0000";
layers = (
{
layerId = "60B18B06-8123-4D0C-85E3-2DE7B5C03586";
paths = (
{
closed = 1;
nodes = (
"260 0 LINE",
"260 85 LINE",
"127 85 LINE",
"127 94 LINE SMOOTH",
"127 176 OFFCURVE",
"260 174 OFFCURVE",
"260 287 CURVE SMOOTH",
"260 349 LINE SMOOTH",
"260 415 OFFCURVE",
"216 460 OFFCURVE",
"148 460 CURVE SMOOTH",
"81 460 OFFCURVE",
"37 415 OFFCURVE",
"37 349 CURVE SMOOTH",
"37 324 LINE",
"122 324 LINE",
"122 349 LINE SMOOTH",
"122 364 OFFCURVE",
"132 375 OFFCURVE",
"148 375 CURVE SMOOTH",
"165 375 OFFCURVE",
"175 364 OFFCURVE",
"175 349 CURVE SMOOTH",
"175 287 LINE SMOOTH",
"175 219 OFFCURVE",
"37 224 OFFCURVE",
"37 79 CURVE SMOOTH",
"37 0 LINE"
);
}
);
width = 301;
},
{
associatedMasterId = "60B18B06-8123-4D0C-85E3-2DE7B5C03586";
layerId = "F92B29A1-039B-46AC-99A0-1FE44ADB51CB";
name = "Apr 25 18, 17:35";
paths = (
{
closed = 1;
nodes = (
"150 582 LINE SMOOTH",
"150 621 OFFCURVE",
"186 655 OFFCURVE",
"226 655 CURVE SMOOTH",
"265 655 OFFCURVE",
"301 623 OFFCURVE",
"302 582 CURVE SMOOTH",
"304 500 LINE SMOOTH",
"309 322 OFFCURVE",
"41 294 OFFCURVE",
"41 71 CURVE SMOOTH",
"41 0 LINE",
"414 0 LINE",
"414 95 LINE",
"142 95 LINE",
"142 284 OFFCURVE",
"399 275 OFFCURVE",
"399 503 CURVE",
"398 582 LINE SMOOTH",
"397 672 OFFCURVE",
"320 750 OFFCURVE",
"226 750 CURVE SMOOTH",
"134 750 OFFCURVE",
"54 676 OFFCURVE",
"54 582 CURVE SMOOTH",
"54 520 LINE",
"150 520 LINE"
);
}
);
width = 456;
},
{
hints = (
{
horizontal = 1;
origin = "{0, 27}";
target = "{0, 2}";
},
{
horizontal = 1;
origin = "{0, 19}";
target = "{0, 10}";
}
);
layerId = "DDDB0B36-051A-43AE-9F30-611505482296";
paths = (
{
closed = 1;
nodes = (
"241 0 LINE",
"241 45 LINE",
"75 45 LINE",
"75 50 LINE SMOOTH",
"75 145 OFFCURVE",
"241 201 OFFCURVE",
"241 307 CURVE SMOOTH",
"241 349 LINE SMOOTH",
"241 415 OFFCURVE",
"198 460 OFFCURVE",
"134 460 CURVE SMOOTH",
"71 460 OFFCURVE",
"28 415 OFFCURVE",
"28 349 CURVE SMOOTH",
"28 334 LINE",
"73 334 LINE",
"73 349 LINE SMOOTH",
"73 388 OFFCURVE",
"98 415 OFFCURVE",
"134 415 CURVE SMOOTH",
"171 415 OFFCURVE",
"196 388 OFFCURVE",
"196 349 CURVE SMOOTH",
"196 307 LINE SMOOTH",
"196 217 OFFCURVE",
"28 172 OFFCURVE",
"28 38 CURVE SMOOTH",
"28 0 LINE"
);
}
);
width = 272;
}
);
note = two;
},
{
glyphname = three.dnom;
lastChange = "2018-05-02 18:04:59 +0000";
layers = (
{
layerId = "60B18B06-8123-4D0C-85E3-2DE7B5C03586";
paths = (
{
closed = 1;
nodes = (
"211 -10 OFFCURVE",
"255 35 OFFCURVE",
"255 101 CURVE SMOOTH",
"255 164 LINE SMOOTH",
"255 190 OFFCURVE",
"248 214 OFFCURVE",
"235 232 CURVE",
"248 250 OFFCURVE",
"255 275 OFFCURVE",
"255 301 CURVE SMOOTH",
"255 349 LINE SMOOTH",
"255 415 OFFCURVE",
"211 460 OFFCURVE",
"144 460 CURVE SMOOTH",
"76 460 OFFCURVE",
"32 415 OFFCURVE",
"32 349 CURVE SMOOTH",
"32 324 LINE",
"117 324 LINE",
"117 349 LINE SMOOTH",
"117 364 OFFCURVE",
"127 375 OFFCURVE",
"144 375 CURVE SMOOTH",
"160 375 OFFCURVE",
"170 364 OFFCURVE",
"170 349 CURVE SMOOTH",
"170 301 LINE SMOOTH",
"170 285 OFFCURVE",
"160 275 OFFCURVE",
"144 275 CURVE SMOOTH",
"95 275 LINE",
"95 190 LINE",
"144 190 LINE SMOOTH",
"160 190 OFFCURVE",
"170 179 OFFCURVE",
"170 164 CURVE SMOOTH",
"170 101 LINE SMOOTH",
"170 86 OFFCURVE",
"160 75 OFFCURVE",
"144 75 CURVE SMOOTH",
"127 75 OFFCURVE",
"117 86 OFFCURVE",
"117 101 CURVE SMOOTH",
"117 126 LINE",
"32 126 LINE",
"32 101 LINE SMOOTH",
"32 35 OFFCURVE",
"76 -10 OFFCURVE",
"144 -10 CURVE SMOOTH"
);
}
);
width = 304;
},
{
hints = (
{
horizontal = 1;
origin = "{0, 48}";
target = "{0, 39}";
},
{
horizontal = 1;
origin = "{0, 31}";
target = "{0, 30}";
},
{
horizontal = 1;
origin = "{0, 22}";
target = "{0, 13}";
}
);
layerId = "DDDB0B36-051A-43AE-9F30-611505482296";
paths = (
{
closed = 1;
nodes = (
"198 -10 OFFCURVE",
"241 35 OFFCURVE",
"241 101 CURVE SMOOTH",
"241 142 LINE SMOOTH",
"241 184 OFFCURVE",
"224 213 OFFCURVE",
"201 230 CURVE",
"228 250 OFFCURVE",
"241 282 OFFCURVE",
"241 319 CURVE SMOOTH",
"241 349 LINE SMOOTH",
"241 415 OFFCURVE",
"198 460 OFFCURVE",
"135 460 CURVE SMOOTH",
"71 460 OFFCURVE",
"28 415 OFFCURVE",
"28 349 CURVE SMOOTH",
"28 334 LINE",
"73 334 LINE",
"73 349 LINE SMOOTH",
"73 388 OFFCURVE",
"98 415 OFFCURVE",
"135 415 CURVE SMOOTH",
"171 415 OFFCURVE",
"196 388 OFFCURVE",
"196 349 CURVE SMOOTH",
"196 319 LINE SMOOTH",
"196 279 OFFCURVE",
"171 253 OFFCURVE",
"135 253 CURVE SMOOTH",
"99 253 LINE",
"99 208 LINE",
"135 208 LINE SMOOTH",
"171 208 OFFCURVE",
"196 181 OFFCURVE",
"196 142 CURVE SMOOTH",
"196 101 LINE SMOOTH",
"196 62 OFFCURVE",
"171 35 OFFCURVE",
"135 35 CURVE SMOOTH",
"98 35 OFFCURVE",
"73 62 OFFCURVE",
"73 101 CURVE SMOOTH",
"73 116 LINE",
"28 116 LINE",
"28 101 LINE SMOOTH",
"28 35 OFFCURVE",
"71 -10 OFFCURVE",
"135 -10 CURVE SMOOTH"
);
}
);
width = 288;
}
);
note = three;
},
{
glyphname = four.dnom;
lastChange = "2018-05-02 18:04:59 +0000";
layers = (
{
layerId = "60B18B06-8123-4D0C-85E3-2DE7B5C03586";
paths = (
{
closed = 1;
nodes = (
"245 0 LINE",
"245 74 LINE",
"278 74 LINE",
"278 160 LINE",
"245 160 LINE",
"245 450 LINE",
"171 450 LINE",
"13 147 LINE",
"13 74 LINE",
"160 74 LINE",
"160 0 LINE"
);
},
{
closed = 1;
nodes = (
"160 280 LINE",
"160 160 LINE",
"102 160 LINE"
);
}
);
width = 313;
},
{
hints = (
{
horizontal = 1;
origin = "{0, 10}";
target = "{1, 2}";
},
{
horizontal = 1;
origin = "{1, 2}";
target = "{0, 8}";
}
);
layerId = "DDDB0B36-051A-43AE-9F30-611505482296";
paths = (
{
closed = 1;
nodes = (
"220 0 LINE",
"220 98 LINE",
"262 98 LINE",
"262 143 LINE",
"220 143 LINE",
"220 450 LINE",
"175 450 LINE",
"7 140 LINE",
"7 98 LINE",
"175 98 LINE",
"175 0 LINE"
);
},
{
closed = 1;
nodes = (
"175 370 LINE",
"175 143 LINE",
"54 143 LINE"
);
}
);
width = 287;
}
);
note = four;
},
{
glyphname = five.dnom;
lastChange = "2018-05-02 18:04:59 +0000";
layers = (
{
layerId = "60B18B06-8123-4D0C-85E3-2DE7B5C03586";
paths = (
{
closed = 1;
nodes = (
"232 -10 OFFCURVE",
"276 35 OFFCURVE",
"276 101 CURVE SMOOTH",
"276 185 LINE SMOOTH",
"276 251 OFFCURVE",
"233 296 OFFCURVE",
"171 296 CURVE SMOOTH",
"160 296 OFFCURVE",
"147 294 OFFCURVE",
"138 289 CURVE",
"138 365 LINE",
"257 365 LINE",
"257 450 LINE",
"53 450 LINE",
"53 181 LINE",
"138 181 LINE",
"138 185 LINE SMOOTH",
"138 200 OFFCURVE",
"147 211 OFFCURVE",
"165 211 CURVE SMOOTH",
"182 211 OFFCURVE",
"191 200 OFFCURVE",
"191 185 CURVE SMOOTH",
"191 101 LINE SMOOTH",
"191 86 OFFCURVE",
"181 75 OFFCURVE",
"165 75 CURVE SMOOTH",
"148 75 OFFCURVE",
"138 86 OFFCURVE",
"138 101 CURVE SMOOTH",
"138 126 LINE",
"53 126 LINE",
"53 101 LINE SMOOTH",
"53 35 OFFCURVE",
"97 -10 OFFCURVE",
"165 -10 CURVE SMOOTH"
);
}
);
width = 315;
},
{
hints = (
{
horizontal = 1;
origin = "{0, 35}";
target = "{0, 26}";
},
{
horizontal = 1;
origin = "{0, 19}";
target = "{0, 6}";
},
{
horizontal = 1;
origin = "{0, 10}";
target = "{0, 13}";
}
);
layerId = "DDDB0B36-051A-43AE-9F30-611505482296";
paths = (
{
closed = 1;
nodes = (
"222 -10 OFFCURVE",
"265 35 OFFCURVE",
"265 101 CURVE SMOOTH",
"265 189 LINE SMOOTH",
"265 256 OFFCURVE",
"222 300 OFFCURVE",
"160 300 CURVE SMOOTH",
"135 300 OFFCURVE",
"112 291 OFFCURVE",
"97 272 CURVE",
"97 405 LINE",
"261 405 LINE",
"261 450 LINE",
"52 450 LINE",
"52 183 LINE",
"97 183 LINE",
"97 190 LINE SMOOTH",
"97 229 OFFCURVE",
"120 255 OFFCURVE",
"156 255 CURVE SMOOTH",
"195 255 OFFCURVE",
"220 229 OFFCURVE",
"220 189 CURVE SMOOTH",
"220 101 LINE SMOOTH",
"220 62 OFFCURVE",
"195 35 OFFCURVE",
"159 35 CURVE SMOOTH",
"122 35 OFFCURVE",
"97 62 OFFCURVE",
"97 101 CURVE SMOOTH",
"97 116 LINE",
"52 116 LINE",
"52 101 LINE SMOOTH",
"52 35 OFFCURVE",
"95 -10 OFFCURVE",
"159 -10 CURVE SMOOTH"
);
}
);
width = 304;
},
{
associatedMasterId = "DDDB0B36-051A-43AE-9F30-611505482296";
layerId = "2F00CE1A-B26B-4236-88BB-68A23E01396B";
name = "Apr 26 18, 16:09";
paths = (
{
closed = 1;
nodes = (
"361 -12 OFFCURVE",
"431 62 OFFCURVE",
"431 173 CURVE SMOOTH",
"431 225 LINE SMOOTH",
"431 336 OFFCURVE",
"361 410 OFFCURVE",
"256 410 CURVE SMOOTH",
"256 410 LINE",
"250 355 LINE",
"328 355 OFFCURVE",
"376 303 OFFCURVE",
"376 225 CURVE SMOOTH",
"376 173 LINE SMOOTH",
"376 95 OFFCURVE",
"328 43 OFFCURVE",
"256 43 CURVE SMOOTH",
"184 43 OFFCURVE",
"136 95 OFFCURVE",
"136 173 CURVE SMOOTH",
"136 193 LINE",
"81 193 LINE",
"81 173 LINE SMOOTH",
"81 62 OFFCURVE",
"151 -12 OFFCURVE",
"256 -12 CURVE SMOOTH"
);
},
{
closed = 1;
nodes = (
"256 410 LINE",
"161 410 OFFCURVE",
"103 337 OFFCURVE",
"103 226 CURVE SMOOTH",
"103 214 LINE",
"139 214 LINE",
"139 226 LINE SMOOTH",
"139 304 OFFCURVE",
"181 355 OFFCURVE",
"250 355 CURVE"
);
}
);
width = 600;
}
);
note = five;
},
{
glyphname = six.dnom;
lastChange = "2018-05-02 18:04:59 +0000";
layers = (
{
layerId = "60B18B06-8123-4D0C-85E3-2DE7B5C03586";
paths = (
{
closed = 1;
nodes = (
"230 -10 OFFCURVE",
"274 35 OFFCURVE",
"274 101 CURVE SMOOTH",
"274 185 LINE SMOOTH",
"274 251 OFFCURVE",
"231 296 OFFCURVE",
"169 296 CURVE SMOOTH",
"158 296 OFFCURVE",
"145 294 OFFCURVE",
"136 289 CURVE",
"136 349 LINE SMOOTH",
"136 364 OFFCURVE",
"146 375 OFFCURVE",
"163 375 CURVE SMOOTH",
"179 375 OFFCURVE",
"189 364 OFFCURVE",
"189 349 CURVE SMOOTH",
"189 324 LINE",
"274 324 LINE",
"274 349 LINE SMOOTH",
"274 415 OFFCURVE",
"230 460 OFFCURVE",
"163 460 CURVE SMOOTH",
"95 460 OFFCURVE",
"51 415 OFFCURVE",
"51 349 CURVE SMOOTH",
"51 101 LINE SMOOTH",
"51 35 OFFCURVE",
"95 -10 OFFCURVE",
"163 -10 CURVE SMOOTH"
);
},
{
closed = 1;
nodes = (
"146 75 OFFCURVE",
"136 86 OFFCURVE",
"136 101 CURVE SMOOTH",
"136 185 LINE SMOOTH",
"136 200 OFFCURVE",
"145 211 OFFCURVE",
"163 211 CURVE SMOOTH",
"180 211 OFFCURVE",
"189 200 OFFCURVE",
"189 185 CURVE SMOOTH",
"189 101 LINE SMOOTH",
"189 86 OFFCURVE",
"179 75 OFFCURVE",
"163 75 CURVE SMOOTH"
);
}
);
width = 320;
},
{
hints = (
{
horizontal = 1;
origin = "{0, 29}";
target = "{1, 13}";
},
{
horizontal = 1;
origin = "{1, 6}";
target = "{0, 6}";
},
{
horizontal = 1;
origin = "{0, 13}";
target = "{0, 22}";
}
);
layerId = "DDDB0B36-051A-43AE-9F30-611505482296";
paths = (
{
closed = 1;
nodes = (
"221 -10 OFFCURVE",
"264 35 OFFCURVE",
"264 101 CURVE SMOOTH",
"264 189 LINE SMOOTH",
"264 256 OFFCURVE",
"221 300 OFFCURVE",
"159 300 CURVE SMOOTH",
"134 300 OFFCURVE",
"111 291 OFFCURVE",
"96 272 CURVE",
"96 349 LINE SMOOTH",
"96 388 OFFCURVE",
"121 415 OFFCURVE",
"158 415 CURVE SMOOTH",
"194 415 OFFCURVE",
"219 388 OFFCURVE",
"219 349 CURVE SMOOTH",
"219 334 LINE",
"264 334 LINE",
"264 349 LINE SMOOTH",
"264 415 OFFCURVE",
"221 460 OFFCURVE",
"158 460 CURVE SMOOTH",
"94 460 OFFCURVE",
"51 415 OFFCURVE",
"51 349 CURVE SMOOTH",
"51 101 LINE SMOOTH",
"51 35 OFFCURVE",
"94 -10 OFFCURVE",
"158 -10 CURVE SMOOTH"
);
},
{
closed = 1;
nodes = (
"121 35 OFFCURVE",
"96 62 OFFCURVE",
"96 101 CURVE SMOOTH",
"96 190 LINE SMOOTH",
"96 229 OFFCURVE",
"119 255 OFFCURVE",
"155 255 CURVE SMOOTH",
"194 255 OFFCURVE",
"219 229 OFFCURVE",
"219 189 CURVE SMOOTH",
"219 101 LINE SMOOTH",
"219 62 OFFCURVE",
"194 35 OFFCURVE",
"158 35 CURVE SMOOTH"
);
}
);
width = 309;
}
);
note = six;
},
{
glyphname = seven.dnom;
lastChange = "2018-05-02 18:05:44 +0000";
layers = (
{
layerId = "60B18B06-8123-4D0C-85E3-2DE7B5C03586";
paths = (
{
closed = 1;
nodes = (
"125 0 LINE",
"233 370 LINE",
"233 450 LINE",
"13 450 LINE",
"13 365 LINE",
"150 365 LINE",
"37 0 LINE"
);
}
);
width = 251;
},
{
hints = (
{
horizontal = 1;
origin = "{0, 6}";
target = up;
type = BottomGhost;
},
{
horizontal = 1;
origin = "{0, 4}";
target = "{0, 3}";
}
);
layerId = "DDDB0B36-051A-43AE-9F30-611505482296";
paths = (
{
closed = 1;
nodes = (
"93 0 LINE",
"207 410 LINE",
"207 450 LINE",
"-1 450 LINE",
"-1 405 LINE",
"159 405 LINE",
"45 0 LINE"
);
}
);
width = 219;
}
);
note = seven;
},
{
glyphname = eight.dnom;
lastChange = "2018-05-02 18:04:59 +0000";
layers = (
{
layerId = "60B18B06-8123-4D0C-85E3-2DE7B5C03586";
paths = (
{
closed = 1;
nodes = (
"228 -10 OFFCURVE",
"272 35 OFFCURVE",
"272 101 CURVE SMOOTH",
"272 162 LINE SMOOTH",
"272 188 OFFCURVE",
"265 212 OFFCURVE",
"252 230 CURVE",
"265 248 OFFCURVE",
"272 273 OFFCURVE",
"272 299 CURVE SMOOTH",
"272 349 LINE SMOOTH",
"272 415 OFFCURVE",
"228 460 OFFCURVE",
"161 460 CURVE SMOOTH",
"93 460 OFFCURVE",
"49 415 OFFCURVE",
"49 349 CURVE SMOOTH",
"49 299 LINE SMOOTH",
"49 272 OFFCURVE",
"56 248 OFFCURVE",
"69 230 CURVE",
"56 212 OFFCURVE",
"49 189 OFFCURVE",
"49 162 CURVE SMOOTH",
"49 101 LINE SMOOTH",
"49 35 OFFCURVE",
"93 -10 OFFCURVE",
"161 -10 CURVE SMOOTH"
);
},
{
closed = 1;
nodes = (
"144 75 OFFCURVE",
"134 86 OFFCURVE",
"134 101 CURVE SMOOTH",
"134 162 LINE SMOOTH",
"134 177 OFFCURVE",
"144 188 OFFCURVE",
"161 188 CURVE SMOOTH",
"177 188 OFFCURVE",
"187 177 OFFCURVE",
"187 162 CURVE SMOOTH",
"187 101 LINE SMOOTH",
"187 86 OFFCURVE",
"177 75 OFFCURVE",
"161 75 CURVE SMOOTH"
);
},
{
closed = 1;
nodes = (
"144 273 OFFCURVE",
"134 283 OFFCURVE",
"134 299 CURVE SMOOTH",
"134 349 LINE SMOOTH",
"134 364 OFFCURVE",
"144 375 OFFCURVE",
"161 375 CURVE SMOOTH",
"177 375 OFFCURVE",
"187 364 OFFCURVE",
"187 349 CURVE SMOOTH",
"187 299 LINE SMOOTH",
"187 283 OFFCURVE",
"177 273 OFFCURVE",
"161 273 CURVE SMOOTH"
);
}
);
width = 321;
},
{
hints = (
{
horizontal = 1;
origin = "{0, 27}";
target = "{1, 13}";
},
{
horizontal = 1;
origin = "{1, 6}";
target = "{2, 13}";
},
{
horizontal = 1;
origin = "{2, 6}";
target = "{0, 13}";
}
);
layerId = "DDDB0B36-051A-43AE-9F30-611505482296";
paths = (
{
closed = 1;
nodes = (
"217 -10 OFFCURVE",
"260 35 OFFCURVE",
"260 101 CURVE SMOOTH",
"260 141 LINE SMOOTH",
"260 182 OFFCURVE",
"244 212 OFFCURVE",
"220 230 CURVE",
"246 249 OFFCURVE",
"260 280 OFFCURVE",
"260 318 CURVE SMOOTH",
"260 349 LINE SMOOTH",
"260 415 OFFCURVE",
"217 460 OFFCURVE",
"154 460 CURVE SMOOTH",
"90 460 OFFCURVE",
"47 415 OFFCURVE",
"47 349 CURVE SMOOTH",
"47 318 LINE SMOOTH",
"47 280 OFFCURVE",
"61 249 OFFCURVE",
"87 230 CURVE",
"63 212 OFFCURVE",
"47 182 OFFCURVE",
"47 141 CURVE SMOOTH",
"47 101 LINE SMOOTH",
"47 35 OFFCURVE",
"90 -10 OFFCURVE",
"154 -10 CURVE SMOOTH"
);
},
{
closed = 1;
nodes = (
"117 35 OFFCURVE",
"92 62 OFFCURVE",
"92 101 CURVE SMOOTH",
"92 141 LINE SMOOTH",
"92 181 OFFCURVE",
"117 207 OFFCURVE",
"154 207 CURVE SMOOTH",
"190 207 OFFCURVE",
"215 181 OFFCURVE",
"215 141 CURVE SMOOTH",
"215 101 LINE SMOOTH",
"215 62 OFFCURVE",
"190 35 OFFCURVE",
"154 35 CURVE SMOOTH"
);
},
{
closed = 1;
nodes = (
"116 252 OFFCURVE",
"92 279 OFFCURVE",
"92 318 CURVE SMOOTH",
"92 349 LINE SMOOTH",
"92 388 OFFCURVE",
"117 415 OFFCURVE",
"154 415 CURVE SMOOTH",
"190 415 OFFCURVE",
"215 388 OFFCURVE",
"215 349 CURVE SMOOTH",
"215 318 LINE SMOOTH",
"215 279 OFFCURVE",
"191 252 OFFCURVE",
"154 252 CURVE SMOOTH"
);
}
);
width = 307;
}
);
note = eight;
},
{
glyphname = nine.dnom;
lastChange = "2018-05-02 18:04:59 +0000";
layers = (
{
layerId = "60B18B06-8123-4D0C-85E3-2DE7B5C03586";
paths = (
{
closed = 1;
nodes = (
"225 -10 OFFCURVE",
"269 35 OFFCURVE",
"269 101 CURVE SMOOTH",
"269 349 LINE SMOOTH",
"269 415 OFFCURVE",
"225 460 OFFCURVE",
"158 460 CURVE SMOOTH",
"90 460 OFFCURVE",
"46 415 OFFCURVE",
"46 349 CURVE SMOOTH",
"46 265 LINE SMOOTH",
"46 199 OFFCURVE",
"89 154 OFFCURVE",
"151 154 CURVE SMOOTH",
"162 154 OFFCURVE",
"175 156 OFFCURVE",
"184 161 CURVE",
"184 101 LINE SMOOTH",
"184 86 OFFCURVE",
"174 75 OFFCURVE",
"158 75 CURVE SMOOTH",
"141 75 OFFCURVE",
"131 86 OFFCURVE",
"131 101 CURVE SMOOTH",
"131 126 LINE",
"46 126 LINE",
"46 101 LINE SMOOTH",
"46 35 OFFCURVE",
"90 -10 OFFCURVE",
"158 -10 CURVE SMOOTH"
);
},
{
closed = 1;
nodes = (
"140 239 OFFCURVE",
"131 250 OFFCURVE",
"131 265 CURVE SMOOTH",
"131 349 LINE SMOOTH",
"131 364 OFFCURVE",
"141 375 OFFCURVE",
"158 375 CURVE SMOOTH",
"174 375 OFFCURVE",
"184 364 OFFCURVE",
"184 349 CURVE SMOOTH",
"184 265 LINE SMOOTH",
"184 250 OFFCURVE",
"175 239 OFFCURVE",
"157 239 CURVE SMOOTH"
);
}
);
width = 320;
},
{
hints = (
{
horizontal = 1;
origin = "{0, 29}";
target = "{0, 20}";
},
{
horizontal = 1;
origin = "{0, 13}";
target = "{1, 13}";
},
{
horizontal = 1;
origin = "{1, 6}";
target = "{0, 6}";
}
);
layerId = "DDDB0B36-051A-43AE-9F30-611505482296";
paths = (
{
closed = 1;
nodes = (
"215 -10 OFFCURVE",
"258 35 OFFCURVE",
"258 101 CURVE SMOOTH",
"258 349 LINE SMOOTH",
"258 415 OFFCURVE",
"215 460 OFFCURVE",
"152 460 CURVE SMOOTH",
"88 460 OFFCURVE",
"45 415 OFFCURVE",
"45 349 CURVE SMOOTH",
"45 261 LINE SMOOTH",
"45 194 OFFCURVE",
"88 150 OFFCURVE",
"150 150 CURVE SMOOTH",
"175 150 OFFCURVE",
"198 159 OFFCURVE",
"213 178 CURVE",
"213 101 LINE SMOOTH",
"213 62 OFFCURVE",
"188 35 OFFCURVE",
"152 35 CURVE SMOOTH",
"115 35 OFFCURVE",
"90 62 OFFCURVE",
"90 101 CURVE SMOOTH",
"90 116 LINE",
"45 116 LINE",
"45 101 LINE SMOOTH",
"45 35 OFFCURVE",
"88 -10 OFFCURVE",
"152 -10 CURVE SMOOTH"
);
},
{
closed = 1;
nodes = (
"115 195 OFFCURVE",
"90 221 OFFCURVE",
"90 261 CURVE SMOOTH",
"90 349 LINE SMOOTH",
"90 388 OFFCURVE",
"115 415 OFFCURVE",
"152 415 CURVE SMOOTH",
"188 415 OFFCURVE",
"213 388 OFFCURVE",
"213 349 CURVE SMOOTH",
"213 260 LINE SMOOTH",
"213 221 OFFCURVE",
"190 195 OFFCURVE",
"154 195 CURVE SMOOTH"
);
}
);
width = 309;
}
);
note = nine;
},
{
glyphname = zero.numr;
lastChange = "2018-05-02 18:04:59 +0000";
layers = (
{
layerId = "60B18B06-8123-4D0C-85E3-2DE7B5C03586";
paths = (
{
closed = 1;
nodes = (
"230 290 OFFCURVE",
"274 335 OFFCURVE",
"274 401 CURVE SMOOTH",
"274 649 LINE SMOOTH",
"274 715 OFFCURVE",
"230 760 OFFCURVE",
"163 760 CURVE SMOOTH",
"95 760 OFFCURVE",
"51 715 OFFCURVE",
"51 649 CURVE SMOOTH",
"51 401 LINE SMOOTH",
"51 335 OFFCURVE",
"95 290 OFFCURVE",
"163 290 CURVE SMOOTH"
);
},
{
closed = 1;
nodes = (
"146 375 OFFCURVE",
"136 386 OFFCURVE",
"136 401 CURVE SMOOTH",
"136 649 LINE SMOOTH",
"136 664 OFFCURVE",
"146 675 OFFCURVE",
"163 675 CURVE SMOOTH",
"179 675 OFFCURVE",
"189 664 OFFCURVE",
"189 649 CURVE SMOOTH",
"189 401 LINE SMOOTH",
"189 386 OFFCURVE",
"179 375 OFFCURVE",
"163 375 CURVE SMOOTH"
);
},
{
closed = 1;
nodes = (
"99 375 LINE",
"145 375 LINE",
"227 675 LINE",
"180 675 LINE"
);
}
);
width = 325;
},
{
hints = (
{
horizontal = 1;
origin = "{0, 13}";
target = "{2, 0}";
},
{
horizontal = 1;
origin = "{0, 6}";
target = "{1, 6}";
}
);
layerId = "DDDB0B36-051A-43AE-9F30-611505482296";
paths = (
{
closed = 1;
nodes = (
"221 290 OFFCURVE",
"264 335 OFFCURVE",
"264 401 CURVE SMOOTH",
"264 649 LINE SMOOTH",
"264 715 OFFCURVE",
"221 760 OFFCURVE",
"158 760 CURVE SMOOTH",
"94 760 OFFCURVE",
"51 715 OFFCURVE",
"51 649 CURVE SMOOTH",
"51 401 LINE SMOOTH",
"51 335 OFFCURVE",
"94 290 OFFCURVE",
"158 290 CURVE SMOOTH"
);
},
{
closed = 1;
nodes = (
"121 335 OFFCURVE",
"96 362 OFFCURVE",
"96 401 CURVE SMOOTH",
"96 649 LINE SMOOTH",
"96 688 OFFCURVE",
"121 715 OFFCURVE",
"158 715 CURVE SMOOTH",
"194 715 OFFCURVE",
"219 688 OFFCURVE",
"219 649 CURVE SMOOTH",
"219 401 LINE SMOOTH",
"219 362 OFFCURVE",
"194 335 OFFCURVE",
"158 335 CURVE SMOOTH"
);
},
{
closed = 1;
nodes = (
"87 335 LINE",
"120 335 LINE",
"229 715 LINE",
"195 715 LINE"
);
}
);
width = 315;
}
);
note = zero;
},
{
glyphname = one.numr;
lastChange = "2018-05-02 18:04:59 +0000";
layers = (
{
layerId = "60B18B06-8123-4D0C-85E3-2DE7B5C03586";
paths = (
{
closed = 1;
nodes = (
"168 300 LINE",
"168 750 LINE",
"83 750 LINE",
"83 743 LINE SMOOTH",
"83 715 OFFCURVE",
"64 698 OFFCURVE",
"33 698 CURVE SMOOTH",
"12 698 LINE",
"12 613 LINE",
"83 613 LINE",
"83 300 LINE"
);
}
);
width = 228;
},
{
hints = (
{
horizontal = 1;
origin = "{0, 2}";
target = "{0, 8}";
},
{
horizontal = 1;
origin = "{0, 8}";
target = "{0, 7}";
}
);
layerId = "DDDB0B36-051A-43AE-9F30-611505482296";
paths = (
{
closed = 1;
nodes = (
"118 300 LINE",
"118 760 LINE",
"73 760 LINE",
"73 753 LINE SMOOTH",
"73 725 OFFCURVE",
"54 708 OFFCURVE",
"23 708 CURVE SMOOTH",
"12 708 LINE",
"12 663 LINE",
"73 663 LINE",
"73 300 LINE"
);
}
);
width = 178;
}
);
note = one;
},
{
glyphname = two.numr;
lastChange = "2018-05-02 18:04:59 +0000";
layers = (
{
layerId = "60B18B06-8123-4D0C-85E3-2DE7B5C03586";
paths = (
{
closed = 1;
nodes = (
"260 300 LINE",
"260 385 LINE",
"127 385 LINE",
"127 394 LINE SMOOTH",
"127 476 OFFCURVE",
"260 474 OFFCURVE",
"260 587 CURVE SMOOTH",
"260 649 LINE SMOOTH",
"260 715 OFFCURVE",
"216 760 OFFCURVE",
"148 760 CURVE SMOOTH",
"81 760 OFFCURVE",
"37 715 OFFCURVE",
"37 649 CURVE SMOOTH",
"37 624 LINE",
"122 624 LINE",
"122 649 LINE SMOOTH",
"122 664 OFFCURVE",
"132 675 OFFCURVE",
"148 675 CURVE SMOOTH",
"165 675 OFFCURVE",
"175 664 OFFCURVE",
"175 649 CURVE SMOOTH",
"175 587 LINE SMOOTH",
"175 519 OFFCURVE",
"37 524 OFFCURVE",
"37 379 CURVE SMOOTH",
"37 300 LINE"
);
}
);
width = 301;
},
{
associatedMasterId = "60B18B06-8123-4D0C-85E3-2DE7B5C03586";
layerId = "F92B29A1-039B-46AC-99A0-1FE44ADB51CB";
name = "Apr 25 18, 17:35";
paths = (
{
closed = 1;
nodes = (
"150 582 LINE SMOOTH",
"150 621 OFFCURVE",
"186 655 OFFCURVE",
"226 655 CURVE SMOOTH",
"265 655 OFFCURVE",
"301 623 OFFCURVE",
"302 582 CURVE SMOOTH",
"304 500 LINE SMOOTH",
"309 322 OFFCURVE",
"41 294 OFFCURVE",
"41 71 CURVE SMOOTH",
"41 0 LINE",
"414 0 LINE",
"414 95 LINE",
"142 95 LINE",
"142 284 OFFCURVE",
"399 275 OFFCURVE",
"399 503 CURVE",
"398 582 LINE SMOOTH",
"397 672 OFFCURVE",
"320 750 OFFCURVE",
"226 750 CURVE SMOOTH",
"134 750 OFFCURVE",
"54 676 OFFCURVE",
"54 582 CURVE SMOOTH",
"54 520 LINE",
"150 520 LINE"
);
}
);
width = 456;
},
{
hints = (
{
horizontal = 1;
origin = "{0, 27}";
target = "{0, 2}";
},
{
horizontal = 1;
origin = "{0, 10}";
target = "{0, 19}";
}
);
layerId = "DDDB0B36-051A-43AE-9F30-611505482296";
paths = (
{
closed = 1;
nodes = (
"241 300 LINE",
"241 345 LINE",
"75 345 LINE",
"75 350 LINE SMOOTH",
"75 445 OFFCURVE",
"241 501 OFFCURVE",
"241 607 CURVE SMOOTH",
"241 649 LINE SMOOTH",
"241 715 OFFCURVE",
"198 760 OFFCURVE",
"134 760 CURVE SMOOTH",
"71 760 OFFCURVE",
"28 715 OFFCURVE",
"28 649 CURVE SMOOTH",
"28 634 LINE",
"73 634 LINE",
"73 649 LINE SMOOTH",
"73 688 OFFCURVE",
"98 715 OFFCURVE",
"134 715 CURVE SMOOTH",
"171 715 OFFCURVE",
"196 688 OFFCURVE",
"196 649 CURVE SMOOTH",
"196 607 LINE SMOOTH",
"196 517 OFFCURVE",
"28 472 OFFCURVE",
"28 338 CURVE SMOOTH",
"28 300 LINE"
);
}
);
width = 272;
}
);
note = two;
},
{
glyphname = three.numr;
lastChange = "2018-05-02 18:04:59 +0000";
layers = (
{
layerId = "60B18B06-8123-4D0C-85E3-2DE7B5C03586";
paths = (
{
closed = 1;
nodes = (
"211 290 OFFCURVE",
"255 335 OFFCURVE",
"255 401 CURVE SMOOTH",
"255 464 LINE SMOOTH",
"255 490 OFFCURVE",
"248 514 OFFCURVE",
"235 532 CURVE",
"248 550 OFFCURVE",
"255 575 OFFCURVE",
"255 601 CURVE SMOOTH",
"255 649 LINE SMOOTH",
"255 715 OFFCURVE",
"211 760 OFFCURVE",
"144 760 CURVE SMOOTH",
"76 760 OFFCURVE",
"32 715 OFFCURVE",
"32 649 CURVE SMOOTH",
"32 624 LINE",
"117 624 LINE",
"117 649 LINE SMOOTH",
"117 664 OFFCURVE",
"127 675 OFFCURVE",
"144 675 CURVE SMOOTH",
"160 675 OFFCURVE",
"170 664 OFFCURVE",
"170 649 CURVE SMOOTH",
"170 601 LINE SMOOTH",
"170 585 OFFCURVE",
"160 575 OFFCURVE",
"144 575 CURVE SMOOTH",
"95 575 LINE",
"95 490 LINE",
"144 490 LINE SMOOTH",
"160 490 OFFCURVE",
"170 479 OFFCURVE",
"170 464 CURVE SMOOTH",
"170 401 LINE SMOOTH",
"170 386 OFFCURVE",
"160 375 OFFCURVE",
"144 375 CURVE SMOOTH",
"127 375 OFFCURVE",
"117 386 OFFCURVE",
"117 401 CURVE SMOOTH",
"117 426 LINE",
"32 426 LINE",
"32 401 LINE SMOOTH",
"32 335 OFFCURVE",
"76 290 OFFCURVE",
"144 290 CURVE SMOOTH"
);
}
);
width = 304;
},
{
hints = (
{
horizontal = 1;
origin = "{0, 48}";
target = "{0, 39}";
},
{
horizontal = 1;
origin = "{0, 31}";
target = "{0, 30}";
},
{
horizontal = 1;
origin = "{0, 13}";
target = "{0, 22}";
}
);
layerId = "DDDB0B36-051A-43AE-9F30-611505482296";
paths = (
{
closed = 1;
nodes = (
"198 290 OFFCURVE",
"241 335 OFFCURVE",
"241 401 CURVE SMOOTH",
"241 442 LINE SMOOTH",
"241 484 OFFCURVE",
"224 513 OFFCURVE",
"201 530 CURVE",
"228 550 OFFCURVE",
"241 582 OFFCURVE",
"241 619 CURVE SMOOTH",
"241 649 LINE SMOOTH",
"241 715 OFFCURVE",
"198 760 OFFCURVE",
"135 760 CURVE SMOOTH",
"71 760 OFFCURVE",
"28 715 OFFCURVE",
"28 649 CURVE SMOOTH",
"28 634 LINE",
"73 634 LINE",
"73 649 LINE SMOOTH",
"73 688 OFFCURVE",
"98 715 OFFCURVE",
"135 715 CURVE SMOOTH",
"171 715 OFFCURVE",
"196 688 OFFCURVE",
"196 649 CURVE SMOOTH",
"196 619 LINE SMOOTH",
"196 579 OFFCURVE",
"171 553 OFFCURVE",
"135 553 CURVE SMOOTH",
"99 553 LINE",
"99 508 LINE",
"135 508 LINE SMOOTH",
"171 508 OFFCURVE",
"196 481 OFFCURVE",
"196 442 CURVE SMOOTH",
"196 401 LINE SMOOTH",
"196 362 OFFCURVE",
"171 335 OFFCURVE",
"135 335 CURVE SMOOTH",
"98 335 OFFCURVE",
"73 362 OFFCURVE",
"73 401 CURVE SMOOTH",
"73 416 LINE",
"28 416 LINE",
"28 401 LINE SMOOTH",
"28 335 OFFCURVE",
"71 290 OFFCURVE",
"135 290 CURVE SMOOTH"
);
}
);
width = 288;
}
);
note = three;
},
{
glyphname = four.numr;
lastChange = "2018-05-02 18:04:59 +0000";
layers = (
{
layerId = "60B18B06-8123-4D0C-85E3-2DE7B5C03586";
paths = (
{
closed = 1;
nodes = (
"245 300 LINE",
"245 374 LINE",
"278 374 LINE",
"278 460 LINE",
"245 460 LINE",
"245 750 LINE",
"171 750 LINE",
"13 447 LINE",
"13 374 LINE",
"160 374 LINE",
"160 300 LINE"
);
},
{
closed = 1;
nodes = (
"160 580 LINE",
"160 460 LINE",
"102 460 LINE"
);
}
);
width = 313;
},
{
hints = (
{
horizontal = 1;
origin = "{0, 8}";
target = "{1, 2}";
},
{
horizontal = 1;
origin = "{0, 6}";
target = down;
type = TopGhost;
}
);
layerId = "DDDB0B36-051A-43AE-9F30-611505482296";
paths = (
{
closed = 1;
nodes = (
"220 300 LINE",
"220 398 LINE",
"262 398 LINE",
"262 443 LINE",
"220 443 LINE",
"220 750 LINE",
"175 750 LINE",
"7 440 LINE",
"7 398 LINE",
"175 398 LINE",
"175 300 LINE"
);
},
{
closed = 1;
nodes = (
"175 670 LINE",
"175 443 LINE",
"54 443 LINE"
);
}
);
width = 287;
}
);
note = four;
},
